<svg xmlns="http://www.w3.org/2000/svg" width="32.025" height="32.026" viewBox="0 0 32.025 32.026">
  <g id="networking_243946" transform="translate(0.001)">
    <path id="Path_83269" data-name="Path 83269" d="M102.136,112.4h-.068A10.266,10.266,0,1,1,112.4,102.138a10.413,10.413,0,0,1-.07,1.2,10.294,10.294,0,0,1-2.883,6,.95.95,0,0,1-1.353-1.334,8.384,8.384,0,0,0,2.35-4.888,8.523,8.523,0,0,0,.057-.984A8.367,8.367,0,1,0,102.1,110.5h.038a.95.95,0,0,1,0,1.9Z" transform="translate(-86.124 -86.125)" fill="#0057b6"/>
    <path id="Path_83270" data-name="Path 83270" d="M196.66,111.6c-1.846,1.075-1.863,3.89-2.817,5.018s-4.925-1.659-4.806-3.378-.438-1.5-.756-1.773c-.2-.171.874-2.358.772-3.656a8.622,8.622,0,0,1,8.585.893C197.725,109.866,197.581,111.065,196.66,111.6Z" transform="translate(-176.481 -100.364)" fill="#aad7f9"/>
    <path id="Path_83271" data-name="Path 83271" d="M178.948,103.591a6.362,6.362,0,0,1-3.934-2.132,3.629,3.629,0,0,1-1.157-2.524,3.158,3.158,0,0,0-.01-.729,1.738,1.738,0,0,1-.412-.253c-.57-.481-.367-1.107-.06-2.055a7.559,7.559,0,0,0,.5-2.251.95.95,0,0,1,.6-.958,9.567,9.567,0,0,1,9.461.985.95.95,0,0,1,.422.721c.14,1.873-.347,3.147-1.447,3.788a4.6,4.6,0,0,0-1.554,2.648,6.508,6.508,0,0,1-1.017,2.162A1.739,1.739,0,0,1,178.948,103.591Zm-3.85-6.841c.549.436.737,1.134.655,2.316-.009.129.116.523.65,1.1a4.774,4.774,0,0,0,2.54,1.528,6.558,6.558,0,0,0,.608-1.464,6.125,6.125,0,0,1,2.4-3.686c.417-.243.529-.9.528-1.538a8.258,8.258,0,0,0-4.216-1.232,7.641,7.641,0,0,0-2.513.47,12.036,12.036,0,0,1-.565,2.243C175.156,96.567,175.126,96.659,175.1,96.749Z" transform="translate(-162.249 -86.124)" fill="#0057b6"/>
    <path id="Path_83272" data-name="Path 83272" d="M149.741,310.554a9.5,9.5,0,0,1-7.09-3.395c1.146-1.409,3.553-.821,4.259-2.257C148.117,302.444,151.964,307.24,149.741,310.554Z" transform="translate(-133.729 -285.197)" fill="#aad7f9"/>
    <path id="Path_83273" data-name="Path 83273" d="M135.5,297.264h0a10.375,10.375,0,0,1-7.808-3.728.95.95,0,0,1-.014-1.216,4.714,4.714,0,0,1,2.73-1.423c.772-.193,1.253-.327,1.413-.653a1.974,1.974,0,0,1,1.776-1.207,3.574,3.574,0,0,1,2.815,2.179,5.507,5.507,0,0,1-.118,5.628A.95.95,0,0,1,135.5,297.264Zm-5.656-4.22a8.588,8.588,0,0,0,5.113,2.3,3.763,3.763,0,0,0-.226-3.232c-.45-.843-.958-1.145-1.118-1.171a.6.6,0,0,0-.091.142,3.57,3.57,0,0,1-2.658,1.659A7.618,7.618,0,0,0,129.845,293.044Z" transform="translate(-119.49 -270.958)" fill="#0057b6"/>
    <path id="Path_83274" data-name="Path 83274" d="M313.336,269.364a9.156,9.156,0,0,1-2.509,5.445c-1.624-.334-1.947-1.8-2.831-2.809-2.075-2.376,1.709-2.91,3.817-2.91A4.254,4.254,0,0,1,313.336,269.364Z" transform="translate(-288.167 -252.257)" fill="#aad7f9"/>
    <g id="Group_162436" data-name="Group 162436" transform="translate(-0.001 0)">
      <path id="Path_83275" data-name="Path 83275" d="M296.578,261.519a.954.954,0,0,1-.191-.019,4.179,4.179,0,0,1-2.759-2.26,6.8,6.8,0,0,0-.6-.855,2.361,2.361,0,0,1-.67-2.63c.733-1.614,3.575-1.855,5.2-1.855a5.162,5.162,0,0,1,1.844.331.95.95,0,0,1,.623,1,10.1,10.1,0,0,1-2.776,6A.949.949,0,0,1,296.578,261.519Zm-2.482-4.987a1.3,1.3,0,0,0,.367.6,8.323,8.323,0,0,1,.774,1.1,3.309,3.309,0,0,0,1.06,1.237,8.145,8.145,0,0,0,1.717-3.641,3.432,3.432,0,0,0-.449-.027C295.519,255.8,294.251,256.264,294.1,256.532Z" transform="translate(-273.918 -238.018)" fill="#0057b6"/>
      <path id="Path_83276" data-name="Path 83276" d="M16.013,32.026A16.013,16.013,0,0,1,4.69,4.69a16.012,16.012,0,0,1,22.645,0,.95.95,0,1,1-1.344,1.344A14.112,14.112,0,1,0,6.034,25.992a14.113,14.113,0,0,0,24.092-9.979.95.95,0,1,1,1.9,0A16.013,16.013,0,0,1,16.013,32.026Z" transform="translate(0 0)" fill="#0057b6"/>
    </g>
    <ellipse id="Ellipse_21" data-name="Ellipse 21" cx="2.363" cy="2.363" rx="2.363" ry="2.363" transform="translate(2.999 2.999)" fill="#aad7f9"/>
    <path id="Path_83277" data-name="Path 83277" d="M36.094,39.384a3.313,3.313,0,1,1,2.342-.97A3.291,3.291,0,0,1,36.094,39.384Zm0-4.726a1.413,1.413,0,1,0,1,.414A1.4,1.4,0,0,0,36.094,34.658Z" transform="translate(-30.733 -30.709)" fill="#0057b6"/>
    <ellipse id="Ellipse_22" data-name="Ellipse 22" cx="2.363" cy="2.363" rx="2.363" ry="2.363" transform="translate(24.3 24.301)" fill="#aad7f9"/>
    <path id="Path_83278" data-name="Path 83278" d="M376.65,379.941a3.313,3.313,0,1,1,2.342-.97A3.291,3.291,0,0,1,376.65,379.941Zm0-4.726a1.413,1.413,0,1,0,1,.414A1.4,1.4,0,0,0,376.65,375.215Z" transform="translate(-349.987 -349.964)" fill="#0057b6"/>
    <ellipse id="Ellipse_23" data-name="Ellipse 23" cx="2.363" cy="2.363" rx="2.363" ry="2.363" transform="translate(24.3 2.999)" fill="#aad7f9"/>
    <path id="Path_83279" data-name="Path 83279" d="M376.65,39.384a3.313,3.313,0,1,1,2.342-.97A3.291,3.291,0,0,1,376.65,39.384Zm0-4.726a1.413,1.413,0,1,0,1,.414A1.4,1.4,0,0,0,376.65,34.658Z" transform="translate(-349.987 -30.709)" fill="#0057b6"/>
    <ellipse id="Ellipse_24" data-name="Ellipse 24" cx="2.363" cy="2.363" rx="2.363" ry="2.363" transform="translate(2.999 24.301)" fill="#aad7f9"/>
    <path id="Path_83280" data-name="Path 83280" d="M36.094,379.941a3.313,3.313,0,1,1,2.342-.97A3.291,3.291,0,0,1,36.094,379.941Zm0-4.726a1.413,1.413,0,1,0,1,.414A1.4,1.4,0,0,0,36.094,375.215Z" transform="translate(-30.733 -349.964)" fill="#0057b6"/>
  </g>
</svg>
