<svg xmlns="http://www.w3.org/2000/svg" width="37.389" height="32.512" viewBox="0 0 37.389 32.512">
  <g id="team_216485" transform="translate(0 -33.39)">
    <path id="Path_83288" data-name="Path 83288" d="M191.569,168.917h-11.02v-1.6a5.51,5.51,0,0,1,5.51-5.51h0a5.51,5.51,0,0,1,5.51,5.51v1.6Z" transform="translate(-167.364 -119.036)" fill="#aad7f9"/>
    <path id="Path_83289" data-name="Path 83289" d="M178.735,157.093h-11.02a1.011,1.011,0,0,1-1.011-1.011v-1.6a6.521,6.521,0,1,1,13.042,0v1.6A1.011,1.011,0,0,1,178.735,157.093Zm-10.009-2.022h9v-.592a4.5,4.5,0,1,0-9,0Z" transform="translate(-154.53 -106.201)" fill="#0057b6"/>
    <circle id="Ellipse_25" data-name="Ellipse 25" cx="4.16" cy="4.16" r="4.16" transform="translate(14.534 34.401)" fill="#aad7f9"/>
    <g id="Group_162441" data-name="Group 162441" transform="translate(0 33.39)">
      <path id="Path_83290" data-name="Path 83290" d="M190.354,43.733a5.172,5.172,0,1,1,5.172-5.172A5.177,5.177,0,0,1,190.354,43.733Zm0-8.321a3.15,3.15,0,1,0,3.15,3.15A3.153,3.153,0,0,0,190.354,35.412Z" transform="translate(-171.659 -33.39)" fill="#0057b6"/>
      <path id="Path_83291" data-name="Path 83291" d="M367.406,376.828h-9.289a1.011,1.011,0,0,1-1.011-1.011v-1.352a5.662,5.662,0,0,1,5.656-5.656,1.011,1.011,0,1,1,0,2.022,3.638,3.638,0,0,0-3.634,3.633v.341H366.4v-.341a3.657,3.657,0,0,0-.106-.876,1.011,1.011,0,1,1,1.963-.485,5.677,5.677,0,0,1,.165,1.362v1.352A1.011,1.011,0,0,1,367.406,376.828Z" transform="translate(-331.028 -344.316)" fill="#0057b6"/>
      <path id="Path_83292" data-name="Path 83292" d="M377.179,281.794a4.518,4.518,0,1,1,4.518-4.518A4.523,4.523,0,0,1,377.179,281.794Zm0-7.014a2.5,2.5,0,1,0,2.5,2.5A2.5,2.5,0,0,0,377.179,274.78Z" transform="translate(-345.447 -255.278)" fill="#0057b6"/>
      <path id="Path_83293" data-name="Path 83293" d="M10.3,376.829H1.011A1.011,1.011,0,0,1,0,375.818v-1.352a5.662,5.662,0,0,1,5.656-5.656,1.011,1.011,0,0,1,0,2.022,3.638,3.638,0,0,0-3.633,3.633v.341H9.289v-.341a3.654,3.654,0,0,0-.106-.876,1.011,1.011,0,0,1,1.963-.485,5.679,5.679,0,0,1,.165,1.362v1.352A1.011,1.011,0,0,1,10.3,376.829Z" transform="translate(0 -344.317)" fill="#0057b6"/>
      <path id="Path_83294" data-name="Path 83294" d="M20.073,281.794a4.518,4.518,0,1,1,4.518-4.518A4.523,4.523,0,0,1,20.073,281.794Zm0-7.014a2.5,2.5,0,1,0,2.5,2.5A2.5,2.5,0,0,0,20.073,274.78Z" transform="translate(-14.419 -255.278)" fill="#0057b6"/>
      <path id="Path_83295" data-name="Path 83295" d="M243.166,299.527a1.011,1.011,0,0,1-1.011-1.011v-5.15a1.011,1.011,0,1,1,2.022,0v5.15A1.011,1.011,0,0,1,243.166,299.527Z" transform="translate(-224.471 -273.444)" fill="#0057b6"/>
      <path id="Path_83296" data-name="Path 83296" d="M163.385,364.9H149.74a1.011,1.011,0,1,1,0-2.022h13.645a1.011,1.011,0,0,1,0,2.022Z" transform="translate(-137.868 -338.816)" fill="#0057b6"/>
    </g>
  </g>
</svg>
