<svg width="24" height="24" viewBox="0 0 24 24" fill="none" xmlns="http://www.w3.org/2000/svg">
<path d="M7.68945 2.58301C4.92845 2.58301 2.68945 4.82201 2.68945 7.58301V15.583C2.68945 18.344 4.92845 20.583 7.68945 20.583H15.6895C18.4505 20.583 20.6895 18.344 20.6895 15.583V7.58301C20.6895 4.82201 18.4505 2.58301 15.6895 2.58301H7.68945ZM17.6895 4.58301C18.2415 4.58301 18.6895 5.03101 18.6895 5.58301C18.6895 6.13501 18.2415 6.58301 17.6895 6.58301C17.1375 6.58301 16.6895 6.13501 16.6895 5.58301C16.6895 5.03101 17.1375 4.58301 17.6895 4.58301ZM11.6895 6.58301C14.4505 6.58301 16.6895 8.82201 16.6895 11.583C16.6895 14.344 14.4505 16.583 11.6895 16.583C8.92845 16.583 6.68945 14.344 6.68945 11.583C6.68945 8.82201 8.92845 6.58301 11.6895 6.58301ZM11.6895 8.58301C10.8938 8.58301 10.1307 8.89908 9.56813 9.46169C9.00552 10.0243 8.68945 10.7874 8.68945 11.583C8.68945 12.3787 9.00552 13.1417 9.56813 13.7043C10.1307 14.2669 10.8938 14.583 11.6895 14.583C12.4851 14.583 13.2482 14.2669 13.8108 13.7043C14.3734 13.1417 14.6895 12.3787 14.6895 11.583C14.6895 10.7874 14.3734 10.0243 13.8108 9.46169C13.2482 8.89908 12.4851 8.58301 11.6895 8.58301Z" fill="white"/>
</svg>
