<svg width="25" height="25" viewBox="0 0 25 25" fill="none" xmlns="http://www.w3.org/2000/svg">
<path d="M6.01807 18.8232H8.83789V10.3516H6.01807V18.8232ZM9.021 7.73926C9.01286 7.31608 8.86637 6.96615 8.58154 6.68945C8.29671 6.41276 7.91829 6.27441 7.44629 6.27441C6.97428 6.27441 6.58976 6.41276 6.29272 6.68945C5.99569 6.96615 5.84717 7.31608 5.84717 7.73926C5.84717 8.1543 5.99162 8.5022 6.28052 8.78296C6.56942 9.06372 6.9458 9.2041 7.40967 9.2041H7.42188C7.90202 9.2041 8.28857 9.06372 8.58154 8.78296C8.87451 8.5022 9.021 8.1543 9.021 7.73926ZM16.1621 18.8232H18.9819V13.9648C18.9819 12.7116 18.6849 11.7635 18.0908 11.1206C17.4967 10.4777 16.7114 10.1562 15.7349 10.1562C14.6281 10.1562 13.7777 10.6323 13.1836 11.5845H13.208V10.3516H10.3882C10.4126 10.8887 10.4126 13.7126 10.3882 18.8232H13.208V14.0869C13.208 13.7777 13.2365 13.5498 13.2935 13.4033C13.4155 13.1185 13.5986 12.8764 13.8428 12.677C14.0869 12.4776 14.388 12.3779 14.7461 12.3779C15.6901 12.3779 16.1621 13.0168 16.1621 14.2944V18.8232ZM21.875 6.64062V18.3594C21.875 19.3278 21.5312 20.1558 20.8435 20.8435C20.1558 21.5312 19.3278 21.875 18.3594 21.875H6.64062C5.6722 21.875 4.84416 21.5312 4.15649 20.8435C3.46883 20.1558 3.125 19.3278 3.125 18.3594V6.64062C3.125 5.6722 3.46883 4.84416 4.15649 4.15649C4.84416 3.46883 5.6722 3.125 6.64062 3.125H18.3594C19.3278 3.125 20.1558 3.46883 20.8435 4.15649C21.5312 4.84416 21.875 5.6722 21.875 6.64062Z" fill="white"/>
</svg>
