<svg width="191" height="147" viewBox="0 0 191 147" fill="none" xmlns="http://www.w3.org/2000/svg">
<path d="M123.37 4.23029C125.64 6.30029 126.05 9.55029 126.05 9.55029C126.05 9.55029 122.78 9.44029 120.5 7.37029C118.23 5.30029 117.82 2.05029 117.82 2.05029C117.82 2.05029 121.09 2.16029 123.37 4.23029Z" fill="#D5A46E"/>
<path d="M107.4 80.5704C105.44 83.0804 105.33 86.0404 105.35 86.0504C105.35 86.0904 109.45 84.9403 111.3 82.1703C113.15 79.4403 112.25 76.6104 112.27 76.6104C112.26 76.6404 109.35 78.0803 107.4 80.5603V80.5704Z" fill="#D5A46E"/>
<path d="M110.28 89.2603C106.67 88.6503 105.33 85.9203 105.33 85.9403C105.37 85.9503 109.24 84.8403 112.57 85.2303C115.94 85.6403 117.91 87.7303 117.91 87.7503C117.96 87.7603 113.93 89.8803 110.28 89.2603Z" fill="#D5A46E"/>
<path d="M114.53 77.4403C113.19 80.1903 113.67 83.0703 113.69 83.0703C113.69 83.1103 117.3 81.3103 118.52 78.3303C119.74 75.3803 118.35 72.7903 118.38 72.7903C118.38 72.8203 115.88 74.7103 114.53 77.4403Z" fill="#D5A46E"/>
<path d="M118.94 85.3502C115.43 85.3602 113.65 82.9502 113.65 82.9702C113.69 82.9702 117.08 81.2502 120.31 81.0702C123.58 80.9002 125.86 82.5802 125.87 82.6102C125.91 82.6102 122.49 85.3502 118.94 85.3502Z" fill="#D5A46E"/>
<path d="M120.69 73.2003C119.93 76.0903 120.94 78.7903 120.97 78.7903C120.97 78.8303 124.07 76.4803 124.69 73.3803C125.32 70.3103 123.51 68.0403 123.53 68.0403C123.53 68.0703 121.46 70.3403 120.7 73.2003H120.69Z" fill="#D5A46E"/>
<path d="M126.4 80.1004C123.05 80.7104 120.9 78.6804 120.91 78.7004C120.95 78.7004 123.84 76.4604 126.92 75.7304C130.03 75.0004 132.55 76.2404 132.56 76.2604C132.6 76.2604 129.79 79.4904 126.41 80.1004H126.4Z" fill="#D5A46E"/>
<path d="M125.83 68.0305C125.62 70.9705 127.1 73.4105 127.12 73.4105C127.12 73.4505 129.68 70.6405 129.73 67.5105C129.79 64.4205 127.64 62.5205 127.66 62.5105C127.66 62.5405 126.05 65.1105 125.83 68.0205V68.0305Z" fill="#D5A46E"/>
<path d="M132.6 73.7406C129.47 74.9106 127.03 73.3106 127.04 73.3306C127.07 73.3306 129.45 70.6506 132.31 69.4106C135.2 68.1606 137.88 68.9306 137.88 68.9506C137.92 68.9406 135.75 72.5806 132.59 73.7506L132.6 73.7406Z" fill="#D5A46E"/>
<path d="M129.91 62.1104C130.21 65.0104 132.09 67.1204 132.11 67.1204C132.12 67.1604 134.11 63.9804 133.63 60.9204C133.16 57.8904 130.74 56.4204 130.76 56.4104C130.76 56.4404 129.62 59.2304 129.92 62.1104H129.91Z" fill="#D5A46E"/>
<path d="M137.5 66.4805C134.65 68.1605 132 67.0305 132.01 67.0505C132.04 67.0405 133.89 64.0305 136.47 62.3005C139.08 60.5705 141.83 60.8405 141.84 60.8605C141.88 60.8405 140.37 64.7805 137.5 66.4705V66.4805Z" fill="#D5A46E"/>
<path d="M132.89 55.6003C133.68 58.3803 135.87 60.1103 135.88 60.1003C135.9 60.1303 137.31 56.6804 136.33 53.7704C135.37 50.8904 132.74 49.8704 132.76 49.8604C132.77 49.8904 132.12 52.8403 132.89 55.6003Z" fill="#D5A46E"/>
<path d="M141.05 58.5303C138.55 60.6803 135.77 60.0403 135.78 60.0603C135.81 60.0403 137.1 56.7803 139.35 54.6303C141.62 52.4703 144.36 52.2503 144.37 52.2603C144.4 52.2403 143.59 56.3603 141.05 58.5303Z" fill="#D5A46E"/>
<path d="M134.71 48.7003C135.94 51.2903 138.38 52.6003 138.39 52.5803C138.41 52.6103 139.22 48.9703 137.77 46.2803C136.35 43.6103 133.61 43.0803 133.62 43.0703C133.64 43.0903 133.49 46.1203 134.7 48.7003H134.71Z" fill="#D5A46E"/>
<path d="M143.2 50.1103C141.11 52.6703 138.28 52.5403 138.29 52.5503C138.31 52.5303 139.04 49.1003 140.88 46.5803C142.74 44.0503 145.39 43.3303 145.4 43.3503C145.43 43.3203 145.32 47.5403 143.2 50.1103Z" fill="#D5A46E"/>
<path d="M135.35 41.5704C136.99 43.9104 139.59 44.7504 139.61 44.7404C139.63 44.7704 139.82 41.0304 137.94 38.6304C136.09 36.2504 133.32 36.2104 133.33 36.1904C133.35 36.2104 133.73 39.2404 135.35 41.5704Z" fill="#D5A46E"/>
<path d="M143.9 41.4404C142.28 44.3404 139.49 44.7204 139.5 44.7304C139.52 44.7104 139.66 41.1904 141.03 38.3704C142.42 35.5304 144.88 34.3404 144.9 34.3604C144.93 34.3304 145.54 38.5204 143.9 41.4404Z" fill="#D5A46E"/>
<path d="M134.75 34.3903C136.76 36.4203 139.45 36.7803 139.47 36.7703C139.5 36.7903 139.04 33.0603 136.77 31.0003C134.53 28.9603 131.81 29.4103 131.82 29.3903C131.85 29.4103 132.76 32.3703 134.75 34.3903Z" fill="#D5A46E"/>
<path d="M143.09 32.7204C142.01 35.8904 139.34 36.7704 139.36 36.7804C139.38 36.7604 138.9 33.2504 139.74 30.1904C140.59 27.1204 142.78 25.4904 142.8 25.5004C142.82 25.4704 144.19 29.5404 143.09 32.7304V32.7204Z" fill="#D5A46E"/>
<path d="M132.88 27.3402C135.23 29.0102 137.92 28.8902 137.93 28.8702C137.97 28.8902 136.83 25.2502 134.22 23.5902C131.63 21.9402 129.04 22.8702 129.05 22.8502C129.08 22.8602 130.56 25.6802 132.88 27.3402Z" fill="#D5A46E"/>
<path d="M140.73 24.1903C140.26 27.5503 137.8 28.9003 137.82 28.9003C137.83 28.8703 136.74 25.4603 136.97 22.2403C137.22 19.0103 139.04 16.9803 139.06 16.9903C139.08 16.9503 141.22 20.8003 140.73 24.1803V24.1903Z" fill="#D5A46E"/>
<path d="M129.68 20.6004C132.32 21.8704 134.94 21.2704 134.94 21.2504C134.98 21.2604 133.16 17.8104 130.23 16.5904C127.34 15.3704 124.96 16.7604 124.97 16.7404C125.01 16.7504 127.07 19.3404 129.68 20.6004Z" fill="#D5A46E"/>
<path d="M136.77 16.0504C136.98 19.5104 134.82 21.2904 134.84 21.3004C134.84 21.2704 133.11 18.0404 132.67 14.7504C132.24 11.4504 133.6 9.09043 133.63 9.09043C133.64 9.05043 136.58 12.5604 136.77 16.0504Z" fill="#D5A46E"/>
<path d="M125.11 14.3504C128 15.1804 130.45 14.1204 130.46 14.1004C130.51 14.1004 127.97 10.9304 124.77 10.1904C121.61 9.44043 119.54 11.2504 119.55 11.2304C119.59 11.2304 122.25 13.5304 125.11 14.3604V14.3504Z" fill="#D5A46E"/>
<path d="M131.16 8.53039C132.12 11.9904 130.35 14.1704 130.38 14.1704C130.38 14.1404 127.98 11.1704 126.8 7.92039C125.63 4.63039 126.44 2.00039 126.47 2.00039C126.47 1.96039 130.23 5.03039 131.17 8.53039H131.16Z" fill="#D5A46E"/>
<path d="M93.79 86.9703L93.85 86.3403C99.11 86.8203 104.35 86.2303 109.43 84.6003C114.38 83.0103 118.96 80.5003 123.05 77.1403C131.53 70.1703 137 60.2203 138.45 49.1303C139.64 40.0503 139.03 31.9503 136.64 25.0703C134.07 17.6803 129.5 11.9003 123.06 7.89034L123.4 7.35034C129.97 11.4403 134.63 17.3403 137.25 24.8603C139.67 31.8303 140.29 40.0303 139.09 49.2103C137.62 60.4603 132.07 70.5603 123.46 77.6303C119.31 81.0403 114.66 83.5903 109.63 85.2003C104.47 86.8603 99.14 87.4503 93.8 86.9703H93.79Z" fill="#D5A46E"/>
<path d="M65.92 4.23029C63.65 6.30029 63.24 9.55029 63.24 9.55029C63.24 9.55029 66.51 9.44029 68.79 7.37029C71.06 5.30029 71.47 2.05029 71.47 2.05029C71.47 2.05029 68.2 2.16029 65.92 4.23029Z" fill="#D5A46E"/>
<path d="M81.89 80.5704C83.85 83.0804 83.96 86.0404 83.94 86.0504C83.94 86.0904 79.84 84.9403 77.99 82.1703C76.14 79.4403 77.04 76.6104 77.02 76.6104C77.03 76.6404 79.94 78.0803 81.89 80.5603V80.5704Z" fill="#D5A46E"/>
<path d="M79.01 89.2603C82.62 88.6503 83.96 85.9203 83.96 85.9403C83.92 85.9503 80.05 84.8403 76.72 85.2303C73.35 85.6403 71.38 87.7303 71.38 87.7503C71.33 87.7603 75.36 89.8803 79.01 89.2603Z" fill="#D5A46E"/>
<path d="M74.76 77.4403C76.1 80.1903 75.62 83.0703 75.6 83.0703C75.6 83.1103 71.99 81.3103 70.77 78.3303C69.55 75.3803 70.94 72.7903 70.91 72.7903C70.91 72.8203 73.41 74.7103 74.76 77.4403Z" fill="#D5A46E"/>
<path d="M70.35 85.3502C73.86 85.3602 75.64 82.9502 75.64 82.9702C75.6 82.9702 72.21 81.2502 68.98 81.0702C65.71 80.9002 63.43 82.5802 63.42 82.6102C63.38 82.6102 66.8 85.3502 70.35 85.3502Z" fill="#D5A46E"/>
<path d="M68.6 73.2003C69.36 76.0903 68.35 78.7903 68.32 78.7903C68.32 78.8303 65.22 76.4803 64.6 73.3803C63.97 70.3103 65.78 68.0403 65.76 68.0403C65.76 68.0703 67.83 70.3403 68.59 73.2003H68.6Z" fill="#D5A46E"/>
<path d="M62.9 80.1004C66.25 80.7104 68.4 78.6804 68.39 78.7004C68.35 78.7004 65.46 76.4604 62.38 75.7304C59.27 75.0004 56.75 76.2404 56.74 76.2604C56.7 76.2604 59.51 79.4904 62.89 80.1004H62.9Z" fill="#D5A46E"/>
<path d="M63.46 68.0305C63.67 70.9705 62.19 73.4105 62.17 73.4105C62.17 73.4505 59.61 70.6405 59.56 67.5105C59.5 64.4205 61.65 62.5205 61.63 62.5105C61.63 62.5405 63.24 65.1105 63.46 68.0205V68.0305Z" fill="#D5A46E"/>
<path d="M56.69 73.7406C59.82 74.9106 62.26 73.3106 62.25 73.3306C62.22 73.3306 59.84 70.6506 56.98 69.4106C54.09 68.1606 51.41 68.9306 51.41 68.9506C51.37 68.9406 53.54 72.5806 56.7 73.7506L56.69 73.7406Z" fill="#D5A46E"/>
<path d="M59.38 62.1104C59.08 65.0104 57.2 67.1204 57.18 67.1204C57.17 67.1604 55.18 63.9804 55.66 60.9204C56.13 57.8904 58.55 56.4204 58.53 56.4104C58.53 56.4404 59.67 59.2304 59.37 62.1104H59.38Z" fill="#D5A46E"/>
<path d="M51.79 66.4805C54.64 68.1605 57.29 67.0305 57.28 67.0505C57.25 67.0405 55.4 64.0305 52.82 62.3005C50.21 60.5705 47.46 60.8405 47.45 60.8605C47.41 60.8405 48.92 64.7805 51.79 66.4705V66.4805Z" fill="#D5A46E"/>
<path d="M56.41 55.6003C55.62 58.3803 53.43 60.1103 53.42 60.1003C53.4 60.1303 51.99 56.6804 52.97 53.7704C53.93 50.8904 56.56 49.8704 56.54 49.8604C56.53 49.8904 57.18 52.8403 56.41 55.6003Z" fill="#D5A46E"/>
<path d="M48.24 58.5303C50.74 60.6803 53.52 60.0403 53.51 60.0603C53.48 60.0403 52.19 56.7803 49.94 54.6303C47.67 52.4703 44.93 52.2503 44.92 52.2603C44.89 52.2403 45.7 56.3603 48.24 58.5303Z" fill="#D5A46E"/>
<path d="M54.58 48.7003C53.35 51.2903 50.91 52.6003 50.9 52.5803C50.88 52.6103 50.07 48.9703 51.52 46.2803C52.94 43.6103 55.68 43.0803 55.67 43.0703C55.65 43.0903 55.8 46.1203 54.59 48.7003H54.58Z" fill="#D5A46E"/>
<path d="M46.09 50.1103C48.18 52.6703 51.01 52.5403 51 52.5503C50.98 52.5303 50.25 49.1003 48.41 46.5803C46.55 44.0503 43.9 43.3303 43.89 43.3503C43.86 43.3203 43.97 47.5403 46.09 50.1103Z" fill="#D5A46E"/>
<path d="M53.94 41.5704C52.3 43.9104 49.7 44.7504 49.68 44.7404C49.66 44.7704 49.47 41.0304 51.35 38.6304C53.2 36.2504 55.97 36.2104 55.96 36.1904C55.94 36.2104 55.56 39.2404 53.94 41.5704Z" fill="#D5A46E"/>
<path d="M45.4 41.4404C47.02 44.3404 49.81 44.7204 49.8 44.7304C49.78 44.7104 49.64 41.1904 48.27 38.3704C46.88 35.5304 44.42 34.3404 44.4 34.3604C44.37 34.3304 43.76 38.5204 45.4 41.4404Z" fill="#D5A46E"/>
<path d="M54.54 34.3903C52.53 36.4203 49.84 36.7803 49.82 36.7703C49.79 36.7903 50.25 33.0603 52.52 31.0003C54.76 28.9603 57.48 29.4103 57.47 29.3903C57.44 29.4103 56.53 32.3703 54.54 34.3903Z" fill="#D5A46E"/>
<path d="M46.2 32.7204C47.28 35.8904 49.95 36.7704 49.93 36.7804C49.91 36.7604 50.39 33.2504 49.55 30.1904C48.7 27.1204 46.51 25.4904 46.49 25.5004C46.47 25.4704 45.1 29.5404 46.2 32.7304V32.7204Z" fill="#D5A46E"/>
<path d="M56.42 27.3402C54.07 29.0102 51.38 28.8902 51.37 28.8702C51.33 28.8902 52.47 25.2502 55.08 23.5902C57.67 21.9402 60.26 22.8702 60.25 22.8502C60.22 22.8602 58.74 25.6802 56.42 27.3402Z" fill="#D5A46E"/>
<path d="M48.56 24.1903C49.03 27.5503 51.49 28.9003 51.47 28.9003C51.46 28.8703 52.55 25.4603 52.32 22.2403C52.07 19.0103 50.25 16.9803 50.23 16.9903C50.21 16.9503 48.07 20.8003 48.56 24.1803V24.1903Z" fill="#D5A46E"/>
<path d="M59.62 20.6004C56.98 21.8704 54.36 21.2704 54.36 21.2504C54.32 21.2604 56.14 17.8104 59.07 16.5904C61.96 15.3704 64.34 16.7604 64.33 16.7404C64.29 16.7504 62.23 19.3404 59.62 20.6004Z" fill="#D5A46E"/>
<path d="M52.52 16.0504C52.31 19.5104 54.47 21.2904 54.45 21.3004C54.45 21.2704 56.18 18.0404 56.62 14.7504C57.05 11.4504 55.69 9.09043 55.66 9.09043C55.65 9.05043 52.71 12.5604 52.52 16.0504Z" fill="#D5A46E"/>
<path d="M64.18 14.3504C61.29 15.1804 58.84 14.1204 58.83 14.1004C58.78 14.1004 61.32 10.9304 64.52 10.1904C67.68 9.44043 69.75 11.2504 69.74 11.2304C69.7 11.2304 67.04 13.5304 64.18 14.3604V14.3504Z" fill="#D5A46E"/>
<path d="M58.13 8.53039C57.17 11.9904 58.94 14.1704 58.91 14.1704C58.91 14.1404 61.31 11.1704 62.49 7.92039C63.66 4.63039 62.86 2.00039 62.83 2.00039C62.83 1.96039 59.07 5.03039 58.13 8.53039Z" fill="#D5A46E"/>
<path d="M95.51 86.9703L95.45 86.3403C90.19 86.8203 84.95 86.2303 79.87 84.6003C74.92 83.0103 70.34 80.5003 66.25 77.1403C57.77 70.1703 52.3 60.2203 50.85 49.1303C49.66 40.0503 50.27 31.9503 52.66 25.0703C55.23 17.6803 59.8 11.9003 66.24 7.89034L65.9 7.35034C59.33 11.4403 54.67 17.3403 52.05 24.8603C49.63 31.8303 49.01 40.0303 50.21 49.2103C51.68 60.4603 57.23 70.5603 65.84 77.6303C69.99 81.0403 74.64 83.5903 79.67 85.2003C84.83 86.8603 90.16 87.4503 95.5 86.9703H95.51Z" fill="#D5A46E"/>
<path d="M94.46 83.7205L89.64 87.2605L94.46 90.8005L99.27 87.2605L94.46 83.7205Z" fill="#D5A46E"/>
<path d="M94.65 5.02051L96.88 9.55051L101.89 10.2805L98.27 13.8005L99.12 18.7905L94.65 16.4305L90.17 18.7905L91.03 13.8005L87.41 10.2805L92.41 9.55051L94.65 5.02051Z" fill="#D5A46E"/>
<path d="M83.78 37.7005H78.96L81.6 35.0205C82.08 34.5305 82.46 34.0905 82.74 33.7005C83.02 33.3105 83.23 32.9105 83.35 32.5105C83.47 32.1105 83.53 31.6705 83.53 31.1805C83.53 30.4405 83.37 29.8005 83.05 29.2505C82.73 28.7005 82.28 28.2805 81.7 27.9805C81.12 27.6805 80.43 27.5305 79.64 27.5305C78.71 27.5305 77.89 27.7405 77.18 28.1505C76.47 28.5705 75.88 29.1805 75.41 29.9805L77 31.3305C77.35 30.7405 77.73 30.3105 78.13 30.0305C78.53 29.7605 79 29.6205 79.52 29.6205C80.04 29.6205 80.45 29.7605 80.77 30.0505C81.09 30.3305 81.25 30.7305 81.25 31.2305C81.25 31.4905 81.21 31.7405 81.12 31.9705C81.03 32.2005 80.89 32.4605 80.68 32.7305C80.47 33.0005 80.21 33.3105 79.9 33.6505L75.4 38.3705V39.7005H83.79V37.6905L83.78 37.7005Z" fill="white"/>
<path d="M87.48 39.1205C88.24 39.6405 89.09 39.9005 90.04 39.9005C90.99 39.9005 91.82 39.6405 92.57 39.1305C93.33 38.6205 93.92 37.9005 94.36 36.9705C94.8 36.0405 95.02 34.9505 95.02 33.7005C95.02 32.4505 94.8 31.3605 94.36 30.4405C93.92 29.5205 93.32 28.8005 92.56 28.2905C91.8 27.7805 90.94 27.5205 89.98 27.5205C89.02 27.5205 88.2 27.7805 87.45 28.2905C86.7 28.8005 86.09 29.5205 85.65 30.4405C85.21 31.3605 84.98 32.4405 84.98 33.6805C84.98 34.9205 85.2 36.0205 85.65 36.9505C86.1 37.8805 86.7 38.6005 87.47 39.1205H87.48ZM87.66 31.4505C87.88 30.8505 88.19 30.4105 88.59 30.1105C88.99 29.8205 89.45 29.6705 89.99 29.6705C90.53 29.6705 91.01 29.8205 91.41 30.1105C91.81 30.4105 92.13 30.8605 92.35 31.4705C92.57 32.0805 92.68 32.8305 92.68 33.7105C92.68 34.5905 92.57 35.3605 92.35 35.9605C92.13 36.5605 91.82 37.0105 91.42 37.3205C91.02 37.6205 90.55 37.7705 90 37.7705C89.45 37.7705 88.98 37.6205 88.58 37.3205C88.18 37.0205 87.87 36.5605 87.65 35.9505C87.43 35.3405 87.32 34.5905 87.32 33.6905C87.32 32.7905 87.43 32.0405 87.65 31.4505H87.66Z" fill="white"/>
<path d="M102.29 35.0205C102.77 34.5305 103.15 34.0905 103.43 33.7005C103.71 33.3105 103.92 32.9105 104.04 32.5105C104.16 32.1105 104.22 31.6705 104.22 31.1805C104.22 30.4405 104.06 29.8005 103.74 29.2505C103.42 28.7005 102.97 28.2805 102.39 27.9805C101.81 27.6805 101.12 27.5305 100.33 27.5305C99.4 27.5305 98.58 27.7405 97.87 28.1505C97.16 28.5705 96.57 29.1805 96.1 29.9805L97.69 31.3305C98.04 30.7405 98.42 30.3105 98.82 30.0305C99.22 29.7605 99.69 29.6205 100.21 29.6205C100.73 29.6205 101.14 29.7605 101.46 30.0505C101.78 30.3305 101.94 30.7305 101.94 31.2305C101.94 31.4905 101.9 31.7405 101.81 31.9705C101.72 32.2005 101.58 32.4605 101.37 32.7305C101.16 33.0005 100.9 33.3105 100.59 33.6505L96.09 38.3705V39.7005H104.48V37.6905H99.66L102.3 35.0105L102.29 35.0205Z" fill="white"/>
<path d="M113.9 37.7005H109.08L111.72 35.0205C112.2 34.5305 112.58 34.0905 112.86 33.7005C113.14 33.3105 113.35 32.9105 113.47 32.5105C113.59 32.1105 113.65 31.6705 113.65 31.1805C113.65 30.4405 113.49 29.8005 113.17 29.2505C112.85 28.7005 112.4 28.2805 111.82 27.9805C111.24 27.6805 110.55 27.5305 109.76 27.5305C108.83 27.5305 108.01 27.7405 107.3 28.1505C106.59 28.5705 106 29.1805 105.53 29.9805L107.12 31.3305C107.47 30.7405 107.85 30.3105 108.25 30.0305C108.65 29.7605 109.12 29.6205 109.64 29.6205C110.16 29.6205 110.57 29.7605 110.89 30.0505C111.21 30.3305 111.37 30.7305 111.37 31.2305C111.37 31.4905 111.33 31.7405 111.24 31.9705C111.15 32.2005 111.01 32.4605 110.8 32.7305C110.59 33.0005 110.33 33.3105 110.02 33.6505L105.52 38.3705V39.7005H113.91V37.6905L113.9 37.7005Z" fill="white"/>
<path d="M78.95 50.2105C78.66 50.0605 78.32 49.9805 77.95 49.9805H75.65V56.1705H76.32V53.6905H77.96C78.33 53.6905 78.67 53.6105 78.96 53.4605C79.25 53.3105 79.49 53.0905 79.66 52.8205C79.83 52.5405 79.92 52.2205 79.92 51.8405C79.92 51.4605 79.83 51.1405 79.66 50.8605C79.49 50.5805 79.26 50.3705 78.96 50.2105H78.95ZM79.05 52.5105C78.94 52.7005 78.78 52.8405 78.58 52.9505C78.38 53.0505 78.15 53.1005 77.89 53.1005H76.31V50.5605H77.89C78.15 50.5605 78.38 50.6105 78.58 50.7105C78.78 50.8105 78.94 50.9605 79.05 51.1505C79.16 51.3405 79.22 51.5705 79.22 51.8305C79.22 52.0905 79.16 52.3205 79.05 52.5105Z" fill="white"/>
<path d="M82.8 51.8506C82.34 51.8506 81.99 52.0106 81.72 52.3206C81.66 52.3906 81.63 52.4906 81.59 52.5706V51.9506H80.95V56.1806H81.59V53.7106C81.59 53.3006 81.69 52.9806 81.9 52.7706C82.1 52.5606 82.37 52.4506 82.69 52.4506C82.85 52.4506 82.99 52.4706 83.11 52.5206C83.23 52.5706 83.34 52.6506 83.44 52.7506L83.86 52.3106C83.71 52.1506 83.55 52.0306 83.37 51.9506C83.2 51.8706 83 51.8406 82.79 51.8406L82.8 51.8506Z" fill="white"/>
<path d="M85.18 55.9606C85.51 56.1606 85.88 56.2606 86.3 56.2606C86.72 56.2606 87.08 56.1606 87.41 55.9606C87.74 55.7606 88.01 55.5006 88.2 55.1606C88.39 54.8206 88.49 54.4506 88.49 54.0306C88.49 53.6106 88.39 53.2506 88.2 52.9206C88.01 52.5906 87.74 52.3206 87.41 52.1306C87.08 51.9406 86.71 51.8406 86.3 51.8406C85.89 51.8406 85.51 51.9406 85.18 52.1306C84.85 52.3306 84.59 52.5906 84.39 52.9206C84.19 53.2506 84.1 53.6206 84.1 54.0306C84.1 54.4406 84.2 54.8206 84.39 55.1506C84.58 55.4806 84.85 55.7506 85.18 55.9506V55.9606ZM84.96 53.2306C85.09 52.9906 85.27 52.8106 85.51 52.6706C85.74 52.5306 86.01 52.4606 86.3 52.4606C86.59 52.4606 86.86 52.5306 87.09 52.6706C87.32 52.8106 87.5 53.0006 87.64 53.2306C87.77 53.4706 87.84 53.7306 87.84 54.0306C87.84 54.3306 87.77 54.6106 87.64 54.8606C87.51 55.1106 87.33 55.3006 87.09 55.4406C86.86 55.5806 86.59 55.6506 86.3 55.6506C86.01 55.6506 85.74 55.5806 85.51 55.4406C85.28 55.3006 85.09 55.1106 84.96 54.8706C84.83 54.6306 84.76 54.3506 84.76 54.0406C84.76 53.7306 84.83 53.4706 84.96 53.2406V53.2306Z" fill="white"/>
<path d="M93.52 52.0506C93.27 52.1806 93.07 52.3706 92.92 52.6106C92.9 52.6406 92.89 52.6806 92.87 52.7106C92.85 52.6806 92.85 52.6406 92.83 52.6106C92.69 52.3706 92.5 52.1806 92.26 52.0506C92.02 51.9206 91.75 51.8506 91.45 51.8506C91.15 51.8506 90.87 51.9206 90.63 52.0506C90.42 52.1606 90.26 52.3206 90.12 52.5206V51.9506H89.48V56.1806H90.12V53.5806C90.12 53.3506 90.17 53.1506 90.28 52.9906C90.39 52.8306 90.53 52.6906 90.7 52.6006C90.88 52.5106 91.07 52.4606 91.29 52.4606C91.61 52.4606 91.87 52.5606 92.08 52.7706C92.29 52.9706 92.39 53.2506 92.39 53.6006V56.1906H93.03V53.5906C93.03 53.3606 93.08 53.1606 93.19 53.0006C93.3 52.8406 93.44 52.7006 93.61 52.6106C93.79 52.5206 93.98 52.4706 94.19 52.4706C94.51 52.4706 94.77 52.5706 94.98 52.7806C95.19 52.9806 95.29 53.2606 95.29 53.6106V56.2006H95.93V53.4906C95.93 53.1606 95.86 52.8806 95.72 52.6406C95.58 52.4006 95.39 52.2106 95.14 52.0806C94.9 51.9506 94.63 51.8806 94.33 51.8806C94.03 51.8806 93.76 51.9506 93.51 52.0806L93.52 52.0506Z" fill="white"/>
<path d="M97.78 51.9404H97.14V56.1704H97.78V51.9404Z" fill="white"/>
<path d="M97.77 50.2706C97.69 50.1906 97.58 50.1406 97.45 50.1406C97.33 50.1406 97.23 50.1806 97.14 50.2706C97.05 50.3606 97.01 50.4606 97.01 50.5806C97.01 50.7006 97.05 50.8106 97.14 50.9006C97.23 50.9906 97.33 51.0306 97.45 51.0306C97.58 51.0306 97.69 50.9906 97.77 50.9006C97.85 50.8106 97.89 50.7006 97.89 50.5806C97.89 50.4606 97.85 50.3506 97.77 50.2706Z" fill="white"/>
<path d="M100.37 55.6806C100.11 55.6806 99.87 55.6306 99.65 55.5306C99.43 55.4306 99.25 55.2806 99.08 55.0706L98.67 55.4806C98.8 55.6406 98.95 55.7706 99.12 55.8906C99.29 56.0006 99.48 56.0906 99.69 56.1606C99.9 56.2306 100.12 56.2506 100.35 56.2506C100.82 56.2506 101.19 56.1406 101.46 55.9106C101.73 55.6906 101.87 55.3806 101.87 55.0106C101.87 54.7406 101.81 54.5306 101.7 54.3706C101.59 54.2106 101.44 54.0806 101.26 53.9906C101.08 53.9006 100.89 53.8206 100.69 53.7606C100.49 53.7006 100.3 53.6506 100.13 53.5906C99.95 53.5306 99.81 53.4606 99.69 53.3706C99.58 53.2806 99.52 53.1506 99.52 52.9906C99.52 52.8306 99.59 52.6906 99.73 52.5806C99.87 52.4706 100.08 52.4206 100.35 52.4206C100.58 52.4206 100.8 52.4606 100.98 52.5506C101.16 52.6406 101.32 52.7706 101.44 52.9306L101.85 52.5206C101.69 52.3006 101.49 52.1306 101.23 52.0206C100.97 51.9106 100.68 51.8506 100.37 51.8506C100.06 51.8506 99.8 51.9006 99.59 52.0006C99.38 52.1006 99.21 52.2406 99.09 52.4106C98.97 52.5906 98.91 52.8006 98.91 53.0306C98.91 53.2906 98.97 53.4906 99.08 53.6506C99.19 53.8006 99.34 53.9206 99.52 54.0106C99.7 54.1006 99.88 54.1706 100.08 54.2306C100.28 54.2906 100.47 54.3506 100.65 54.4106C100.83 54.4706 100.98 54.5506 101.09 54.6506C101.2 54.7506 101.26 54.8906 101.26 55.0706C101.26 55.2606 101.18 55.4106 101.02 55.5206C100.86 55.6306 100.64 55.6806 100.37 55.6806Z" fill="white"/>
<path d="M103.5 50.2706C103.42 50.1906 103.31 50.1406 103.18 50.1406C103.06 50.1406 102.96 50.1806 102.87 50.2706C102.78 50.3606 102.74 50.4606 102.74 50.5806C102.74 50.7006 102.78 50.8106 102.87 50.9006C102.96 50.9906 103.06 51.0306 103.18 51.0306C103.31 51.0306 103.42 50.9906 103.5 50.9006C103.58 50.8106 103.62 50.7006 103.62 50.5806C103.62 50.4606 103.58 50.3506 103.5 50.2706Z" fill="white"/>
<path d="M103.51 51.9404H102.87V56.1704H103.51V51.9404Z" fill="white"/>
<path d="M105.42 53.6806C105.42 53.4406 105.47 53.2306 105.58 53.0406C105.69 52.8506 105.83 52.7106 106.02 52.6006C106.21 52.5006 106.42 52.4406 106.66 52.4406C107.02 52.4406 107.31 52.5606 107.53 52.7906C107.75 53.0206 107.86 53.3206 107.86 53.6906V56.1706H108.5V53.5806C108.5 53.2706 108.43 52.9806 108.29 52.7206C108.15 52.4606 107.95 52.2506 107.7 52.0906C107.45 51.9306 107.16 51.8606 106.84 51.8606C106.52 51.8606 106.22 51.9306 105.97 52.0806C105.74 52.2106 105.56 52.3806 105.42 52.5906V51.9506H104.78V56.1806H105.42V53.6906V53.6806Z" fill="white"/>
<path d="M112.59 57.0506C112.31 57.3106 111.92 57.4406 111.44 57.4406C111.1 57.4406 110.8 57.3806 110.54 57.2506C110.28 57.1306 110.07 56.9506 109.9 56.7206L109.49 57.1306C109.69 57.4206 109.96 57.6406 110.3 57.8006C110.64 57.9606 111.01 58.0406 111.44 58.0406C111.87 58.0406 112.27 57.9506 112.6 57.7806C112.93 57.6106 113.2 57.3706 113.38 57.0606C113.57 56.7506 113.66 56.4006 113.66 55.9906V51.9306H113.02V52.6406C113.02 52.6406 113 52.5906 112.98 52.5706C112.82 52.3406 112.61 52.1606 112.35 52.0306C112.09 51.9006 111.8 51.8406 111.47 51.8406C111.08 51.8406 110.73 51.9306 110.42 52.1206C110.11 52.3106 109.86 52.5606 109.68 52.8806C109.5 53.2006 109.41 53.5706 109.41 53.9706C109.41 54.3706 109.5 54.7406 109.68 55.0706C109.86 55.3906 110.11 55.6506 110.42 55.8406C110.73 56.0306 111.09 56.1206 111.48 56.1206C111.8 56.1206 112.09 56.0606 112.35 55.9306C112.61 55.8006 112.81 55.6206 112.98 55.3906C113 55.3606 113.01 55.3306 113.03 55.3006V56.0006C113.03 56.4406 112.89 56.7906 112.61 57.0506H112.59ZM112.87 54.8006C112.75 55.0306 112.58 55.2106 112.36 55.3406C112.14 55.4606 111.88 55.5306 111.59 55.5306C111.3 55.5306 111.03 55.4706 110.8 55.3406C110.57 55.2106 110.39 55.0306 110.26 54.8006C110.13 54.5706 110.06 54.3006 110.06 54.0006C110.06 53.7006 110.12 53.4306 110.25 53.2006C110.38 52.9706 110.56 52.7906 110.79 52.6606C111.02 52.5306 111.28 52.4706 111.58 52.4706C111.88 52.4706 112.13 52.5306 112.35 52.6606C112.57 52.7906 112.74 52.9706 112.86 53.2006C112.98 53.4306 113.04 53.7006 113.04 54.0006C113.04 54.3006 112.98 54.5806 112.86 54.8106L112.87 54.8006Z" fill="white"/>
<path d="M82.21 60.5106C82.51 60.5106 82.77 60.5706 83 60.6806C83.23 60.8006 83.44 60.9706 83.63 61.2106L84.09 60.7506C83.88 60.4906 83.62 60.2806 83.3 60.1206C82.99 59.9606 82.63 59.8906 82.22 59.8906C81.86 59.8906 81.54 59.9506 81.25 60.0806C80.96 60.2106 80.74 60.3906 80.58 60.6306C80.42 60.8706 80.34 61.1606 80.34 61.4906C80.34 61.8106 80.4 62.0706 80.51 62.2806C80.62 62.4906 80.77 62.6606 80.96 62.7806C81.15 62.9006 81.35 63.0206 81.57 63.1006C81.79 63.1906 82.01 63.2706 82.23 63.3506C82.45 63.4306 82.65 63.5206 82.84 63.6206C83.03 63.7206 83.17 63.8506 83.29 64.0106C83.4 64.1706 83.46 64.3706 83.46 64.6206C83.46 64.9406 83.34 65.1906 83.1 65.3706C82.86 65.5506 82.54 65.6406 82.14 65.6406C81.74 65.6406 81.42 65.5706 81.15 65.4206C80.87 65.2806 80.63 65.0606 80.42 64.7606L79.96 65.2106C80.22 65.5506 80.52 65.8006 80.87 65.9806C81.22 66.1606 81.64 66.2506 82.12 66.2506C82.74 66.2506 83.24 66.1006 83.6 65.8006C83.96 65.5006 84.14 65.0906 84.14 64.5506C84.14 64.2206 84.08 63.9506 83.97 63.7406C83.86 63.5306 83.71 63.3506 83.52 63.2106C83.34 63.0706 83.13 62.9606 82.91 62.8706C82.69 62.7806 82.47 62.7006 82.25 62.6206C82.03 62.5406 81.83 62.4606 81.64 62.3606C81.45 62.2606 81.31 62.1506 81.19 62.0006C81.07 61.8506 81.02 61.6706 81.02 61.4406C81.02 61.1406 81.13 60.9106 81.34 60.7406C81.56 60.5706 81.84 60.4906 82.2 60.4906L82.21 60.5106Z" fill="white"/>
<path d="M86.52 66.1704V62.5204H87.58V61.9404H86.52V60.1604H85.88V61.9404H84.81V62.5204H85.88V66.1704H86.52Z" fill="white"/>
<path d="M92.28 66.1706V61.9406H91.64V62.6506C91.64 62.6506 91.62 62.6006 91.6 62.5806C91.44 62.3506 91.23 62.1706 90.97 62.0406C90.71 61.9106 90.43 61.8506 90.1 61.8506C89.7 61.8506 89.35 61.9506 89.03 62.1406C88.72 62.3406 88.46 62.6006 88.28 62.9306C88.09 63.2606 88 63.6406 88 64.0606C88 64.4806 88.09 64.8506 88.28 65.1806C88.47 65.5106 88.72 65.7706 89.04 65.9706C89.36 66.1706 89.71 66.2606 90.11 66.2606C90.43 66.2606 90.72 66.1906 90.97 66.0706C91.22 65.9506 91.43 65.7606 91.59 65.5306C91.61 65.5106 91.62 65.4806 91.63 65.4506V66.1806H92.27L92.28 66.1706ZM91.28 65.2206C91.02 65.5106 90.66 65.6606 90.22 65.6606C89.93 65.6606 89.66 65.5906 89.43 65.4506C89.2 65.3106 89.01 65.1206 88.88 64.8806C88.74 64.6406 88.68 64.3606 88.68 64.0506C88.68 63.7406 88.75 63.4606 88.88 63.2206C89.01 62.9806 89.2 62.7906 89.43 62.6506C89.66 62.5106 89.92 62.4406 90.22 62.4406C90.52 62.4406 90.77 62.5106 90.99 62.6406C91.21 62.7706 91.38 62.9606 91.5 63.2006C91.62 63.4406 91.68 63.7206 91.68 64.0406C91.68 64.5206 91.55 64.9106 91.28 65.2006V65.2206Z" fill="white"/>
<path d="M93.54 61.9406V66.1706H94.18V63.7006C94.18 63.2906 94.28 62.9706 94.49 62.7606C94.69 62.5506 94.96 62.4406 95.28 62.4406C95.44 62.4406 95.58 62.4606 95.7 62.5106C95.82 62.5606 95.93 62.6406 96.03 62.7406L96.45 62.3006C96.3 62.1406 96.14 62.0206 95.96 61.9406C95.79 61.8606 95.59 61.8306 95.38 61.8306C94.92 61.8306 94.57 61.9906 94.3 62.3006C94.24 62.3706 94.21 62.4706 94.17 62.5506V61.9306H93.53L93.54 61.9406Z" fill="white"/>
<path d="M96.66 62.5204H97.72V66.1704H98.36V62.5204H99.42V61.9404H98.36V60.1604H97.72V61.9404H96.66V62.5204Z" fill="white"/>
<path d="M103.52 65.3704C103.67 65.0904 103.75 64.7604 103.75 64.4004V61.9404H103.11V64.3704C103.11 64.7604 103.01 65.0704 102.8 65.3104C102.59 65.5504 102.32 65.6604 101.96 65.6604C101.73 65.6604 101.53 65.6104 101.36 65.5004C101.19 65.3904 101.05 65.2404 100.96 65.0504C100.87 64.8604 100.82 64.6304 100.82 64.3804V61.9504H100.18V64.4104C100.18 64.7804 100.26 65.1004 100.41 65.3804C100.56 65.6604 100.77 65.8804 101.04 66.0404C101.31 66.2004 101.62 66.2804 101.96 66.2804C102.3 66.2804 102.62 66.2004 102.89 66.0504C103.16 65.8904 103.37 65.6704 103.52 65.3904V65.3704Z" fill="white"/>
<path d="M104.91 61.9406V67.9506H105.55V65.4206C105.55 65.4206 105.58 65.4806 105.6 65.5106C105.77 65.7406 105.98 65.9206 106.23 66.0506C106.49 66.1806 106.78 66.2506 107.1 66.2506C107.49 66.2506 107.84 66.1506 108.16 65.9606C108.48 65.7706 108.72 65.5006 108.9 65.1706C109.08 64.8406 109.17 64.4706 109.17 64.0506C109.17 63.6306 109.08 63.2506 108.9 62.9206C108.72 62.5906 108.47 62.3206 108.16 62.1306C107.85 61.9406 107.5 61.8406 107.11 61.8406C106.8 61.8406 106.51 61.9006 106.25 62.0306C105.99 62.1606 105.77 62.3306 105.61 62.5706C105.59 62.6006 105.58 62.6406 105.56 62.6706V61.9306H104.92L104.91 61.9406ZM105.7 63.2206C105.83 62.9806 106 62.7906 106.23 62.6506C106.45 62.5206 106.71 62.4506 107.01 62.4506C107.31 62.4506 107.56 62.5206 107.79 62.6506C108.02 62.7806 108.19 62.9706 108.33 63.2206C108.46 63.4606 108.53 63.7406 108.53 64.0506C108.53 64.3606 108.46 64.6406 108.33 64.8806C108.2 65.1206 108.02 65.3106 107.79 65.4506C107.56 65.5906 107.3 65.6506 107 65.6506C106.7 65.6506 106.46 65.5806 106.23 65.4506C106.01 65.3206 105.83 65.1306 105.71 64.8806C105.59 64.6306 105.52 64.3606 105.52 64.0506C105.52 63.7406 105.58 63.4606 105.71 63.2206H105.7Z" fill="white"/>
<path d="M32.83 122.63H35.15C35.85 122.63 36.49 122.49 37.05 122.2C37.61 121.91 38.05 121.51 38.38 120.98C38.71 120.46 38.87 119.84 38.87 119.14C38.87 118.44 38.71 117.82 38.38 117.3C38.05 116.78 37.61 116.37 37.05 116.08C36.49 115.79 35.86 115.65 35.15 115.65H30.99V126.85H32.83V122.63ZM32.83 117.25H35.05C35.43 117.25 35.77 117.33 36.07 117.48C36.37 117.63 36.6 117.85 36.77 118.14C36.94 118.42 37.03 118.76 37.03 119.14C37.03 119.52 36.94 119.86 36.77 120.14C36.6 120.42 36.37 120.64 36.07 120.8C35.78 120.96 35.44 121.03 35.05 121.03H32.83V117.25Z" fill="white"/>
<path d="M42.18 122.581C42.18 121.921 42.34 121.431 42.66 121.121C42.98 120.811 43.39 120.661 43.88 120.661C44.1 120.661 44.3 120.691 44.47 120.761C44.64 120.821 44.8 120.931 44.93 121.081L46.08 119.901C45.81 119.591 45.53 119.371 45.22 119.231C44.91 119.091 44.56 119.021 44.18 119.021C43.31 119.021 42.65 119.321 42.22 119.921C42.2 119.941 42.19 119.971 42.18 119.991V119.181H40.42V126.861H42.18V122.591V122.581Z" fill="white"/>
<path d="M52.27 119.54C51.66 119.19 50.98 119.01 50.22 119.01C49.46 119.01 48.8 119.19 48.19 119.55C47.58 119.91 47.1 120.38 46.74 120.98C46.38 121.58 46.2 122.25 46.2 123C46.2 123.75 46.38 124.42 46.74 125.03C47.1 125.64 47.58 126.12 48.19 126.48C48.8 126.84 49.48 127.02 50.22 127.02C50.96 127.02 51.66 126.84 52.27 126.48C52.88 126.12 53.36 125.64 53.72 125.03C54.08 124.42 54.26 123.74 54.26 123C54.26 122.26 54.08 121.58 53.72 120.98C53.36 120.38 52.88 119.9 52.27 119.55V119.54ZM52.17 124.2C51.98 124.55 51.72 124.83 51.39 125.02C51.05 125.22 50.67 125.32 50.23 125.32C49.79 125.32 49.42 125.22 49.09 125.02C48.75 124.82 48.49 124.55 48.31 124.2C48.12 123.85 48.03 123.45 48.03 123C48.03 122.55 48.12 122.16 48.31 121.82C48.5 121.48 48.76 121.21 49.09 121.01C49.42 120.81 49.81 120.71 50.23 120.71C50.65 120.71 51.05 120.81 51.38 121.01C51.71 121.21 51.97 121.48 52.16 121.82C52.35 122.16 52.45 122.56 52.45 123C52.45 123.44 52.36 123.85 52.17 124.2Z" fill="white"/>
<path d="M67.68 126.85V121.89C67.68 121.29 67.55 120.78 67.28 120.35C67.01 119.92 66.66 119.59 66.21 119.36C65.76 119.13 65.26 119.01 64.71 119.01C64.16 119.01 63.67 119.13 63.21 119.37C62.78 119.6 62.44 119.91 62.15 120.3C61.9 119.9 61.57 119.58 61.15 119.36C60.71 119.13 60.22 119.01 59.68 119.01C59.14 119.01 58.65 119.13 58.21 119.37C57.92 119.53 57.68 119.75 57.47 119.99V119.17H55.71V126.85H57.47V122.27C57.47 121.93 57.54 121.64 57.69 121.4C57.84 121.16 58.04 120.98 58.29 120.85C58.54 120.72 58.83 120.66 59.15 120.66C59.62 120.66 60.01 120.8 60.33 121.08C60.65 121.36 60.81 121.76 60.81 122.27V126.85H62.57V122.27C62.57 121.93 62.64 121.64 62.79 121.4C62.94 121.16 63.14 120.98 63.4 120.85C63.66 120.72 63.94 120.66 64.25 120.66C64.72 120.66 65.11 120.8 65.43 121.08C65.75 121.36 65.91 121.76 65.91 122.27V126.85H67.67H67.68Z" fill="white"/>
<path d="M71.26 119.17H69.5V126.85H71.26V119.17Z" fill="white"/>
<path d="M70.38 117.76C70.69 117.76 70.94 117.66 71.13 117.46C71.32 117.26 71.42 117.01 71.42 116.71C71.42 116.41 71.32 116.16 71.13 115.96C70.94 115.76 70.69 115.66 70.38 115.66C70.07 115.66 69.83 115.76 69.64 115.96C69.45 116.16 69.34 116.41 69.34 116.71C69.34 117.01 69.44 117.26 69.64 117.46C69.84 117.66 70.09 117.76 70.38 117.76Z" fill="white"/>
<path d="M77.87 126.361C78.39 125.921 78.65 125.331 78.65 124.581C78.65 124.111 78.55 123.731 78.36 123.441C78.17 123.151 77.92 122.911 77.62 122.741C77.32 122.561 77 122.431 76.66 122.321C76.32 122.221 76 122.121 75.7 122.041C75.4 121.961 75.15 121.851 74.96 121.741C74.77 121.631 74.67 121.461 74.67 121.241C74.67 121.021 74.77 120.881 74.96 120.781C75.15 120.671 75.42 120.621 75.78 120.621C76.15 120.621 76.48 120.691 76.77 120.831C77.06 120.971 77.31 121.181 77.54 121.451L78.66 120.331C78.34 119.891 77.94 119.561 77.47 119.351C77 119.141 76.45 119.021 75.83 119.021C75.24 119.021 74.74 119.121 74.32 119.311C73.9 119.501 73.57 119.771 73.34 120.131C73.11 120.481 73 120.901 73 121.391C73 121.851 73.1 122.221 73.29 122.511C73.48 122.801 73.73 123.021 74.03 123.191C74.33 123.361 74.65 123.491 74.99 123.581C75.33 123.671 75.65 123.771 75.95 123.861C76.25 123.951 76.5 124.061 76.69 124.191C76.88 124.321 76.98 124.501 76.98 124.731C76.98 124.961 76.88 125.121 76.68 125.241C76.48 125.361 76.18 125.421 75.78 125.421C75.34 125.421 74.95 125.341 74.6 125.191C74.25 125.041 73.95 124.801 73.68 124.491L72.56 125.611C72.81 125.911 73.09 126.161 73.42 126.371C73.75 126.581 74.11 126.741 74.51 126.851C74.9 126.961 75.32 127.021 75.74 127.021C76.64 127.021 77.35 126.801 77.87 126.361Z" fill="white"/>
<path d="M81.76 115.96C81.57 115.76 81.32 115.66 81.01 115.66C80.7 115.66 80.46 115.76 80.27 115.96C80.08 116.16 79.97 116.41 79.97 116.71C79.97 117.01 80.07 117.26 80.27 117.46C80.47 117.66 80.72 117.76 81.01 117.76C81.3 117.76 81.57 117.66 81.76 117.46C81.95 117.26 82.05 117.01 82.05 116.71C82.05 116.41 81.95 116.16 81.76 115.96Z" fill="white"/>
<path d="M81.89 119.17H80.13V126.85H81.89V119.17Z" fill="white"/>
<path d="M90.88 126.85V122.03C90.88 121.53 90.75 121.05 90.5 120.58C90.24 120.12 89.89 119.74 89.44 119.44C88.99 119.15 88.48 119 87.9 119C87.32 119 86.83 119.13 86.37 119.39C86.07 119.56 85.82 119.8 85.61 120.06V119.16H83.85V126.84H85.61V122.41C85.61 122.07 85.68 121.77 85.83 121.5C85.98 121.23 86.19 121.03 86.45 120.88C86.71 120.73 87.02 120.66 87.36 120.66C87.87 120.66 88.29 120.83 88.62 121.16C88.95 121.49 89.11 121.91 89.11 122.42V126.85H90.87H90.88Z" fill="white"/>
<path d="M98.16 120.01C97.94 119.76 97.7 119.54 97.39 119.38C96.93 119.13 96.4 119.01 95.79 119.01C95.11 119.01 94.49 119.18 93.94 119.51C93.39 119.84 92.96 120.3 92.64 120.88C92.33 121.46 92.17 122.11 92.17 122.83C92.17 123.55 92.33 124.21 92.64 124.8C92.95 125.39 93.39 125.85 93.94 126.18C94.49 126.52 95.11 126.68 95.79 126.68C96.39 126.68 96.91 126.56 97.37 126.31C97.68 126.14 97.93 125.91 98.15 125.66V126.52C98.15 127.14 97.95 127.63 97.54 127.98C97.13 128.33 96.59 128.52 95.89 128.52C95.34 128.52 94.86 128.42 94.47 128.23C94.07 128.04 93.72 127.75 93.41 127.37L92.26 128.52C92.63 129.05 93.12 129.47 93.73 129.76C94.34 130.05 95.05 130.2 95.86 130.2C96.67 130.2 97.36 130.05 97.97 129.74C98.58 129.43 99.05 129 99.39 128.45C99.73 127.9 99.9 127.26 99.9 126.52V119.16H98.14V120L98.16 120.01ZM98.01 124C97.83 124.33 97.59 124.58 97.27 124.76C96.95 124.94 96.58 125.03 96.15 125.03C95.72 125.03 95.35 124.94 95.02 124.76C94.69 124.58 94.44 124.32 94.26 123.99C94.08 123.66 93.99 123.28 93.99 122.85C93.99 122.42 94.08 122.03 94.26 121.71C94.44 121.38 94.69 121.13 95.02 120.95C95.35 120.77 95.72 120.68 96.15 120.68C96.58 120.68 96.95 120.77 97.27 120.95C97.59 121.13 97.84 121.38 98.01 121.71C98.18 122.04 98.27 122.42 98.27 122.85C98.27 123.28 98.18 123.67 98.01 123.99V124Z" fill="white"/>
<path d="M111.3 126.13C112.01 125.54 112.36 124.75 112.36 123.75C112.36 123.15 112.26 122.66 112.07 122.26C111.88 121.86 111.62 121.54 111.31 121.29C111 121.04 110.65 120.83 110.27 120.67C109.89 120.51 109.51 120.37 109.13 120.24C108.75 120.11 108.4 119.98 108.09 119.83C107.78 119.69 107.52 119.51 107.33 119.3C107.14 119.09 107.04 118.82 107.04 118.48C107.04 118.07 107.2 117.76 107.51 117.54C107.82 117.32 108.26 117.2 108.81 117.2C109.26 117.2 109.66 117.29 110 117.46C110.35 117.64 110.68 117.91 111 118.27L112.25 117.02C111.89 116.57 111.42 116.2 110.83 115.92C110.25 115.63 109.59 115.49 108.85 115.49C108.17 115.49 107.55 115.61 106.99 115.86C106.43 116.11 105.99 116.46 105.67 116.92C105.35 117.38 105.18 117.95 105.18 118.61C105.18 119.19 105.28 119.66 105.47 120.03C105.66 120.4 105.91 120.71 106.23 120.94C106.54 121.17 106.89 121.37 107.27 121.52C107.65 121.67 108.03 121.81 108.41 121.94C108.79 122.06 109.14 122.2 109.45 122.36C109.76 122.51 110.02 122.71 110.21 122.94C110.4 123.17 110.5 123.48 110.5 123.85C110.5 124.3 110.32 124.65 109.95 124.91C109.58 125.17 109.09 125.29 108.47 125.29C107.81 125.29 107.26 125.17 106.84 124.91C106.41 124.66 106.05 124.31 105.74 123.86L104.49 125.11C104.98 125.73 105.54 126.2 106.15 126.52C106.77 126.84 107.52 127 108.41 127C109.62 127 110.57 126.71 111.28 126.12L111.3 126.13Z" fill="white"/>
<path d="M113.3 120.77H115.14V126.85H116.9V120.77H118.74V119.17H116.9V115.97H115.14V119.17H113.3V120.77Z" fill="white"/>
<path d="M125.36 120.06C125.14 119.8 124.88 119.56 124.57 119.39C124.12 119.14 123.6 119.01 123.01 119.01C122.32 119.01 121.69 119.19 121.13 119.55C120.57 119.91 120.13 120.39 119.8 120.99C119.47 121.59 119.31 122.27 119.31 123.03C119.31 123.79 119.47 124.45 119.8 125.05C120.13 125.65 120.57 126.13 121.13 126.48C121.69 126.83 122.32 127.01 123.01 127.01C123.6 127.01 124.12 126.89 124.58 126.63C124.89 126.46 125.14 126.23 125.36 125.97V126.85H127.12V119.17H125.36V120.06ZM124.87 124.69C124.47 125.13 123.94 125.35 123.29 125.35C122.86 125.35 122.49 125.25 122.16 125.05C121.83 124.85 121.58 124.58 121.39 124.23C121.2 123.88 121.11 123.47 121.11 123.01C121.11 122.55 121.2 122.15 121.39 121.79C121.58 121.44 121.83 121.16 122.16 120.97C122.49 120.77 122.86 120.67 123.29 120.67C123.72 120.67 124.11 120.77 124.43 120.97C124.76 121.17 125.01 121.44 125.19 121.79C125.37 122.14 125.46 122.55 125.46 123.01C125.46 123.69 125.26 124.25 124.86 124.69H124.87Z" fill="white"/>
<path d="M130.83 122.581C130.83 121.921 130.99 121.431 131.31 121.121C131.63 120.811 132.04 120.661 132.53 120.661C132.75 120.661 132.95 120.691 133.12 120.761C133.29 120.821 133.45 120.931 133.58 121.081L134.73 119.901C134.46 119.591 134.18 119.371 133.87 119.231C133.56 119.091 133.21 119.021 132.83 119.021C131.96 119.021 131.3 119.321 130.87 119.921C130.85 119.941 130.84 119.971 130.83 119.991V119.181H129.07V126.861H130.83V122.591V122.581Z" fill="white"/>
<path d="M138.54 115.97H136.78V119.17H134.94V120.77H136.78V126.85H138.54V120.77H140.38V119.17H138.54V115.97Z" fill="white"/>
<path d="M146.4 123.56C146.4 124.12 146.26 124.56 145.99 124.86C145.72 125.16 145.33 125.32 144.81 125.32C144.48 125.32 144.19 125.25 143.95 125.11C143.71 124.97 143.53 124.77 143.41 124.51C143.29 124.25 143.23 123.93 143.23 123.56V119.18H141.47V123.64C141.47 124.3 141.61 124.89 141.89 125.39C142.17 125.9 142.57 126.29 143.07 126.58C143.58 126.87 144.15 127.01 144.81 127.01C145.47 127.01 146.05 126.87 146.55 126.59C147.05 126.31 147.44 125.91 147.73 125.41C148.02 124.91 148.15 124.31 148.15 123.64V119.18H146.39V123.56H146.4Z" fill="white"/>
<path d="M155.93 126.48C156.49 126.13 156.93 125.65 157.26 125.05C157.59 124.45 157.75 123.77 157.75 123.03C157.75 122.29 157.59 121.59 157.26 120.99C156.93 120.39 156.49 119.91 155.93 119.55C155.37 119.19 154.74 119.01 154.05 119.01C153.47 119.01 152.96 119.14 152.5 119.39C152.18 119.56 151.93 119.8 151.7 120.06V119.17H149.94V130.05H151.7V125.97C151.92 126.23 152.17 126.46 152.48 126.63C152.94 126.88 153.46 127.01 154.05 127.01C154.74 127.01 155.37 126.83 155.93 126.48ZM152.62 125.05C152.29 124.85 152.03 124.58 151.85 124.23C151.67 123.88 151.58 123.47 151.58 123.01C151.58 122.55 151.67 122.15 151.85 121.79C152.03 121.44 152.29 121.16 152.62 120.97C152.95 120.77 153.33 120.67 153.76 120.67C154.19 120.67 154.56 120.77 154.89 120.97C155.22 121.17 155.47 121.44 155.66 121.79C155.85 122.14 155.94 122.55 155.94 123.01C155.94 123.47 155.85 123.87 155.66 124.23C155.47 124.58 155.22 124.86 154.89 125.05C154.56 125.25 154.19 125.35 153.76 125.35C153.33 125.35 152.95 125.25 152.62 125.05Z" fill="white"/>
<path d="M18.26 132.65H17V143.85H18.84V139.05H23.96V137.37H18.84V134.33H24.23V132.65H18.84H18.26Z" fill="white"/>
<path d="M29.58 136.01C28.71 136.01 28.05 136.311 27.62 136.911C27.6 136.931 27.59 136.96 27.58 136.98V136.171H25.82V143.851H27.58V139.581C27.58 138.921 27.74 138.43 28.06 138.12C28.38 137.81 28.79 137.661 29.28 137.661C29.5 137.661 29.7 137.69 29.87 137.76C30.04 137.82 30.2 137.931 30.33 138.081L31.48 136.9C31.21 136.59 30.93 136.37 30.62 136.23C30.31 136.09 29.96 136.021 29.58 136.021V136.01Z" fill="white"/>
<path d="M37.67 136.54C37.06 136.19 36.38 136.01 35.62 136.01C34.86 136.01 34.2 136.191 33.59 136.551C32.98 136.911 32.5 137.38 32.14 137.98C31.78 138.58 31.6 139.251 31.6 140.001C31.6 140.751 31.78 141.421 32.14 142.031C32.5 142.641 32.98 143.12 33.59 143.48C34.2 143.84 34.88 144.021 35.62 144.021C36.36 144.021 37.06 143.84 37.67 143.48C38.28 143.12 38.76 142.641 39.12 142.031C39.48 141.421 39.66 140.741 39.66 140.001C39.66 139.261 39.48 138.58 39.12 137.98C38.76 137.38 38.28 136.901 37.67 136.551V136.54ZM37.57 141.201C37.38 141.551 37.12 141.831 36.79 142.021C36.45 142.221 36.07 142.321 35.63 142.321C35.19 142.321 34.82 142.221 34.49 142.021C34.15 141.821 33.89 141.551 33.71 141.201C33.52 140.851 33.43 140.451 33.43 140.001C33.43 139.551 33.52 139.161 33.71 138.821C33.9 138.481 34.16 138.21 34.49 138.01C34.82 137.81 35.21 137.711 35.63 137.711C36.05 137.711 36.45 137.81 36.78 138.01C37.11 138.21 37.37 138.481 37.56 138.821C37.75 139.161 37.85 139.561 37.85 140.001C37.85 140.441 37.76 140.851 37.57 141.201Z" fill="white"/>
<path d="M51.61 136.361C51.16 136.131 50.66 136.01 50.11 136.01C49.56 136.01 49.07 136.13 48.61 136.37C48.18 136.6 47.84 136.911 47.55 137.301C47.3 136.901 46.97 136.581 46.55 136.361C46.11 136.131 45.62 136.01 45.08 136.01C44.54 136.01 44.05 136.13 43.61 136.37C43.32 136.53 43.08 136.751 42.87 136.991V136.171H41.11V143.851H42.87V139.271C42.87 138.931 42.94 138.64 43.09 138.4C43.24 138.16 43.44 137.981 43.69 137.851C43.94 137.721 44.23 137.661 44.55 137.661C45.02 137.661 45.41 137.801 45.73 138.081C46.05 138.361 46.21 138.761 46.21 139.271V143.851H47.97V139.271C47.97 138.931 48.04 138.64 48.19 138.4C48.34 138.16 48.54 137.981 48.8 137.851C49.06 137.721 49.34 137.661 49.65 137.661C50.12 137.661 50.51 137.801 50.83 138.081C51.15 138.361 51.31 138.761 51.31 139.271V143.851H53.07V138.891C53.07 138.291 52.94 137.781 52.67 137.351C52.4 136.921 52.05 136.591 51.6 136.361H51.61Z" fill="white"/>
<path d="M64.34 138.29C64.03 138.04 63.68 137.83 63.3 137.67C62.92 137.51 62.54 137.37 62.16 137.24C61.78 137.11 61.43 136.98 61.12 136.83C60.81 136.69 60.55 136.51 60.36 136.3C60.17 136.09 60.07 135.82 60.07 135.48C60.07 135.07 60.23 134.76 60.54 134.54C60.85 134.32 61.29 134.2 61.84 134.2C62.29 134.2 62.69 134.29 63.03 134.46C63.38 134.64 63.71 134.91 64.03 135.27L65.28 134.02C64.92 133.57 64.45 133.2 63.86 132.92C63.28 132.63 62.62 132.49 61.88 132.49C61.2 132.49 60.58 132.61 60.02 132.86C59.46 133.11 59.02 133.46 58.7 133.92C58.38 134.38 58.21 134.95 58.21 135.61C58.21 136.19 58.31 136.66 58.5 137.03C58.69 137.4 58.94 137.71 59.26 137.94C59.57 138.17 59.92 138.37 60.3 138.52C60.68 138.67 61.06 138.81 61.44 138.94C61.82 139.06 62.17 139.2 62.48 139.36C62.79 139.51 63.05 139.71 63.24 139.94C63.43 140.17 63.53 140.48 63.53 140.85C63.53 141.3 63.35 141.65 62.98 141.91C62.61 142.17 62.12 142.29 61.5 142.29C60.84 142.29 60.29 142.17 59.87 141.91C59.44 141.66 59.08 141.31 58.77 140.86L57.52 142.11C58.01 142.73 58.57 143.2 59.18 143.52C59.8 143.84 60.55 144 61.44 144C62.65 144 63.6 143.71 64.31 143.12C65.02 142.53 65.37 141.74 65.37 140.74C65.37 140.14 65.27 139.65 65.08 139.25C64.89 138.85 64.63 138.53 64.32 138.28L64.34 138.29Z" fill="white"/>
<path d="M72.46 136.54C71.85 136.19 71.17 136.01 70.41 136.01C69.65 136.01 68.99 136.191 68.38 136.551C67.77 136.911 67.29 137.38 66.93 137.98C66.57 138.58 66.39 139.251 66.39 140.001C66.39 140.751 66.57 141.421 66.93 142.031C67.29 142.641 67.77 143.12 68.38 143.48C68.99 143.84 69.67 144.021 70.41 144.021C71.15 144.021 71.85 143.84 72.46 143.48C73.07 143.12 73.55 142.641 73.91 142.031C74.27 141.421 74.45 140.741 74.45 140.001C74.45 139.261 74.27 138.58 73.91 137.98C73.55 137.38 73.07 136.901 72.46 136.551V136.54ZM72.35 141.201C72.16 141.551 71.9 141.831 71.57 142.021C71.23 142.221 70.85 142.321 70.41 142.321C69.97 142.321 69.6 142.221 69.27 142.021C68.93 141.821 68.67 141.551 68.49 141.201C68.3 140.851 68.21 140.451 68.21 140.001C68.21 139.551 68.3 139.161 68.49 138.821C68.68 138.481 68.94 138.21 69.27 138.01C69.6 137.81 69.99 137.711 70.41 137.711C70.83 137.711 71.23 137.81 71.56 138.01C71.89 138.21 72.15 138.481 72.34 138.821C72.53 139.161 72.63 139.561 72.63 140.001C72.63 140.441 72.54 140.851 72.35 141.201Z" fill="white"/>
<path d="M80.63 140.56C80.63 141.12 80.49 141.56 80.22 141.86C79.95 142.16 79.56 142.32 79.04 142.32C78.71 142.32 78.42 142.25 78.18 142.11C77.94 141.97 77.76 141.77 77.64 141.51C77.52 141.25 77.46 140.93 77.46 140.56V136.18H75.7V140.64C75.7 141.3 75.84 141.89 76.12 142.39C76.4 142.9 76.8 143.29 77.3 143.58C77.81 143.87 78.38 144.01 79.04 144.01C79.7 144.01 80.28 143.87 80.78 143.59C81.28 143.31 81.67 142.91 81.96 142.41C82.25 141.91 82.38 141.31 82.38 140.64V136.18H80.62V140.56H80.63Z" fill="white"/>
<path d="M87.1 132.97H85.34V136.17H83.5V137.77H85.34V143.85H87.1V137.77H88.94V136.17H87.1V132.97Z" fill="white"/>
<path d="M95.8 136.401C95.35 136.141 94.84 136.021 94.26 136.021C93.68 136.021 93.19 136.151 92.73 136.411C92.43 136.581 92.18 136.821 91.97 137.081V132.341H90.21V143.861H91.97V139.431C91.97 139.091 92.04 138.791 92.19 138.521C92.34 138.251 92.55 138.051 92.81 137.901C93.07 137.751 93.38 137.681 93.72 137.681C94.23 137.681 94.65 137.851 94.98 138.181C95.31 138.511 95.47 138.931 95.47 139.441V143.871H97.23V139.051C97.23 138.451 97.1 137.931 96.85 137.471C96.59 137.021 96.24 136.661 95.79 136.411L95.8 136.401Z" fill="white"/>
<path d="M104.31 132.65H102.47V143.85H104.31V132.65Z" fill="white"/>
<path d="M112.09 136.451C111.64 136.161 111.13 136.01 110.55 136.01C109.97 136.01 109.48 136.14 109.02 136.4C108.72 136.57 108.47 136.811 108.26 137.071V136.171H106.5V143.851H108.26V139.421C108.26 139.081 108.33 138.78 108.48 138.51C108.63 138.24 108.84 138.041 109.1 137.891C109.36 137.741 109.67 137.671 110.01 137.671C110.52 137.671 110.94 137.841 111.27 138.171C111.6 138.501 111.76 138.92 111.76 139.43V143.861H113.52V139.04C113.52 138.54 113.39 138.06 113.14 137.59C112.88 137.13 112.53 136.751 112.08 136.451H112.09Z" fill="white"/>
<path d="M120.89 137.061C120.67 136.801 120.41 136.561 120.1 136.391C119.65 136.141 119.13 136.011 118.54 136.011C117.85 136.011 117.22 136.191 116.66 136.551C116.1 136.911 115.66 137.391 115.33 137.991C115 138.591 114.84 139.271 114.84 140.031C114.84 140.791 115 141.451 115.33 142.051C115.66 142.651 116.1 143.131 116.66 143.481C117.22 143.831 117.85 144.011 118.54 144.011C119.13 144.011 119.65 143.891 120.11 143.631C120.42 143.461 120.67 143.231 120.89 142.971V143.851H122.65V132.331H120.89V137.061ZM120.73 141.231C120.55 141.581 120.3 141.861 119.97 142.051C119.64 142.251 119.26 142.351 118.83 142.351C118.4 142.351 118.03 142.251 117.7 142.051C117.37 141.851 117.12 141.581 116.93 141.231C116.74 140.881 116.65 140.471 116.65 140.011C116.65 139.551 116.74 139.151 116.93 138.791C117.12 138.441 117.37 138.161 117.7 137.971C118.03 137.771 118.4 137.671 118.83 137.671C119.26 137.671 119.65 137.771 119.97 137.971C120.3 138.171 120.55 138.441 120.73 138.791C120.91 139.141 121 139.551 121 140.011C121 140.471 120.91 140.871 120.73 141.231Z" fill="white"/>
<path d="M125.5 132.65C125.2 132.65 124.95 132.75 124.76 132.95C124.57 133.15 124.46 133.4 124.46 133.7C124.46 134 124.56 134.25 124.76 134.45C124.96 134.65 125.21 134.75 125.5 134.75C125.79 134.75 126.06 134.65 126.25 134.45C126.44 134.25 126.54 134 126.54 133.7C126.54 133.4 126.44 133.15 126.25 132.95C126.06 132.75 125.81 132.65 125.5 132.65Z" fill="white"/>
<path d="M126.38 136.17H124.62V143.85H126.38V136.17Z" fill="white"/>
<path d="M133.91 137.061C133.69 136.801 133.43 136.561 133.12 136.391C132.67 136.141 132.15 136.01 131.56 136.01C130.87 136.01 130.24 136.191 129.68 136.551C129.12 136.911 128.68 137.391 128.35 137.991C128.02 138.591 127.86 139.271 127.86 140.031C127.86 140.791 128.02 141.451 128.35 142.051C128.68 142.651 129.12 143.13 129.68 143.48C130.24 143.83 130.87 144.01 131.56 144.01C132.15 144.01 132.67 143.891 133.13 143.631C133.44 143.461 133.69 143.231 133.91 142.971V143.851H135.67V136.171H133.91V137.061ZM133.42 141.691C133.02 142.131 132.49 142.351 131.84 142.351C131.41 142.351 131.04 142.251 130.71 142.051C130.38 141.851 130.13 141.58 129.94 141.23C129.75 140.88 129.66 140.47 129.66 140.01C129.66 139.55 129.75 139.15 129.94 138.79C130.13 138.44 130.38 138.161 130.71 137.971C131.04 137.771 131.41 137.671 131.84 137.671C132.27 137.671 132.66 137.771 132.98 137.971C133.31 138.171 133.56 138.44 133.74 138.79C133.92 139.14 134.01 139.55 134.01 140.01C134.01 140.69 133.81 141.251 133.41 141.691H133.42Z" fill="white"/>
<path d="M146.24 138.94H140.82V140.6H146.24V138.94Z" fill="white"/>
<path d="M150.28 132.65H148.44V143.85H150.28V132.65Z" fill="white"/>
<path d="M159.05 137.84C159.38 137.63 159.65 137.38 159.86 137.1C160.19 136.65 160.35 136.14 160.35 135.55C160.35 135.05 160.23 134.58 159.98 134.14C159.73 133.7 159.36 133.35 158.86 133.07C158.36 132.79 157.73 132.65 156.97 132.65H152.71V143.85H157.11C157.91 143.85 158.58 143.7 159.13 143.41C159.68 143.12 160.1 142.73 160.38 142.25C160.66 141.77 160.8 141.24 160.8 140.67C160.8 139.97 160.6 139.35 160.21 138.83C159.91 138.43 159.52 138.11 159.04 137.84H159.05ZM154.55 134.25H156.92C157.4 134.25 157.78 134.37 158.07 134.62C158.36 134.87 158.5 135.23 158.5 135.71C158.5 136.19 158.36 136.55 158.07 136.8C157.78 137.05 157.4 137.17 156.92 137.17H154.55V134.26V134.25ZM158.5 141.72C158.19 142.07 157.75 142.25 157.19 142.25H154.55V138.76H157.19C157.56 138.76 157.88 138.84 158.15 139C158.42 139.16 158.62 139.37 158.76 139.64C158.9 139.91 158.97 140.19 158.97 140.5C158.97 140.96 158.82 141.36 158.51 141.72H158.5Z" fill="white"/>
<path d="M167.72 132.65H166.44L161.83 143.85H163.78L164.64 141.69H169.45L170.3 143.85H172.28L167.7 132.65H167.72ZM165.28 140.09L167.06 135.63L168.82 140.09H165.28Z" fill="white"/>
</svg>
