<svg width="191" height="147" viewBox="0 0 191 147" fill="none" xmlns="http://www.w3.org/2000/svg">
<path d="M123.47 3.23029C125.74 5.30029 126.15 8.55029 126.15 8.55029C126.15 8.55029 122.88 8.44029 120.6 6.37029C118.33 4.30029 117.92 1.05029 117.92 1.05029C117.92 1.05029 121.19 1.16029 123.47 3.23029Z" fill="#D5A46E"/>
<path d="M107.5 79.5704C105.54 82.0804 105.43 85.0404 105.45 85.0504C105.45 85.0904 109.55 83.9403 111.4 81.1703C113.25 78.4403 112.35 75.6104 112.37 75.6104C112.36 75.6404 109.45 77.0803 107.5 79.5603V79.5704Z" fill="#D5A46E"/>
<path d="M110.38 88.2603C106.77 87.6503 105.43 84.9203 105.43 84.9403C105.47 84.9503 109.34 83.8403 112.67 84.2303C116.04 84.6403 118.01 86.7303 118.01 86.7503C118.06 86.7603 114.03 88.8803 110.38 88.2603Z" fill="#D5A46E"/>
<path d="M114.63 76.4403C113.29 79.1903 113.77 82.0703 113.79 82.0703C113.79 82.1103 117.4 80.3103 118.62 77.3303C119.84 74.3803 118.45 71.7903 118.48 71.7903C118.48 71.8203 115.98 73.7103 114.63 76.4403Z" fill="#D5A46E"/>
<path d="M119.04 84.3502C115.53 84.3602 113.75 81.9502 113.75 81.9702C113.79 81.9702 117.18 80.2502 120.41 80.0702C123.68 79.9002 125.96 81.5802 125.97 81.6102C126.01 81.6102 122.59 84.3502 119.04 84.3502Z" fill="#D5A46E"/>
<path d="M120.79 72.2003C120.03 75.0903 121.04 77.7903 121.07 77.7903C121.07 77.8303 124.17 75.4803 124.79 72.3803C125.42 69.3103 123.61 67.0403 123.63 67.0403C123.63 67.0703 121.56 69.3403 120.8 72.2003H120.79Z" fill="#D5A46E"/>
<path d="M126.5 79.1004C123.15 79.7104 121 77.6804 121.01 77.7004C121.05 77.7004 123.94 75.4604 127.02 74.7304C130.13 74.0004 132.65 75.2404 132.66 75.2604C132.7 75.2604 129.89 78.4904 126.51 79.1004H126.5Z" fill="#D5A46E"/>
<path d="M125.93 67.0305C125.72 69.9705 127.2 72.4105 127.22 72.4105C127.22 72.4505 129.78 69.6405 129.83 66.5105C129.89 63.4205 127.74 61.5205 127.76 61.5105C127.76 61.5405 126.15 64.1105 125.93 67.0205V67.0305Z" fill="#D5A46E"/>
<path d="M132.7 72.7406C129.57 73.9106 127.13 72.3106 127.14 72.3306C127.17 72.3306 129.55 69.6506 132.41 68.4106C135.3 67.1606 137.98 67.9306 137.98 67.9506C138.02 67.9406 135.85 71.5806 132.69 72.7506L132.7 72.7406Z" fill="#D5A46E"/>
<path d="M130.01 61.1104C130.31 64.0104 132.19 66.1204 132.21 66.1204C132.22 66.1604 134.21 62.9804 133.73 59.9204C133.26 56.8904 130.84 55.4204 130.86 55.4104C130.86 55.4404 129.72 58.2304 130.02 61.1104H130.01Z" fill="#D5A46E"/>
<path d="M137.6 65.4805C134.75 67.1605 132.1 66.0305 132.11 66.0505C132.14 66.0405 133.99 63.0305 136.57 61.3005C139.18 59.5705 141.93 59.8405 141.94 59.8605C141.98 59.8405 140.47 63.7805 137.6 65.4705V65.4805Z" fill="#D5A46E"/>
<path d="M132.98 54.6003C133.77 57.3803 135.96 59.1103 135.97 59.1003C135.99 59.1303 137.4 55.6804 136.42 52.7704C135.46 49.8904 132.83 48.8704 132.85 48.8604C132.86 48.8904 132.21 51.8403 132.98 54.6003Z" fill="#D5A46E"/>
<path d="M141.15 57.5303C138.65 59.6803 135.87 59.0403 135.88 59.0603C135.91 59.0403 137.2 55.7803 139.45 53.6303C141.72 51.4703 144.46 51.2503 144.47 51.2603C144.5 51.2403 143.69 55.3603 141.15 57.5303Z" fill="#D5A46E"/>
<path d="M134.81 47.7003C136.04 50.2903 138.48 51.6003 138.49 51.5803C138.51 51.6103 139.32 47.9703 137.87 45.2803C136.45 42.6103 133.71 42.0803 133.72 42.0703C133.74 42.0903 133.59 45.1203 134.8 47.7003H134.81Z" fill="#D5A46E"/>
<path d="M143.3 49.1103C141.21 51.6703 138.38 51.5403 138.39 51.5503C138.41 51.5303 139.14 48.1003 140.98 45.5803C142.84 43.0503 145.49 42.3303 145.5 42.3503C145.53 42.3203 145.42 46.5403 143.3 49.1103Z" fill="#D5A46E"/>
<path d="M135.45 40.5704C137.09 42.9104 139.69 43.7504 139.71 43.7404C139.73 43.7704 139.92 40.0304 138.04 37.6304C136.19 35.2504 133.42 35.2104 133.43 35.1904C133.45 35.2104 133.83 38.2404 135.45 40.5704Z" fill="#D5A46E"/>
<path d="M144 40.4404C142.38 43.3404 139.59 43.7204 139.6 43.7304C139.62 43.7104 139.76 40.1904 141.13 37.3704C142.52 34.5304 144.98 33.3404 145 33.3604C145.03 33.3304 145.64 37.5204 144 40.4404Z" fill="#D5A46E"/>
<path d="M134.85 33.3903C136.86 35.4203 139.55 35.7803 139.57 35.7703C139.6 35.7903 139.14 32.0603 136.87 30.0003C134.63 27.9603 131.91 28.4103 131.92 28.3903C131.95 28.4103 132.86 31.3703 134.85 33.3903Z" fill="#D5A46E"/>
<path d="M143.19 31.7204C142.11 34.8904 139.44 35.7704 139.46 35.7804C139.48 35.7604 139 32.2504 139.84 29.1904C140.69 26.1204 142.88 24.4904 142.9 24.5004C142.92 24.4704 144.29 28.5404 143.19 31.7304V31.7204Z" fill="#D5A46E"/>
<path d="M132.97 26.3402C135.32 28.0102 138.01 27.8902 138.02 27.8702C138.06 27.8902 136.92 24.2502 134.31 22.5902C131.72 20.9402 129.13 21.8702 129.14 21.8502C129.17 21.8602 130.65 24.6802 132.97 26.3402Z" fill="#D5A46E"/>
<path d="M140.83 23.1903C140.36 26.5503 137.9 27.9003 137.92 27.9003C137.93 27.8703 136.84 24.4603 137.07 21.2403C137.32 18.0103 139.14 15.9803 139.16 15.9903C139.18 15.9503 141.32 19.8003 140.83 23.1803V23.1903Z" fill="#D5A46E"/>
<path d="M129.77 19.6004C132.41 20.8704 135.03 20.2704 135.03 20.2504C135.07 20.2604 133.25 16.8104 130.32 15.5904C127.43 14.3704 125.05 15.7604 125.06 15.7404C125.1 15.7504 127.16 18.3404 129.77 19.6004Z" fill="#D5A46E"/>
<path d="M136.87 15.0504C137.08 18.5104 134.92 20.2904 134.94 20.3004C134.94 20.2704 133.21 17.0404 132.77 13.7504C132.34 10.4504 133.7 8.09043 133.73 8.09043C133.74 8.05043 136.68 11.5604 136.87 15.0504Z" fill="#D5A46E"/>
<path d="M125.21 13.3504C128.1 14.1804 130.55 13.1204 130.56 13.1004C130.61 13.1004 128.07 9.93043 124.87 9.19043C121.71 8.44043 119.64 10.2504 119.65 10.2304C119.69 10.2304 122.35 12.5304 125.21 13.3604V13.3504Z" fill="#D5A46E"/>
<path d="M131.26 7.53039C132.22 10.9904 130.45 13.1704 130.48 13.1704C130.48 13.1404 128.08 10.1704 126.9 6.92039C125.73 3.63039 126.53 1.00039 126.56 1.00039C126.56 0.960387 130.32 4.03039 131.26 7.53039Z" fill="#D5A46E"/>
<path d="M93.88 85.9703L93.94 85.3403C99.2 85.8203 104.44 85.2303 109.52 83.6003C114.47 82.0103 119.05 79.5003 123.14 76.1403C131.62 69.1703 137.09 59.2203 138.54 48.1303C139.73 39.0503 139.12 30.9503 136.73 24.0703C134.16 16.6803 129.59 10.9003 123.15 6.89034L123.49 6.35034C130.06 10.4403 134.72 16.3403 137.34 23.8603C139.76 30.8303 140.38 39.0303 139.18 48.2103C137.71 59.4603 132.16 69.5603 123.55 76.6303C119.4 80.0403 114.75 82.5903 109.72 84.2003C104.56 85.8603 99.23 86.4503 93.89 85.9703H93.88Z" fill="#D5A46E"/>
<path d="M66.02 3.23029C63.75 5.30029 63.34 8.55029 63.34 8.55029C63.34 8.55029 66.61 8.44029 68.89 6.37029C71.15 4.30029 71.56 1.05029 71.56 1.05029C71.56 1.05029 68.29 1.16029 66.01 3.23029H66.02Z" fill="#D5A46E"/>
<path d="M81.99 79.5704C83.95 82.0804 84.06 85.0404 84.04 85.0504C84.04 85.0904 79.94 83.9403 78.09 81.1703C76.24 78.4403 77.14 75.6104 77.12 75.6104C77.13 75.6404 80.04 77.0803 81.99 79.5603V79.5704Z" fill="#D5A46E"/>
<path d="M79.11 88.2603C82.72 87.6503 84.06 84.9203 84.06 84.9403C84.02 84.9503 80.15 83.8403 76.82 84.2303C73.45 84.6403 71.48 86.7303 71.48 86.7503C71.43 86.7603 75.46 88.8803 79.11 88.2603Z" fill="#D5A46E"/>
<path d="M74.86 76.4403C76.2 79.1903 75.72 82.0703 75.7 82.0703C75.7 82.1103 72.09 80.3103 70.87 77.3303C69.65 74.3803 71.04 71.7903 71.01 71.7903C71.01 71.8203 73.51 73.7103 74.86 76.4403Z" fill="#D5A46E"/>
<path d="M70.45 84.3502C73.96 84.3602 75.74 81.9502 75.74 81.9702C75.7 81.9702 72.31 80.2502 69.08 80.0702C65.81 79.9002 63.53 81.5802 63.52 81.6102C63.48 81.6102 66.9 84.3502 70.45 84.3502Z" fill="#D5A46E"/>
<path d="M68.7 72.2003C69.46 75.0903 68.45 77.7903 68.42 77.7903C68.42 77.8303 65.32 75.4803 64.7 72.3803C64.07 69.3103 65.88 67.0403 65.86 67.0403C65.86 67.0703 67.93 69.3403 68.69 72.2003H68.7Z" fill="#D5A46E"/>
<path d="M62.99 79.1004C66.34 79.7104 68.49 77.6804 68.48 77.7004C68.44 77.7004 65.55 75.4604 62.47 74.7304C59.36 74.0004 56.84 75.2404 56.83 75.2604C56.79 75.2604 59.6 78.4904 62.98 79.1004H62.99Z" fill="#D5A46E"/>
<path d="M63.56 67.0305C63.77 69.9705 62.29 72.4105 62.27 72.4105C62.27 72.4505 59.71 69.6405 59.66 66.5105C59.6 63.4205 61.75 61.5205 61.73 61.5105C61.73 61.5405 63.34 64.1105 63.56 67.0205V67.0305Z" fill="#D5A46E"/>
<path d="M56.79 72.7406C59.92 73.9106 62.36 72.3106 62.35 72.3306C62.32 72.3306 59.94 69.6506 57.08 68.4106C54.19 67.1606 51.51 67.9306 51.51 67.9506C51.47 67.9406 53.64 71.5806 56.8 72.7506L56.79 72.7406Z" fill="#D5A46E"/>
<path d="M59.48 61.1104C59.18 64.0104 57.3 66.1204 57.28 66.1204C57.27 66.1604 55.28 62.9804 55.76 59.9204C56.23 56.8904 58.65 55.4204 58.63 55.4104C58.63 55.4404 59.77 58.2304 59.47 61.1104H59.48Z" fill="#D5A46E"/>
<path d="M51.89 65.4805C54.74 67.1605 57.39 66.0305 57.38 66.0505C57.35 66.0405 55.5 63.0305 52.92 61.3005C50.31 59.5705 47.56 59.8405 47.55 59.8605C47.51 59.8405 49.02 63.7805 51.89 65.4705V65.4805Z" fill="#D5A46E"/>
<path d="M56.5 54.6003C55.71 57.3803 53.52 59.1103 53.51 59.1003C53.49 59.1303 52.08 55.6804 53.06 52.7704C54.02 49.8904 56.65 48.8704 56.63 48.8604C56.62 48.8904 57.27 51.8403 56.5 54.6003Z" fill="#D5A46E"/>
<path d="M48.34 57.5303C50.84 59.6803 53.62 59.0403 53.61 59.0603C53.58 59.0403 52.29 55.7803 50.04 53.6303C47.77 51.4703 45.03 51.2503 45.02 51.2603C44.99 51.2403 45.8 55.3603 48.34 57.5303Z" fill="#D5A46E"/>
<path d="M54.68 47.7003C53.45 50.2903 51.01 51.6003 51 51.5803C50.98 51.6103 50.17 47.9703 51.62 45.2803C53.04 42.6103 55.78 42.0803 55.77 42.0703C55.75 42.0903 55.9 45.1203 54.69 47.7003H54.68Z" fill="#D5A46E"/>
<path d="M46.19 49.1103C48.28 51.6703 51.11 51.5403 51.1 51.5503C51.08 51.5303 50.35 48.1003 48.51 45.5803C46.65 43.0503 44 42.3303 43.99 42.3503C43.96 42.3203 44.07 46.5403 46.19 49.1103Z" fill="#D5A46E"/>
<path d="M54.04 40.5704C52.4 42.9104 49.8 43.7504 49.78 43.7404C49.76 43.7704 49.57 40.0304 51.45 37.6304C53.3 35.2504 56.07 35.2104 56.06 35.1904C56.04 35.2104 55.66 38.2404 54.04 40.5704Z" fill="#D5A46E"/>
<path d="M45.49 40.4404C47.11 43.3404 49.9 43.7204 49.89 43.7304C49.87 43.7104 49.73 40.1904 48.36 37.3704C46.97 34.5304 44.51 33.3404 44.49 33.3604C44.46 33.3304 43.85 37.5204 45.49 40.4404Z" fill="#D5A46E"/>
<path d="M54.64 33.3903C52.63 35.4203 49.94 35.7803 49.92 35.7703C49.89 35.7903 50.35 32.0603 52.62 30.0003C54.86 27.9603 57.58 28.4103 57.57 28.3903C57.54 28.4103 56.63 31.3703 54.64 33.3903Z" fill="#D5A46E"/>
<path d="M46.3 31.7204C47.38 34.8904 50.05 35.7704 50.03 35.7804C50.01 35.7604 50.49 32.2504 49.65 29.1904C48.8 26.1204 46.61 24.4904 46.59 24.5004C46.57 24.4704 45.2 28.5404 46.3 31.7304V31.7204Z" fill="#D5A46E"/>
<path d="M56.52 26.3402C54.17 28.0102 51.48 27.8902 51.47 27.8702C51.43 27.8902 52.57 24.2502 55.18 22.5902C57.77 20.9402 60.36 21.8702 60.35 21.8502C60.32 21.8602 58.84 24.6802 56.52 26.3402Z" fill="#D5A46E"/>
<path d="M48.66 23.1903C49.13 26.5503 51.59 27.9003 51.57 27.9003C51.56 27.8703 52.65 24.4603 52.42 21.2403C52.17 18.0103 50.35 15.9803 50.33 15.9903C50.31 15.9503 48.17 19.8003 48.66 23.1803V23.1903Z" fill="#D5A46E"/>
<path d="M59.71 19.6004C57.07 20.8704 54.45 20.2704 54.45 20.2504C54.41 20.2604 56.23 16.8104 59.16 15.5904C62.05 14.3704 64.43 15.7604 64.42 15.7404C64.38 15.7504 62.32 18.3404 59.71 19.6004Z" fill="#D5A46E"/>
<path d="M52.62 15.0504C52.41 18.5104 54.57 20.2904 54.55 20.3004C54.55 20.2704 56.28 17.0404 56.72 13.7504C57.15 10.4504 55.79 8.09043 55.76 8.09043C55.75 8.05043 52.81 11.5604 52.62 15.0504Z" fill="#D5A46E"/>
<path d="M64.28 13.3504C61.39 14.1804 58.94 13.1204 58.93 13.1004C58.88 13.1004 61.42 9.93043 64.62 9.19043C67.78 8.44043 69.85 10.2504 69.84 10.2304C69.8 10.2304 67.14 12.5304 64.28 13.3604V13.3504Z" fill="#D5A46E"/>
<path d="M58.23 7.53039C57.27 10.9904 59.04 13.1704 59.01 13.1704C59.01 13.1404 61.41 10.1704 62.59 6.92039C63.76 3.63039 62.96 1.00039 62.93 1.00039C62.93 0.960387 59.17 4.03039 58.23 7.53039Z" fill="#D5A46E"/>
<path d="M95.6 85.9703L95.54 85.3403C90.28 85.8203 85.04 85.2303 79.96 83.6003C75.01 82.0103 70.43 79.5003 66.34 76.1403C57.86 69.1703 52.39 59.2203 50.94 48.1303C49.75 39.0503 50.36 30.9503 52.75 24.0703C55.32 16.6803 59.89 10.9003 66.33 6.89034L65.99 6.35034C59.42 10.4403 54.76 16.3403 52.14 23.8603C49.72 30.8303 49.1 39.0303 50.3 48.2103C51.77 59.4603 57.32 69.5603 65.93 76.6303C70.08 80.0403 74.73 82.5903 79.76 84.2003C84.92 85.8603 90.25 86.4503 95.59 85.9703H95.6Z" fill="#D5A46E"/>
<path d="M94.56 82.7205L89.74 86.2605L94.56 89.8005L99.37 86.2605L94.56 82.7205Z" fill="#D5A46E"/>
<path d="M94.74 4.02051L96.98 8.55051L101.98 9.28051L98.36 12.8005L99.22 17.7905L94.74 15.4305L90.27 17.7905L91.12 12.8005L87.51 9.28051L92.51 8.55051L94.74 4.02051Z" fill="#D5A46E"/>
<path d="M83.88 36.7005H79.06L81.7 34.0205C82.18 33.5305 82.56 33.0905 82.84 32.7005C83.12 32.3105 83.33 31.9105 83.45 31.5105C83.57 31.1105 83.63 30.6705 83.63 30.1805C83.63 29.4405 83.47 28.8005 83.15 28.2505C82.83 27.7105 82.38 27.2805 81.8 26.9805C81.22 26.6805 80.53 26.5305 79.74 26.5305C78.81 26.5305 77.99 26.7405 77.28 27.1505C76.57 27.5705 75.98 28.1805 75.51 28.9805L77.1 30.3305C77.45 29.7405 77.83 29.3105 78.23 29.0305C78.63 28.7505 79.1 28.6205 79.62 28.6205C80.14 28.6205 80.55 28.7605 80.87 29.0505C81.19 29.3305 81.35 29.7305 81.35 30.2305C81.35 30.4905 81.31 30.7405 81.22 30.9705C81.13 31.2005 80.99 31.4605 80.78 31.7305C80.57 32.0005 80.31 32.3105 79.99 32.6505L75.49 37.3705V38.7005H83.88V36.6905V36.7005Z" fill="white"/>
<path d="M87.58 38.1205C88.34 38.6405 89.19 38.9005 90.14 38.9005C91.09 38.9005 91.92 38.6405 92.67 38.1305C93.42 37.6205 94.02 36.9005 94.46 35.9705C94.9 35.0405 95.12 33.9505 95.12 32.7005C95.12 31.4505 94.9 30.3605 94.46 29.4405C94.02 28.5205 93.42 27.8005 92.66 27.2905C91.9 26.7805 91.04 26.5205 90.08 26.5205C89.12 26.5205 88.3 26.7805 87.55 27.2905C86.79 27.8005 86.19 28.5205 85.75 29.4405C85.31 30.3605 85.08 31.4405 85.08 32.6805C85.08 33.9205 85.3 35.0205 85.75 35.9505C86.2 36.8805 86.8 37.6005 87.57 38.1205H87.58ZM87.76 30.4505C87.98 29.8505 88.29 29.4105 88.69 29.1105C89.09 28.8105 89.55 28.6705 90.09 28.6705C90.63 28.6705 91.11 28.8205 91.51 29.1105C91.91 29.4105 92.23 29.8605 92.45 30.4705C92.67 31.0805 92.78 31.8305 92.78 32.7105C92.78 33.5905 92.67 34.3605 92.45 34.9605C92.23 35.5605 91.92 36.0205 91.52 36.3205C91.12 36.6205 90.65 36.7705 90.1 36.7705C89.55 36.7705 89.08 36.6205 88.68 36.3205C88.28 36.0205 87.97 35.5605 87.75 34.9605C87.53 34.3605 87.42 33.6005 87.42 32.7005C87.42 31.8005 87.53 31.0505 87.75 30.4605L87.76 30.4505Z" fill="white"/>
<path d="M104.57 36.7005H99.75L102.39 34.0205C102.87 33.5305 103.25 33.0905 103.53 32.7005C103.81 32.3105 104.02 31.9105 104.14 31.5105C104.26 31.1105 104.32 30.6705 104.32 30.1805C104.32 29.4405 104.16 28.8005 103.84 28.2505C103.52 27.7105 103.07 27.2805 102.49 26.9805C101.91 26.6805 101.22 26.5305 100.43 26.5305C99.5 26.5305 98.68 26.7405 97.97 27.1505C97.26 27.5705 96.67 28.1805 96.2 28.9805L97.79 30.3305C98.14 29.7405 98.52 29.3105 98.92 29.0305C99.32 28.7505 99.79 28.6205 100.31 28.6205C100.83 28.6205 101.24 28.7605 101.56 29.0505C101.88 29.3305 102.04 29.7305 102.04 30.2305C102.04 30.4905 102 30.7405 101.91 30.9705C101.82 31.2005 101.68 31.4605 101.47 31.7305C101.26 32.0005 101 32.3105 100.68 32.6505L96.18 37.3705V38.7005H104.57V36.6905V36.7005Z" fill="white"/>
<path d="M114 36.7005H109.18L111.82 34.0205C112.3 33.5305 112.68 33.0905 112.96 32.7005C113.24 32.3105 113.45 31.9105 113.57 31.5105C113.69 31.1105 113.75 30.6705 113.75 30.1805C113.75 29.4405 113.59 28.8005 113.27 28.2505C112.95 27.7105 112.5 27.2805 111.92 26.9805C111.34 26.6805 110.65 26.5305 109.86 26.5305C108.93 26.5305 108.11 26.7405 107.4 27.1505C106.69 27.5705 106.1 28.1805 105.63 28.9805L107.22 30.3305C107.57 29.7405 107.95 29.3105 108.35 29.0305C108.75 28.7605 109.22 28.6205 109.74 28.6205C110.26 28.6205 110.67 28.7605 110.99 29.0505C111.31 29.3305 111.47 29.7305 111.47 30.2305C111.47 30.4905 111.43 30.7405 111.34 30.9705C111.25 31.2005 111.11 31.4605 110.9 31.7305C110.7 32.0005 110.43 32.3105 110.12 32.6505L105.62 37.3705V38.7005H114.01V36.6905L114 36.7005Z" fill="white"/>
<path d="M75.18 55.1705H78.6V54.5705H75.18V52.2905H78.31V51.7105H75.18V49.5805H78.55V48.9805H75.18H74.96H74.52V55.1705H74.96H75.18Z" fill="white"/>
<path d="M79.98 55.1704L81.27 53.4404L82.55 55.1704H83.33L81.68 52.9804L83.26 50.9404H82.5L81.31 52.5404L80.09 50.9404H79.3L80.89 52.9904L79.22 55.1704H79.98Z" fill="white"/>
<path d="M84.03 54.1706C84.22 54.5106 84.49 54.7706 84.82 54.9706C85.15 55.1606 85.53 55.2606 85.94 55.2606C86.26 55.2606 86.57 55.2006 86.84 55.0806C87.12 54.9606 87.36 54.7906 87.56 54.5706L87.14 54.1506C86.99 54.3106 86.81 54.4406 86.61 54.5206C86.41 54.6006 86.18 54.6506 85.94 54.6506C85.65 54.6506 85.38 54.5806 85.15 54.4406C84.92 54.3006 84.73 54.1106 84.6 53.8706C84.47 53.6306 84.4 53.3506 84.4 53.0506C84.4 52.7506 84.47 52.4706 84.6 52.2406C84.73 52.0106 84.91 51.8206 85.15 51.6806C85.39 51.5406 85.65 51.4706 85.94 51.4706C86.18 51.4706 86.4 51.5106 86.6 51.6006C86.8 51.6906 86.97 51.8106 87.12 51.9706L87.54 51.5406C87.35 51.3206 87.11 51.1606 86.84 51.0406C86.56 50.9206 86.26 50.8606 85.94 50.8606C85.53 50.8606 85.15 50.9606 84.82 51.1506C84.49 51.3406 84.22 51.6106 84.03 51.9406C83.84 52.2706 83.74 52.6506 83.74 53.0606C83.74 53.4706 83.84 53.8506 84.03 54.1806V54.1706Z" fill="white"/>
<path d="M92.23 53.0706C92.23 53.0106 92.23 52.9506 92.23 52.9006C92.23 52.5006 92.15 52.1406 91.97 51.8306C91.8 51.5206 91.56 51.2806 91.27 51.1106C90.98 50.9406 90.63 50.8506 90.24 50.8506C89.85 50.8506 89.46 50.9506 89.13 51.1406C88.8 51.3306 88.54 51.6006 88.35 51.9306C88.16 52.2606 88.07 52.6406 88.07 53.0506C88.07 53.4606 88.17 53.8506 88.36 54.1806C88.55 54.5206 88.82 54.7806 89.16 54.9706C89.5 55.1606 89.87 55.2606 90.29 55.2606C90.63 55.2606 90.94 55.2006 91.23 55.0706C91.52 54.9506 91.77 54.7606 91.97 54.5206L91.56 54.1106C91.41 54.3006 91.23 54.4406 91.01 54.5306C90.79 54.6206 90.56 54.6706 90.31 54.6706C89.99 54.6706 89.71 54.6006 89.47 54.4606C89.23 54.3206 89.04 54.1306 88.9 53.8806C88.8 53.7006 88.75 53.5006 88.73 53.2906H92.18C92.2 53.2106 92.21 53.1306 92.22 53.0706H92.23ZM88.74 52.7506C88.77 52.5506 88.81 52.3606 88.9 52.2006C89.03 51.9606 89.21 51.7806 89.44 51.6406C89.67 51.5006 89.94 51.4406 90.24 51.4406C90.53 51.4406 90.78 51.5006 90.98 51.6306C91.18 51.7606 91.35 51.9306 91.46 52.1606C91.55 52.3306 91.59 52.5406 91.6 52.7606H88.74V52.7506Z" fill="white"/>
<path d="M93.83 48.8005H93.19V55.1705H93.83V48.8005Z" fill="white"/>
<path d="M95.74 48.8005H95.1V55.1705H95.74V48.8005Z" fill="white"/>
<path d="M100.89 53.0706C100.89 53.0106 100.89 52.9506 100.89 52.9006C100.89 52.5006 100.81 52.1406 100.63 51.8306C100.46 51.5206 100.22 51.2806 99.93 51.1106C99.64 50.9406 99.29 50.8506 98.9 50.8506C98.51 50.8506 98.12 50.9506 97.79 51.1406C97.46 51.3306 97.2 51.6006 97.01 51.9306C96.82 52.2606 96.73 52.6406 96.73 53.0506C96.73 53.4606 96.83 53.8506 97.02 54.1806C97.21 54.5206 97.48 54.7806 97.82 54.9706C98.16 55.1606 98.53 55.2606 98.95 55.2606C99.29 55.2606 99.6 55.2006 99.89 55.0706C100.18 54.9506 100.43 54.7606 100.63 54.5206L100.22 54.1106C100.07 54.3006 99.89 54.4406 99.67 54.5306C99.45 54.6206 99.22 54.6706 98.97 54.6706C98.65 54.6706 98.37 54.6006 98.13 54.4606C97.89 54.3206 97.7 54.1306 97.56 53.8806C97.46 53.7006 97.41 53.5006 97.39 53.2906H100.84C100.86 53.2106 100.87 53.1306 100.88 53.0706H100.89ZM97.4 52.7506C97.43 52.5506 97.47 52.3606 97.56 52.2006C97.69 51.9606 97.87 51.7806 98.1 51.6406C98.33 51.5006 98.6 51.4406 98.9 51.4406C99.19 51.4406 99.44 51.5006 99.64 51.6306C99.84 51.7606 100.01 51.9306 100.12 52.1606C100.21 52.3306 100.25 52.5406 100.26 52.7606H97.4V52.7506Z" fill="white"/>
<path d="M103.04 51.0706C102.81 51.2006 102.63 51.3706 102.49 51.5806V50.9406H101.85V55.1706H102.49V52.6806C102.49 52.4406 102.54 52.2306 102.65 52.0406C102.76 51.8506 102.9 51.7106 103.09 51.6006C103.28 51.4906 103.49 51.4406 103.73 51.4406C104.09 51.4406 104.38 51.5606 104.6 51.7906C104.82 52.0206 104.93 52.3206 104.93 52.6806V55.1606H105.57V52.5706C105.57 52.2606 105.5 51.9706 105.36 51.7106C105.22 51.4506 105.02 51.2406 104.77 51.0806C104.52 50.9206 104.23 50.8506 103.91 50.8506C103.59 50.8506 103.29 50.9206 103.04 51.0706Z" fill="white"/>
<path d="M107.88 51.6706C108.11 51.5306 108.38 51.4606 108.67 51.4606C108.91 51.4606 109.13 51.5006 109.33 51.5906C109.53 51.6806 109.7 51.8006 109.85 51.9606L110.27 51.5306C110.08 51.3106 109.84 51.1506 109.57 51.0306C109.29 50.9106 108.99 50.8506 108.67 50.8506C108.26 50.8506 107.88 50.9506 107.55 51.1406C107.22 51.3306 106.95 51.6006 106.76 51.9306C106.57 52.2606 106.47 52.6406 106.47 53.0506C106.47 53.4606 106.57 53.8406 106.76 54.1706C106.95 54.5106 107.21 54.7706 107.55 54.9706C107.88 55.1606 108.26 55.2606 108.67 55.2606C108.99 55.2606 109.29 55.2006 109.57 55.0806C109.85 54.9606 110.09 54.7906 110.28 54.5706L109.86 54.1506C109.71 54.3106 109.53 54.4406 109.33 54.5206C109.13 54.6106 108.9 54.6506 108.66 54.6506C108.37 54.6506 108.1 54.5806 107.87 54.4406C107.64 54.3006 107.45 54.1106 107.32 53.8706C107.19 53.6306 107.12 53.3506 107.12 53.0506C107.12 52.7506 107.19 52.4706 107.32 52.2406C107.45 52.0106 107.64 51.8206 107.87 51.6806L107.88 51.6706Z" fill="white"/>
<path d="M111.88 51.1406C111.55 51.3306 111.29 51.6006 111.1 51.9306C110.91 52.2606 110.82 52.6406 110.82 53.0506C110.82 53.4606 110.92 53.8506 111.11 54.1806C111.3 54.5206 111.57 54.7806 111.91 54.9706C112.25 55.1606 112.62 55.2606 113.04 55.2606C113.38 55.2606 113.69 55.2006 113.98 55.0706C114.27 54.9506 114.52 54.7606 114.72 54.5206L114.31 54.1106C114.16 54.3006 113.98 54.4406 113.76 54.5306C113.54 54.6206 113.31 54.6706 113.06 54.6706C112.74 54.6706 112.46 54.6006 112.22 54.4606C111.98 54.3206 111.79 54.1306 111.65 53.8806C111.55 53.7006 111.5 53.5006 111.48 53.2906H114.93C114.95 53.2106 114.96 53.1306 114.97 53.0706C114.98 53.0106 114.97 52.9506 114.97 52.9006C114.97 52.5006 114.89 52.1406 114.71 51.8306C114.54 51.5206 114.3 51.2806 114.01 51.1106C113.72 50.9406 113.37 50.8506 112.98 50.8506C112.59 50.8506 112.2 50.9506 111.87 51.1406H111.88ZM114.19 52.1506C114.28 52.3206 114.32 52.5306 114.33 52.7506H111.47C111.5 52.5506 111.54 52.3606 111.63 52.2006C111.76 51.9606 111.94 51.7806 112.17 51.6406C112.4 51.5006 112.67 51.4406 112.97 51.4406C113.26 51.4406 113.51 51.5006 113.71 51.6306C113.91 51.7606 114.08 51.9306 114.19 52.1606V52.1506Z" fill="white"/>
<path d="M82.38 58.9805L79.85 65.1705H80.55L81.2 63.5605H84.03L84.67 65.1705H85.39L82.88 58.9805H82.38ZM81.43 62.9805L82.62 60.0305L83.8 62.9805H81.43Z" fill="white"/>
<path d="M87.39 65.1704L88.55 62.0704L89.71 65.1704H90.09L91.73 60.9404H91.06L89.9 64.1204L88.74 60.9404H88.36L87.21 64.1304L86.04 60.9404H85.38L87.01 65.1704H87.39Z" fill="white"/>
<path d="M95.09 61.0406C94.83 60.9106 94.55 60.8506 94.22 60.8506C93.82 60.8506 93.47 60.9506 93.15 61.1406C92.84 61.3406 92.58 61.6006 92.4 61.9306C92.21 62.2606 92.12 62.6406 92.12 63.0606C92.12 63.4806 92.21 63.8506 92.4 64.1806C92.59 64.5106 92.84 64.7706 93.16 64.9706C93.48 65.1606 93.83 65.2606 94.23 65.2606C94.55 65.2606 94.84 65.2006 95.09 65.0706C95.34 64.9406 95.55 64.7606 95.71 64.5306C95.73 64.5106 95.74 64.4806 95.75 64.4506V65.1806H96.39V60.9506H95.75V61.6606C95.75 61.6606 95.73 61.6106 95.71 61.5906C95.55 61.3606 95.34 61.1806 95.09 61.0506V61.0406ZM95.79 63.0606C95.79 63.5406 95.66 63.9306 95.39 64.2206C95.13 64.5106 94.77 64.6606 94.33 64.6606C94.04 64.6606 93.77 64.5906 93.54 64.4506C93.31 64.3106 93.12 64.1206 92.99 63.8806C92.86 63.6406 92.79 63.3606 92.79 63.0506C92.79 62.7406 92.86 62.4606 92.99 62.2206C93.12 61.9806 93.31 61.7906 93.54 61.6506C93.77 61.5106 94.03 61.4406 94.33 61.4406C94.63 61.4406 94.88 61.5106 95.1 61.6406C95.32 61.7806 95.49 61.9606 95.61 62.2006C95.73 62.4406 95.79 62.7206 95.79 63.0406V63.0606Z" fill="white"/>
<path d="M97.65 60.9406V65.1706H98.29V62.7006C98.29 62.2906 98.39 61.9706 98.6 61.7606C98.8 61.5506 99.07 61.4506 99.39 61.4506C99.55 61.4506 99.69 61.4706 99.81 61.5206C99.93 61.5706 100.04 61.6406 100.14 61.7506L100.56 61.3106C100.41 61.1506 100.25 61.0306 100.07 60.9506C99.9 60.8706 99.7 60.8406 99.49 60.8406C99.03 60.8406 98.68 61.0006 98.41 61.3106C98.35 61.3806 98.33 61.4706 98.28 61.5506V60.9306H97.64L97.65 60.9406Z" fill="white"/>
<path d="M105.07 65.1705V58.8005H104.43V61.6605C104.43 61.6605 104.4 61.6005 104.39 61.5805C104.22 61.3505 104.01 61.1705 103.75 61.0405C103.49 60.9105 103.2 60.8505 102.89 60.8505C102.5 60.8505 102.15 60.9505 101.83 61.1405C101.51 61.3405 101.27 61.6005 101.09 61.9305C100.91 62.2605 100.82 62.6405 100.82 63.0605C100.82 63.4805 100.91 63.8505 101.09 64.1805C101.27 64.5105 101.52 64.7805 101.83 64.9705C102.14 65.1605 102.5 65.2605 102.89 65.2605C103.21 65.2605 103.5 65.1905 103.76 65.0605C104.02 64.9305 104.23 64.7505 104.4 64.5205C104.42 64.5005 104.43 64.4705 104.44 64.4405V65.1705H105.08H105.07ZM104.28 63.8805C104.16 64.1205 103.98 64.3105 103.76 64.4505C103.54 64.5905 103.28 64.6605 102.99 64.6605C102.7 64.6605 102.43 64.5905 102.2 64.4605C101.97 64.3305 101.79 64.1405 101.66 63.8905C101.53 63.6405 101.47 63.3705 101.47 63.0605C101.47 62.7505 101.54 62.4705 101.67 62.2305C101.8 61.9905 101.98 61.8005 102.21 61.6605C102.43 61.5205 102.69 61.4505 102.99 61.4505C103.29 61.4505 103.54 61.5205 103.76 61.6505C103.98 61.7905 104.16 61.9705 104.28 62.2105C104.41 62.4505 104.47 62.7305 104.47 63.0505C104.47 63.3705 104.41 63.6405 104.29 63.8805H104.28Z" fill="white"/>
<path d="M107.65 64.6806C107.39 64.6806 107.15 64.6306 106.93 64.5306C106.72 64.4306 106.53 64.2806 106.36 64.0806L105.95 64.4906C106.08 64.6506 106.23 64.7806 106.4 64.9006C106.57 65.0106 106.76 65.1006 106.97 65.1706C107.18 65.2306 107.4 65.2606 107.63 65.2606C108.1 65.2606 108.47 65.1506 108.74 64.9206C109.01 64.7006 109.15 64.3906 109.15 64.0206C109.15 63.7506 109.09 63.5406 108.98 63.3806C108.87 63.2206 108.72 63.0906 108.54 63.0006C108.36 62.9106 108.17 62.8306 107.97 62.7806C107.77 62.7206 107.58 62.6706 107.41 62.6106C107.23 62.5506 107.09 62.4806 106.97 62.3806C106.86 62.2906 106.8 62.1606 106.8 62.0006C106.8 61.8406 106.87 61.7006 107.01 61.5906C107.15 61.4806 107.36 61.4306 107.63 61.4306C107.86 61.4306 108.08 61.4706 108.26 61.5606C108.45 61.6506 108.6 61.7806 108.72 61.9406L109.13 61.5306C108.97 61.3106 108.77 61.1406 108.51 61.0306C108.25 60.9206 107.96 60.8606 107.65 60.8606C107.34 60.8606 107.08 60.9106 106.87 61.0106C106.65 61.1106 106.49 61.2506 106.37 61.4206C106.25 61.6006 106.19 61.8106 106.19 62.0506C106.19 62.3106 106.25 62.5106 106.36 62.6706C106.47 62.8206 106.62 62.9406 106.8 63.0306C106.98 63.1206 107.16 63.1906 107.36 63.2506C107.56 63.3106 107.75 63.3706 107.93 63.4306C108.11 63.4906 108.26 63.5706 108.37 63.6706C108.48 63.7706 108.54 63.9106 108.54 64.0906C108.54 64.2806 108.46 64.4306 108.3 64.5406C108.14 64.6506 107.92 64.7006 107.65 64.7006V64.6806Z" fill="white"/>
<path d="M49.03 117.69H47.19V128.89H49.03V117.69Z" fill="white"/>
<path d="M54.28 128.89H56.12V119.37H59.77V117.69H50.63V119.37H54.28V128.89Z" fill="white"/>
<path d="M59.9 119.37H63.54V128.89H65.38V119.37H69.03V117.69H59.9V119.37Z" fill="white"/>
<path d="M76.72 126.981C76.25 127.191 75.67 127.291 74.98 127.291C74.43 127.291 73.92 127.191 73.46 127.001C73 126.811 72.6 126.531 72.27 126.181C71.94 125.831 71.68 125.401 71.49 124.911C71.31 124.421 71.22 123.881 71.22 123.291C71.22 122.701 71.31 122.161 71.49 121.671C71.67 121.181 71.93 120.751 72.27 120.401C72.61 120.051 73 119.771 73.46 119.581C73.92 119.391 74.42 119.291 74.98 119.291C75.61 119.291 76.16 119.391 76.64 119.591C77.12 119.791 77.52 120.081 77.85 120.441L79.1 119.191C78.59 118.681 78 118.271 77.34 117.971C76.68 117.671 75.89 117.521 74.99 117.521C74.18 117.521 73.43 117.671 72.74 117.971C72.05 118.271 71.45 118.681 70.94 119.201C70.43 119.721 70.03 120.331 69.76 121.031C69.48 121.731 69.34 122.481 69.34 123.281C69.34 124.081 69.48 124.831 69.76 125.531C70.04 126.231 70.43 126.841 70.94 127.371C71.45 127.901 72.05 128.311 72.74 128.601C73.43 128.891 74.18 129.041 74.99 129.041C75.89 129.041 76.68 128.891 77.37 128.591C78.06 128.291 78.67 127.881 79.18 127.361L77.93 126.111C77.6 126.471 77.2 126.761 76.72 126.971V126.981Z" fill="white"/>
<path d="M85.86 128.89H88.42C89.22 128.89 89.89 128.74 90.44 128.45C90.99 128.16 91.41 127.77 91.69 127.29C91.97 126.81 92.11 126.28 92.11 125.71C92.11 125.01 91.91 124.39 91.52 123.87C91.22 123.47 90.83 123.15 90.36 122.88C90.69 122.67 90.96 122.42 91.16 122.14C91.49 121.69 91.65 121.18 91.65 120.59C91.65 120.09 91.53 119.62 91.28 119.18C91.03 118.74 90.66 118.39 90.16 118.11C89.66 117.83 89.03 117.69 88.27 117.69H84.01V128.89H85.85H85.86ZM85.86 119.29H88.23C88.71 119.29 89.09 119.41 89.38 119.66C89.67 119.91 89.81 120.27 89.81 120.75C89.81 121.23 89.67 121.59 89.38 121.84C89.09 122.09 88.71 122.21 88.23 122.21H85.86V119.3V119.29ZM85.86 123.8H88.5C88.87 123.8 89.19 123.88 89.46 124.04C89.73 124.2 89.93 124.41 90.07 124.68C90.21 124.95 90.28 125.23 90.28 125.54C90.28 126 90.13 126.4 89.82 126.76C89.51 127.12 89.07 127.29 88.51 127.29H85.87V123.8H85.86Z" fill="white"/>
<path d="M98.63 128.63C99.13 128.35 99.52 127.95 99.81 127.45C100.09 126.94 100.23 126.35 100.23 125.68V121.22H98.47V125.6C98.47 126.17 98.33 126.6 98.06 126.9C97.79 127.2 97.4 127.36 96.88 127.36C96.55 127.36 96.26 127.29 96.02 127.15C95.78 127.01 95.6 126.81 95.48 126.55C95.36 126.29 95.3 125.97 95.3 125.6V121.22H93.54V125.68C93.54 126.34 93.68 126.93 93.96 127.43C94.24 127.94 94.64 128.33 95.14 128.62C95.65 128.91 96.22 129.05 96.88 129.05C97.54 129.05 98.12 128.91 98.62 128.63H98.63Z" fill="white"/>
<path d="M107.43 126.621C107.43 126.151 107.33 125.771 107.14 125.481C106.95 125.191 106.7 124.951 106.4 124.781C106.1 124.601 105.78 124.471 105.44 124.361C105.1 124.261 104.78 124.171 104.48 124.081C104.18 124.001 103.93 123.891 103.74 123.781C103.55 123.661 103.45 123.501 103.45 123.281C103.45 123.081 103.55 122.921 103.74 122.821C103.93 122.711 104.2 122.661 104.56 122.661C104.93 122.661 105.26 122.731 105.55 122.871C105.84 123.011 106.09 123.221 106.32 123.491L107.44 122.371C107.12 121.931 106.72 121.611 106.25 121.391C105.78 121.171 105.23 121.061 104.61 121.061C104.02 121.061 103.52 121.161 103.1 121.351C102.68 121.541 102.35 121.811 102.12 122.171C101.89 122.521 101.78 122.941 101.78 123.431C101.78 123.891 101.88 124.261 102.07 124.551C102.26 124.841 102.51 125.061 102.81 125.231C103.11 125.401 103.43 125.531 103.77 125.621C104.11 125.721 104.43 125.811 104.73 125.901C105.03 125.991 105.28 126.101 105.47 126.231C105.66 126.361 105.76 126.541 105.76 126.771C105.76 127.001 105.66 127.161 105.46 127.281C105.26 127.401 104.96 127.461 104.56 127.461C104.12 127.461 103.73 127.381 103.38 127.231C103.03 127.081 102.73 126.841 102.46 126.531L101.34 127.651C101.59 127.951 101.87 128.201 102.2 128.411C102.53 128.621 102.89 128.781 103.29 128.891C103.68 129.001 104.09 129.061 104.52 129.061C105.42 129.061 106.13 128.841 106.65 128.401C107.17 127.961 107.43 127.371 107.43 126.621Z" fill="white"/>
<path d="M110.66 121.21H108.9V128.89H110.66V121.21Z" fill="white"/>
<path d="M110.54 117.99C110.35 117.79 110.1 117.69 109.79 117.69C109.48 117.69 109.24 117.79 109.05 117.99C108.85 118.19 108.75 118.44 108.75 118.74C108.75 119.04 108.85 119.29 109.05 119.49C109.25 119.69 109.5 119.79 109.79 119.79C110.08 119.79 110.35 119.69 110.54 119.49C110.73 119.29 110.83 119.04 110.83 118.74C110.83 118.44 110.73 118.19 110.54 117.99Z" fill="white"/>
<path d="M114.39 122.111V121.211H112.63V128.891H114.39V124.461C114.39 124.121 114.47 123.811 114.61 123.551C114.75 123.291 114.97 123.081 115.23 122.931C115.49 122.781 115.8 122.711 116.14 122.711C116.65 122.711 117.07 122.881 117.4 123.211C117.73 123.541 117.89 123.961 117.89 124.471V128.901H119.65V124.081C119.65 123.581 119.52 123.101 119.27 122.631C119.01 122.171 118.66 121.791 118.21 121.491C117.76 121.201 117.25 121.051 116.67 121.051C116.09 121.051 115.6 121.181 115.14 121.441C114.84 121.611 114.59 121.851 114.38 122.111H114.39Z" fill="white"/>
<path d="M126.82 121.551C126.27 121.221 125.64 121.051 124.92 121.051C124.2 121.051 123.51 121.231 122.91 121.581C122.31 121.931 121.83 122.411 121.48 123.011C121.13 123.611 120.95 124.291 120.95 125.051C120.95 125.811 121.13 126.491 121.49 127.101C121.85 127.711 122.33 128.181 122.95 128.531C123.57 128.881 124.25 129.051 125.02 129.051C125.62 129.051 126.18 128.941 126.72 128.711C127.25 128.491 127.71 128.161 128.08 127.721L126.96 126.581C126.73 126.851 126.44 127.051 126.1 127.191C125.76 127.331 125.4 127.401 125 127.401C124.54 127.401 124.14 127.301 123.78 127.101C123.43 126.901 123.16 126.621 122.96 126.261C122.87 126.091 122.8 125.901 122.75 125.701H128.48C128.51 125.541 128.54 125.391 128.55 125.261C128.57 125.131 128.57 125.001 128.57 124.871C128.57 124.131 128.41 123.481 128.1 122.901C127.79 122.321 127.35 121.871 126.8 121.541L126.82 121.551ZM122.77 124.271C122.81 124.091 122.87 123.921 122.95 123.771C123.13 123.421 123.39 123.151 123.72 122.961C124.05 122.771 124.44 122.671 124.89 122.671C125.34 122.671 125.68 122.761 125.97 122.931C126.26 123.101 126.49 123.351 126.65 123.671C126.74 123.851 126.8 124.051 126.85 124.281H122.78L122.77 124.271Z" fill="white"/>
<path d="M133.43 127.271C133.23 127.391 132.93 127.451 132.53 127.451C132.09 127.451 131.7 127.371 131.35 127.221C131 127.071 130.7 126.831 130.43 126.521L129.31 127.641C129.56 127.941 129.84 128.191 130.17 128.401C130.5 128.611 130.86 128.771 131.26 128.881C131.65 128.991 132.06 129.051 132.49 129.051C133.39 129.051 134.1 128.831 134.62 128.391C135.14 127.951 135.4 127.361 135.4 126.611C135.4 126.141 135.3 125.761 135.11 125.471C134.92 125.181 134.67 124.941 134.37 124.771C134.07 124.591 133.75 124.461 133.41 124.351C133.07 124.251 132.75 124.161 132.45 124.071C132.15 123.991 131.9 123.881 131.71 123.771C131.52 123.651 131.42 123.491 131.42 123.271C131.42 123.071 131.52 122.911 131.71 122.811C131.9 122.701 132.17 122.651 132.53 122.651C132.9 122.651 133.23 122.721 133.52 122.861C133.81 123.001 134.06 123.211 134.29 123.481L135.41 122.361C135.09 121.921 134.69 121.601 134.22 121.381C133.75 121.161 133.2 121.051 132.58 121.051C131.99 121.051 131.49 121.151 131.07 121.341C130.65 121.531 130.32 121.801 130.09 122.161C129.86 122.511 129.75 122.931 129.75 123.421C129.75 123.881 129.85 124.251 130.04 124.541C130.23 124.831 130.48 125.051 130.78 125.221C131.08 125.391 131.4 125.521 131.74 125.611C132.08 125.711 132.4 125.801 132.7 125.891C133 125.981 133.25 126.091 133.44 126.221C133.63 126.351 133.73 126.531 133.73 126.761C133.73 126.991 133.63 127.151 133.43 127.271Z" fill="white"/>
<path d="M141.51 128.391C142.03 127.951 142.29 127.361 142.29 126.611C142.29 126.141 142.19 125.761 142 125.471C141.81 125.181 141.56 124.941 141.26 124.771C140.96 124.591 140.64 124.461 140.3 124.351C139.96 124.251 139.64 124.161 139.34 124.071C139.04 123.991 138.79 123.881 138.6 123.771C138.41 123.651 138.31 123.491 138.31 123.271C138.31 123.071 138.41 122.911 138.6 122.811C138.79 122.701 139.06 122.651 139.42 122.651C139.79 122.651 140.12 122.721 140.41 122.861C140.7 123.001 140.95 123.211 141.18 123.481L142.3 122.361C141.98 121.921 141.58 121.601 141.11 121.381C140.64 121.161 140.09 121.051 139.47 121.051C138.88 121.051 138.38 121.151 137.96 121.341C137.54 121.531 137.21 121.801 136.98 122.161C136.75 122.511 136.64 122.931 136.64 123.421C136.64 123.881 136.74 124.251 136.93 124.541C137.12 124.831 137.37 125.051 137.67 125.221C137.97 125.391 138.29 125.521 138.63 125.611C138.97 125.711 139.29 125.801 139.59 125.891C139.89 125.981 140.14 126.091 140.33 126.221C140.52 126.351 140.62 126.531 140.62 126.761C140.62 126.991 140.52 127.151 140.32 127.271C140.12 127.391 139.82 127.451 139.42 127.451C138.98 127.451 138.59 127.371 138.24 127.221C137.89 127.071 137.59 126.831 137.32 126.521L136.2 127.641C136.45 127.941 136.73 128.191 137.06 128.401C137.39 128.611 137.75 128.771 138.15 128.881C138.54 128.991 138.95 129.051 139.38 129.051C140.28 129.051 140.99 128.831 141.51 128.391Z" fill="white"/>
<path d="M31.84 140.98H36.99V139.36H31.84V136.37H37.46V134.69H31.84H31.26H30V145.89H31.26H31.84H37.54V144.21H31.84V140.98Z" fill="white"/>
<path d="M46.03 138.21H44L42.37 140.64L40.69 138.21H38.56L41.25 141.96L38.42 145.89H40.46L42.27 143.25L44.06 145.89H46.18L43.39 141.94L46.03 138.21Z" fill="white"/>
<path d="M49.5 140.041C49.84 139.841 50.22 139.741 50.66 139.741C51.03 139.741 51.38 139.811 51.69 139.941C52 140.071 52.27 140.271 52.5 140.541L53.65 139.371C53.29 138.941 52.85 138.621 52.33 138.391C51.81 138.161 51.26 138.051 50.66 138.051C49.9 138.051 49.22 138.231 48.6 138.581C47.99 138.931 47.5 139.411 47.15 140.011C46.8 140.611 46.62 141.291 46.62 142.051C46.62 142.811 46.8 143.471 47.15 144.081C47.5 144.691 47.98 145.171 48.6 145.521C49.21 145.871 49.9 146.051 50.66 146.051C51.26 146.051 51.81 145.931 52.33 145.711C52.85 145.481 53.29 145.151 53.65 144.731L52.5 143.561C52.28 143.831 52.01 144.031 51.69 144.161C51.38 144.291 51.03 144.361 50.66 144.361C50.22 144.361 49.84 144.261 49.5 144.061C49.16 143.861 48.9 143.591 48.72 143.241C48.53 142.891 48.44 142.501 48.44 142.051C48.44 141.601 48.53 141.191 48.72 140.851C48.91 140.511 49.17 140.241 49.5 140.041Z" fill="white"/>
<path d="M60.12 138.551C59.57 138.221 58.94 138.051 58.22 138.051C57.5 138.051 56.81 138.231 56.21 138.581C55.61 138.931 55.13 139.411 54.78 140.011C54.43 140.611 54.25 141.291 54.25 142.051C54.25 142.811 54.43 143.491 54.79 144.101C55.15 144.711 55.63 145.181 56.25 145.531C56.87 145.881 57.55 146.051 58.32 146.051C58.92 146.051 59.48 145.941 60.02 145.711C60.55 145.491 61.01 145.161 61.38 144.721L60.26 143.581C60.03 143.851 59.74 144.051 59.4 144.191C59.06 144.331 58.7 144.401 58.3 144.401C57.84 144.401 57.44 144.301 57.08 144.101C56.73 143.901 56.46 143.621 56.26 143.261C56.17 143.091 56.1 142.901 56.05 142.701H61.78C61.81 142.541 61.84 142.391 61.85 142.261C61.87 142.131 61.87 142.001 61.87 141.871C61.87 141.131 61.71 140.481 61.4 139.901C61.09 139.321 60.65 138.871 60.1 138.541L60.12 138.551ZM56.08 141.271C56.12 141.091 56.18 140.921 56.26 140.771C56.44 140.421 56.7 140.151 57.03 139.961C57.36 139.771 57.75 139.671 58.2 139.671C58.65 139.671 58.99 139.761 59.28 139.931C59.57 140.101 59.8 140.351 59.96 140.671C60.05 140.851 60.11 141.051 60.16 141.281H56.09L56.08 141.271Z" fill="white"/>
<path d="M65.06 134.371H63.3V145.891H65.06V134.371Z" fill="white"/>
<path d="M68.77 134.371H67.01V145.891H68.77V134.371Z" fill="white"/>
<path d="M76.09 138.551C75.54 138.221 74.91 138.051 74.19 138.051C73.47 138.051 72.78 138.231 72.18 138.581C71.58 138.931 71.1 139.411 70.75 140.011C70.4 140.611 70.22 141.291 70.22 142.051C70.22 142.811 70.4 143.491 70.76 144.101C71.12 144.711 71.6 145.181 72.22 145.531C72.84 145.881 73.52 146.051 74.29 146.051C74.89 146.051 75.45 145.941 75.99 145.711C76.52 145.491 76.98 145.161 77.35 144.721L76.23 143.581C76 143.851 75.71 144.051 75.37 144.191C75.03 144.331 74.67 144.401 74.27 144.401C73.81 144.401 73.41 144.301 73.05 144.101C72.7 143.901 72.43 143.621 72.23 143.261C72.14 143.091 72.07 142.901 72.02 142.701H77.75C77.78 142.541 77.81 142.391 77.82 142.261C77.84 142.131 77.84 142.001 77.84 141.871C77.84 141.131 77.68 140.481 77.37 139.901C77.06 139.321 76.62 138.871 76.07 138.541L76.09 138.551ZM72.04 141.271C72.08 141.091 72.14 140.921 72.22 140.771C72.4 140.421 72.66 140.151 72.99 139.961C73.32 139.771 73.71 139.671 74.16 139.671C74.61 139.671 74.95 139.761 75.24 139.931C75.53 140.101 75.76 140.351 75.92 140.671C76.01 140.851 76.07 141.051 76.12 141.281H72.05L72.04 141.271Z" fill="white"/>
<path d="M84.85 138.491C84.4 138.201 83.89 138.051 83.31 138.051C82.73 138.051 82.24 138.181 81.78 138.441C81.48 138.611 81.23 138.851 81.02 139.111V138.211H79.26V145.891H81.02V141.461C81.02 141.121 81.1 140.811 81.24 140.551C81.38 140.291 81.6 140.081 81.86 139.931C82.12 139.781 82.43 139.711 82.77 139.711C83.28 139.711 83.7 139.881 84.03 140.211C84.36 140.541 84.52 140.961 84.52 141.471V145.901H86.28V141.081C86.28 140.581 86.15 140.101 85.9 139.631C85.64 139.171 85.29 138.791 84.84 138.491H84.85Z" fill="white"/>
<path d="M90.46 140.041C90.8 139.841 91.18 139.741 91.62 139.741C91.99 139.741 92.34 139.811 92.65 139.941C92.96 140.071 93.23 140.271 93.46 140.541L94.61 139.371C94.25 138.941 93.81 138.621 93.29 138.391C92.77 138.161 92.22 138.051 91.62 138.051C90.86 138.051 90.18 138.231 89.56 138.581C88.95 138.931 88.46 139.411 88.11 140.011C87.76 140.611 87.58 141.291 87.58 142.051C87.58 142.811 87.76 143.471 88.11 144.081C88.46 144.691 88.94 145.171 89.56 145.521C90.17 145.871 90.86 146.051 91.62 146.051C92.22 146.051 92.77 145.931 93.29 145.711C93.81 145.481 94.25 145.151 94.61 144.731L93.46 143.561C93.24 143.831 92.97 144.031 92.65 144.161C92.34 144.291 91.99 144.361 91.62 144.361C91.18 144.361 90.8 144.261 90.46 144.061C90.12 143.861 89.86 143.591 89.68 143.241C89.49 142.891 89.4 142.501 89.4 142.051C89.4 141.601 89.49 141.191 89.68 140.851C89.87 140.511 90.13 140.241 90.46 140.041Z" fill="white"/>
<path d="M101.08 138.551C100.53 138.221 99.9 138.051 99.18 138.051C98.46 138.051 97.77 138.231 97.17 138.581C96.57 138.931 96.09 139.411 95.74 140.011C95.39 140.611 95.21 141.291 95.21 142.051C95.21 142.811 95.39 143.491 95.75 144.101C96.11 144.711 96.59 145.181 97.21 145.531C97.83 145.881 98.51 146.051 99.28 146.051C99.88 146.051 100.44 145.941 100.98 145.711C101.51 145.491 101.97 145.161 102.34 144.721L101.22 143.581C100.99 143.851 100.7 144.051 100.36 144.191C100.02 144.331 99.66 144.401 99.26 144.401C98.8 144.401 98.4 144.301 98.04 144.101C97.69 143.901 97.42 143.621 97.22 143.261C97.13 143.091 97.06 142.901 97.01 142.701H102.74C102.77 142.541 102.8 142.391 102.81 142.261C102.83 142.131 102.83 142.001 102.83 141.871C102.83 141.131 102.67 140.481 102.36 139.901C102.05 139.321 101.61 138.871 101.06 138.541L101.08 138.551ZM97.04 141.271C97.08 141.091 97.14 140.921 97.22 140.771C97.4 140.421 97.66 140.151 97.99 139.961C98.32 139.771 98.71 139.671 99.16 139.671C99.61 139.671 99.95 139.761 100.24 139.931C100.53 140.101 100.76 140.351 100.92 140.671C101.01 140.851 101.07 141.051 101.12 141.281H97.05L97.04 141.271Z" fill="white"/>
<path d="M111.02 134.69L106.41 145.89H108.36L109.22 143.73H114.03L114.88 145.89H116.86L112.28 134.69H111H111.02ZM109.87 142.13L111.65 137.67L113.41 142.13H109.87Z" fill="white"/>
<path d="M124.67 143.06L122.91 138.21H121.89L120.13 143.06L118.32 138.21H116.5L119.58 145.89H120.61L122.4 141.31L124.19 145.89H125.22L128.3 138.21H126.48L124.67 143.06Z" fill="white"/>
<path d="M134.78 139.101C134.56 138.841 134.3 138.601 133.99 138.431C133.54 138.181 133.02 138.051 132.43 138.051C131.74 138.051 131.11 138.231 130.55 138.591C129.99 138.951 129.55 139.431 129.22 140.031C128.89 140.631 128.73 141.311 128.73 142.071C128.73 142.831 128.89 143.491 129.22 144.091C129.55 144.691 129.99 145.171 130.55 145.521C131.11 145.871 131.74 146.051 132.43 146.051C133.02 146.051 133.54 145.921 134 145.671C134.31 145.501 134.56 145.271 134.78 145.011V145.891H136.54V138.211H134.78V139.101ZM134.3 143.731C133.9 144.171 133.37 144.391 132.72 144.391C132.29 144.391 131.92 144.291 131.59 144.091C131.26 143.891 131.01 143.621 130.82 143.271C130.63 142.921 130.54 142.511 130.54 142.051C130.54 141.591 130.63 141.191 130.82 140.831C131.01 140.481 131.26 140.201 131.59 140.011C131.92 139.821 132.29 139.711 132.72 139.711C133.15 139.711 133.54 139.811 133.86 140.011C134.19 140.211 134.44 140.481 134.62 140.831C134.8 141.181 134.89 141.591 134.89 142.051C134.89 142.731 134.69 143.291 134.29 143.731H134.3Z" fill="white"/>
<path d="M142.26 138.051C141.38 138.051 140.73 138.351 140.3 138.951C140.28 138.971 140.27 139.001 140.26 139.021V138.211H138.5V145.891H140.26V141.621C140.26 140.961 140.42 140.471 140.74 140.161C141.06 139.851 141.47 139.701 141.96 139.701C142.18 139.701 142.38 139.731 142.55 139.801C142.72 139.861 142.88 139.971 143.01 140.121L144.16 138.941C143.89 138.631 143.61 138.411 143.3 138.271C142.99 138.131 142.64 138.061 142.26 138.061V138.051Z" fill="white"/>
<path d="M150.35 139.101C150.13 138.841 149.87 138.601 149.56 138.431C149.11 138.181 148.59 138.051 148 138.051C147.31 138.051 146.68 138.231 146.12 138.591C145.56 138.951 145.12 139.431 144.79 140.031C144.46 140.631 144.3 141.311 144.3 142.071C144.3 142.831 144.46 143.491 144.79 144.091C145.12 144.691 145.56 145.171 146.12 145.521C146.68 145.871 147.31 146.051 148 146.051C148.59 146.051 149.11 145.921 149.57 145.671C149.88 145.501 150.13 145.271 150.35 145.011V145.891H152.11V134.371H150.35V139.101ZM150.19 143.271C150.01 143.621 149.76 143.901 149.43 144.091C149.1 144.291 148.72 144.391 148.29 144.391C147.86 144.391 147.49 144.291 147.16 144.091C146.83 143.891 146.58 143.621 146.39 143.271C146.2 142.921 146.11 142.511 146.11 142.051C146.11 141.591 146.2 141.191 146.39 140.831C146.58 140.481 146.83 140.201 147.16 140.011C147.49 139.821 147.86 139.711 148.29 139.711C148.72 139.711 149.11 139.811 149.43 140.011C149.76 140.211 150.01 140.481 150.19 140.831C150.37 141.181 150.46 141.591 150.46 142.051C150.46 142.511 150.37 142.911 150.19 143.271Z" fill="white"/>
<path d="M158.46 141.771C158.16 141.591 157.84 141.461 157.5 141.351C157.16 141.251 156.84 141.161 156.54 141.071C156.24 140.991 155.99 140.881 155.8 140.771C155.61 140.651 155.51 140.491 155.51 140.271C155.51 140.071 155.61 139.911 155.8 139.811C155.99 139.701 156.26 139.651 156.62 139.651C156.99 139.651 157.32 139.721 157.61 139.861C157.9 140.001 158.15 140.211 158.38 140.481L159.5 139.361C159.18 138.921 158.78 138.601 158.31 138.381C157.84 138.161 157.29 138.051 156.67 138.051C156.08 138.051 155.58 138.151 155.16 138.341C154.74 138.531 154.41 138.801 154.18 139.161C153.95 139.511 153.84 139.931 153.84 140.421C153.84 140.881 153.94 141.251 154.13 141.541C154.32 141.831 154.57 142.051 154.87 142.221C155.17 142.391 155.49 142.521 155.83 142.611C156.17 142.711 156.49 142.801 156.79 142.891C157.09 142.981 157.34 143.091 157.53 143.221C157.72 143.351 157.82 143.531 157.82 143.761C157.82 143.991 157.72 144.151 157.52 144.271C157.32 144.391 157.02 144.451 156.62 144.451C156.18 144.451 155.79 144.371 155.44 144.221C155.09 144.071 154.79 143.831 154.52 143.521L153.4 144.641C153.65 144.941 153.93 145.191 154.26 145.401C154.59 145.611 154.95 145.771 155.35 145.881C155.74 145.991 156.15 146.051 156.58 146.051C157.48 146.051 158.19 145.831 158.71 145.391C159.23 144.951 159.49 144.361 159.49 143.611C159.49 143.141 159.39 142.761 159.2 142.471C159.01 142.181 158.76 141.941 158.46 141.771Z" fill="white"/>
</svg>
