<svg width="191" height="147" viewBox="0 0 191 147" fill="none" xmlns="http://www.w3.org/2000/svg">
<path d="M124.15 2.23029C126.42 4.30029 126.83 7.55029 126.83 7.55029C126.83 7.55029 123.56 7.44029 121.28 5.37029C119.01 3.30029 118.6 0.050293 118.6 0.050293C118.6 0.050293 121.87 0.160293 124.15 2.23029Z" fill="#D5A46E"/>
<path d="M108.18 78.5704C106.22 81.0804 106.11 84.0404 106.13 84.0504C106.13 84.0904 110.23 82.9403 112.08 80.1703C113.93 77.4403 113.03 74.6104 113.05 74.6104C113.04 74.6404 110.13 76.0803 108.18 78.5603V78.5704Z" fill="#D5A46E"/>
<path d="M111.06 87.2603C107.45 86.6503 106.11 83.9203 106.11 83.9403C106.15 83.9503 110.02 82.8403 113.35 83.2303C116.72 83.6403 118.69 85.7303 118.69 85.7503C118.74 85.7603 114.71 87.8803 111.06 87.2603Z" fill="#D5A46E"/>
<path d="M115.31 75.4403C113.97 78.1903 114.45 81.0703 114.47 81.0703C114.47 81.1103 118.08 79.3103 119.3 76.3303C120.52 73.3803 119.13 70.7903 119.16 70.7903C119.16 70.8203 116.66 72.7103 115.31 75.4403Z" fill="#D5A46E"/>
<path d="M119.72 83.3502C116.21 83.3602 114.43 80.9502 114.43 80.9702C114.47 80.9702 117.86 79.2502 121.09 79.0702C124.36 78.9002 126.64 80.5802 126.65 80.6102C126.69 80.6102 123.27 83.3502 119.72 83.3502Z" fill="#D5A46E"/>
<path d="M121.47 71.2003C120.71 74.0903 121.72 76.7903 121.75 76.7903C121.75 76.8303 124.85 74.4803 125.47 71.3803C126.1 68.3103 124.29 66.0403 124.31 66.0403C124.31 66.0703 122.24 68.3403 121.48 71.2003H121.47Z" fill="#D5A46E"/>
<path d="M127.17 78.1004C123.82 78.7104 121.67 76.6804 121.68 76.7004C121.72 76.7004 124.61 74.4604 127.69 73.7304C130.8 73.0004 133.32 74.2404 133.33 74.2604C133.37 74.2604 130.56 77.4904 127.18 78.1004H127.17Z" fill="#D5A46E"/>
<path d="M126.61 66.0305C126.4 68.9705 127.88 71.4105 127.9 71.4105C127.9 71.4505 130.46 68.6405 130.51 65.5105C130.57 62.4205 128.42 60.5205 128.44 60.5105C128.44 60.5405 126.83 63.1105 126.61 66.0205V66.0305Z" fill="#D5A46E"/>
<path d="M133.38 71.7406C130.25 72.9106 127.81 71.3106 127.82 71.3306C127.85 71.3306 130.23 68.6506 133.09 67.4106C135.98 66.1606 138.66 66.9306 138.66 66.9506C138.7 66.9406 136.53 70.5806 133.37 71.7506L133.38 71.7406Z" fill="#D5A46E"/>
<path d="M130.69 60.1104C130.99 63.0104 132.87 65.1204 132.89 65.1204C132.9 65.1604 134.89 61.9804 134.41 58.9204C133.94 55.8904 131.52 54.4204 131.54 54.4104C131.54 54.4404 130.4 57.2304 130.7 60.1104H130.69Z" fill="#D5A46E"/>
<path d="M138.28 64.4805C135.43 66.1605 132.78 65.0305 132.79 65.0505C132.82 65.0405 134.67 62.0305 137.25 60.3005C139.86 58.5705 142.61 58.8405 142.62 58.8605C142.66 58.8405 141.15 62.7805 138.28 64.4705V64.4805Z" fill="#D5A46E"/>
<path d="M133.66 53.6003C134.45 56.3803 136.64 58.1103 136.65 58.1003C136.67 58.1303 138.08 54.6804 137.1 51.7704C136.14 48.8904 133.51 47.8704 133.53 47.8604C133.54 47.8904 132.89 50.8403 133.66 53.6003Z" fill="#D5A46E"/>
<path d="M141.83 56.5303C139.33 58.6803 136.55 58.0403 136.56 58.0603C136.59 58.0403 137.88 54.7803 140.13 52.6303C142.4 50.4703 145.14 50.2503 145.15 50.2603C145.18 50.2403 144.37 54.3603 141.83 56.5303Z" fill="#D5A46E"/>
<path d="M135.49 46.7003C136.72 49.2903 139.16 50.6003 139.17 50.5803C139.19 50.6103 140 46.9703 138.55 44.2803C137.13 41.6103 134.39 41.0803 134.4 41.0703C134.42 41.0903 134.27 44.1203 135.48 46.7003H135.49Z" fill="#D5A46E"/>
<path d="M143.98 48.1103C141.89 50.6703 139.06 50.5403 139.07 50.5503C139.09 50.5303 139.82 47.1003 141.66 44.5803C143.52 42.0503 146.17 41.3303 146.18 41.3503C146.21 41.3203 146.1 45.5403 143.98 48.1103Z" fill="#D5A46E"/>
<path d="M136.13 39.5704C137.77 41.9104 140.37 42.7504 140.39 42.7404C140.41 42.7704 140.6 39.0304 138.72 36.6304C136.87 34.2504 134.1 34.2104 134.11 34.1904C134.13 34.2104 134.51 37.2404 136.13 39.5704Z" fill="#D5A46E"/>
<path d="M144.67 39.4404C143.05 42.3404 140.26 42.7204 140.27 42.7304C140.29 42.7104 140.43 39.1904 141.8 36.3704C143.19 33.5304 145.65 32.3404 145.67 32.3604C145.7 32.3304 146.31 36.5204 144.67 39.4404Z" fill="#D5A46E"/>
<path d="M135.53 32.3903C137.54 34.4203 140.23 34.7803 140.25 34.7703C140.28 34.7903 139.82 31.0603 137.55 29.0003C135.31 26.9603 132.59 27.4103 132.6 27.3903C132.63 27.4103 133.54 30.3703 135.53 32.3903Z" fill="#D5A46E"/>
<path d="M143.87 30.7204C142.79 33.8904 140.12 34.7704 140.14 34.7804C140.16 34.7604 139.68 31.2504 140.52 28.1904C141.37 25.1204 143.56 23.4904 143.58 23.5004C143.6 23.4704 144.97 27.5404 143.87 30.7304V30.7204Z" fill="#D5A46E"/>
<path d="M133.65 25.3402C136 27.0102 138.69 26.8902 138.7 26.8702C138.74 26.8902 137.6 23.2502 134.99 21.5902C132.4 19.9402 129.81 20.8702 129.82 20.8502C129.85 20.8602 131.33 23.6802 133.65 25.3402Z" fill="#D5A46E"/>
<path d="M141.51 22.1903C141.04 25.5503 138.58 26.9003 138.6 26.9003C138.61 26.8703 137.52 23.4603 137.75 20.2403C138 17.0103 139.82 14.9803 139.84 14.9903C139.86 14.9503 142 18.8003 141.51 22.1803V22.1903Z" fill="#D5A46E"/>
<path d="M130.45 18.6004C133.09 19.8704 135.71 19.2704 135.71 19.2504C135.75 19.2604 133.93 15.8104 131 14.5904C128.11 13.3704 125.73 14.7604 125.74 14.7404C125.78 14.7504 127.84 17.3404 130.45 18.6004Z" fill="#D5A46E"/>
<path d="M137.55 14.0504C137.76 17.5104 135.6 19.2904 135.62 19.3004C135.62 19.2704 133.89 16.0404 133.45 12.7504C133.02 9.45043 134.38 7.09043 134.41 7.09043C134.42 7.05043 137.36 10.5604 137.55 14.0504Z" fill="#D5A46E"/>
<path d="M125.89 12.3504C128.78 13.1804 131.23 12.1204 131.24 12.1004C131.29 12.1004 128.75 8.93043 125.55 8.19043C122.39 7.44043 120.32 9.25043 120.33 9.23043C120.37 9.23043 123.03 11.5304 125.89 12.3604V12.3504Z" fill="#D5A46E"/>
<path d="M131.94 6.53039C132.9 9.99039 131.13 12.1704 131.16 12.1704C131.16 12.1404 128.76 9.17039 127.58 5.92039C126.41 2.63039 127.21 0.000386568 127.24 0.000386568C127.24 -0.0396134 131 3.03039 131.94 6.53039Z" fill="#D5A46E"/>
<path d="M94.56 84.9703L94.62 84.3403C99.88 84.8203 105.12 84.2303 110.2 82.6003C115.15 81.0103 119.73 78.5003 123.82 75.1403C132.3 68.1703 137.77 58.2203 139.22 47.1303C140.41 38.0503 139.8 29.9503 137.41 23.0703C134.84 15.6803 130.27 9.90034 123.83 5.89034L124.17 5.35034C130.74 9.44034 135.4 15.3403 138.02 22.8603C140.44 29.8303 141.06 38.0303 139.86 47.2103C138.39 58.4603 132.84 68.5603 124.23 75.6303C120.08 79.0403 115.43 81.5903 110.4 83.2003C105.24 84.8603 99.91 85.4503 94.57 84.9703H94.56Z" fill="#D5A46E"/>
<path d="M66.7 2.23029C64.43 4.30029 64.02 7.55029 64.02 7.55029C64.02 7.55029 67.29 7.44029 69.57 5.37029C71.84 3.30029 72.25 0.050293 72.25 0.050293C72.25 0.050293 68.98 0.160293 66.7 2.23029Z" fill="#D5A46E"/>
<path d="M82.67 78.5704C84.63 81.0804 84.74 84.0404 84.72 84.0504C84.72 84.0904 80.62 82.9403 78.77 80.1703C76.92 77.4403 77.82 74.6104 77.8 74.6104C77.81 74.6404 80.72 76.0803 82.67 78.5603V78.5704Z" fill="#D5A46E"/>
<path d="M79.79 87.2603C83.4 86.6503 84.74 83.9203 84.74 83.9403C84.7 83.9503 80.83 82.8403 77.5 83.2303C74.13 83.6403 72.16 85.7303 72.16 85.7503C72.11 85.7603 76.14 87.8803 79.79 87.2603Z" fill="#D5A46E"/>
<path d="M75.54 75.4403C76.88 78.1903 76.4 81.0703 76.38 81.0703C76.38 81.1103 72.77 79.3103 71.55 76.3303C70.33 73.3803 71.72 70.7903 71.69 70.7903C71.69 70.8203 74.19 72.7103 75.54 75.4403Z" fill="#D5A46E"/>
<path d="M71.13 83.3502C74.64 83.3602 76.42 80.9502 76.42 80.9702C76.38 80.9702 72.99 79.2502 69.76 79.0702C66.49 78.9002 64.21 80.5802 64.2 80.6102C64.16 80.6102 67.58 83.3502 71.13 83.3502Z" fill="#D5A46E"/>
<path d="M69.38 71.2003C70.14 74.0903 69.13 76.7903 69.1 76.7903C69.1 76.8303 66 74.4803 65.38 71.3803C64.75 68.3103 66.56 66.0403 66.54 66.0403C66.54 66.0703 68.61 68.3403 69.37 71.2003H69.38Z" fill="#D5A46E"/>
<path d="M63.67 78.1004C67.02 78.7104 69.17 76.6804 69.16 76.7004C69.12 76.7004 66.23 74.4604 63.15 73.7304C60.04 73.0004 57.52 74.2404 57.51 74.2604C57.47 74.2604 60.28 77.4904 63.66 78.1004H63.67Z" fill="#D5A46E"/>
<path d="M64.24 66.0305C64.45 68.9705 62.97 71.4105 62.95 71.4105C62.95 71.4505 60.39 68.6405 60.34 65.5105C60.28 62.4205 62.43 60.5205 62.41 60.5105C62.41 60.5405 64.02 63.1105 64.24 66.0205V66.0305Z" fill="#D5A46E"/>
<path d="M57.47 71.7406C60.6 72.9106 63.04 71.3106 63.03 71.3306C63 71.3306 60.62 68.6506 57.76 67.4106C54.87 66.1606 52.19 66.9306 52.19 66.9506C52.15 66.9406 54.32 70.5806 57.48 71.7506L57.47 71.7406Z" fill="#D5A46E"/>
<path d="M60.1599 60.1104C59.8599 63.0104 57.9799 65.1204 57.9599 65.1204C57.9499 65.1604 55.9599 61.9804 56.4399 58.9204C56.9099 55.8904 59.3299 54.4204 59.3099 54.4104C59.3099 54.4404 60.4499 57.2304 60.1499 60.1104H60.1599Z" fill="#D5A46E"/>
<path d="M52.57 64.4805C55.42 66.1605 58.07 65.0305 58.06 65.0505C58.03 65.0405 56.18 62.0305 53.6 60.3005C50.99 58.5705 48.24 58.8405 48.23 58.8605C48.19 58.8405 49.7 62.7805 52.57 64.4705V64.4805Z" fill="#D5A46E"/>
<path d="M57.18 53.6003C56.39 56.3803 54.2 58.1103 54.19 58.1003C54.17 58.1303 52.76 54.6804 53.74 51.7704C54.7 48.8904 57.33 47.8704 57.31 47.8604C57.3 47.8904 57.95 50.8403 57.18 53.6003Z" fill="#D5A46E"/>
<path d="M49.02 56.5303C51.52 58.6803 54.3 58.0403 54.29 58.0603C54.26 58.0403 52.97 54.7803 50.72 52.6303C48.45 50.4703 45.71 50.2503 45.7 50.2603C45.67 50.2403 46.48 54.3603 49.02 56.5303Z" fill="#D5A46E"/>
<path d="M55.36 46.7003C54.13 49.2903 51.69 50.6003 51.68 50.5803C51.66 50.6103 50.85 46.9703 52.3 44.2803C53.72 41.6103 56.46 41.0803 56.45 41.0703C56.43 41.0903 56.58 44.1203 55.37 46.7003H55.36Z" fill="#D5A46E"/>
<path d="M46.87 48.1103C48.96 50.6703 51.79 50.5403 51.78 50.5503C51.76 50.5303 51.03 47.1003 49.19 44.5803C47.33 42.0503 44.68 41.3303 44.67 41.3503C44.64 41.3203 44.75 45.5403 46.87 48.1103Z" fill="#D5A46E"/>
<path d="M54.72 39.5704C53.08 41.9104 50.48 42.7504 50.46 42.7404C50.44 42.7704 50.25 39.0304 52.13 36.6304C53.98 34.2504 56.75 34.2104 56.74 34.1904C56.72 34.2104 56.34 37.2404 54.72 39.5704Z" fill="#D5A46E"/>
<path d="M46.17 39.4404C47.79 42.3404 50.58 42.7204 50.57 42.7304C50.55 42.7104 50.41 39.1904 49.04 36.3704C47.65 33.5304 45.19 32.3404 45.17 32.3604C45.14 32.3304 44.53 36.5204 46.17 39.4404Z" fill="#D5A46E"/>
<path d="M55.32 32.3903C53.31 34.4203 50.62 34.7803 50.6 34.7703C50.57 34.7903 51.03 31.0603 53.3 29.0003C55.54 26.9603 58.26 27.4103 58.25 27.3903C58.22 27.4103 57.31 30.3703 55.32 32.3903Z" fill="#D5A46E"/>
<path d="M46.98 30.7204C48.06 33.8904 50.73 34.7704 50.71 34.7804C50.69 34.7604 51.17 31.2504 50.33 28.1904C49.48 25.1204 47.29 23.4904 47.27 23.5004C47.25 23.4704 45.88 27.5404 46.98 30.7304V30.7204Z" fill="#D5A46E"/>
<path d="M57.19 25.3402C54.84 27.0102 52.15 26.8902 52.14 26.8702C52.1 26.8902 53.24 23.2502 55.85 21.5902C58.44 19.9402 61.03 20.8702 61.02 20.8502C60.99 20.8602 59.51 23.6802 57.19 25.3402Z" fill="#D5A46E"/>
<path d="M49.34 22.1903C49.81 25.5503 52.27 26.9003 52.25 26.9003C52.24 26.8703 53.33 23.4603 53.1 20.2403C52.85 17.0103 51.03 14.9803 51.01 14.9903C50.99 14.9503 48.85 18.8003 49.34 22.1803V22.1903Z" fill="#D5A46E"/>
<path d="M60.39 18.6004C57.75 19.8704 55.13 19.2704 55.13 19.2504C55.09 19.2604 56.91 15.8104 59.84 14.5904C62.73 13.3704 65.11 14.7604 65.1 14.7404C65.06 14.7504 63 17.3404 60.39 18.6004Z" fill="#D5A46E"/>
<path d="M53.3 14.0504C53.09 17.5104 55.25 19.2904 55.23 19.3004C55.23 19.2704 56.96 16.0404 57.4 12.7504C57.83 9.45043 56.47 7.09043 56.44 7.09043C56.43 7.05043 53.49 10.5604 53.3 14.0504Z" fill="#D5A46E"/>
<path d="M64.96 12.3504C62.07 13.1804 59.62 12.1204 59.61 12.1004C59.56 12.1004 62.1 8.93043 65.3 8.19043C68.46 7.44043 70.53 9.25043 70.52 9.23043C70.48 9.23043 67.82 11.5304 64.96 12.3604V12.3504Z" fill="#D5A46E"/>
<path d="M58.91 6.53039C57.95 9.99039 59.72 12.1704 59.69 12.1704C59.69 12.1404 62.09 9.17039 63.27 5.92039C64.44 2.63039 63.63 0.000386568 63.6 0.000386568C63.6 -0.0396134 59.84 3.03039 58.9 6.53039H58.91Z" fill="#D5A46E"/>
<path d="M96.28 84.9703L96.22 84.3403C90.96 84.8203 85.72 84.2303 80.64 82.6003C75.69 81.0103 71.11 78.5003 67.02 75.1403C58.54 68.1703 53.07 58.2203 51.62 47.1303C50.43 38.0503 51.04 29.9503 53.43 23.0703C56 15.6803 60.57 9.90034 67.01 5.89034L66.67 5.35034C60.1 9.44034 55.44 15.3403 52.82 22.8603C50.4 29.8303 49.78 38.0303 50.98 47.2103C52.45 58.4603 58 68.5603 66.61 75.6303C70.76 79.0403 75.41 81.5903 80.44 83.2003C85.6 84.8603 90.93 85.4503 96.27 84.9703H96.28Z" fill="#D5A46E"/>
<path d="M95.23 81.7205L90.42 85.2605L95.23 88.8005L100.05 85.2605L95.23 81.7205Z" fill="#D5A46E"/>
<path d="M95.42 3.02051L97.66 7.55051L102.66 8.28051L99.04 11.8005L99.9 16.7905L95.42 14.4305L90.95 16.7905L91.8 11.8005L88.18 8.28051L93.19 7.55051L95.42 3.02051Z" fill="#D5A46E"/>
<path d="M84.59 35.7005H79.77L82.41 33.0205C82.89 32.5305 83.27 32.0905 83.55 31.7005C83.83 31.3105 84.04 30.9105 84.16 30.5105C84.28 30.1105 84.34 29.6705 84.34 29.1805C84.34 28.4405 84.18 27.8005 83.86 27.2505C83.54 26.7005 83.09 26.2805 82.51 25.9805C81.93 25.6805 81.24 25.5305 80.45 25.5305C79.52 25.5305 78.7 25.7405 77.99 26.1505C77.28 26.5705 76.69 27.1805 76.22 27.9805L77.81 29.3305C78.16 28.7405 78.54 28.3105 78.94 28.0305C79.34 27.7605 79.81 27.6205 80.33 27.6205C80.85 27.6205 81.26 27.7605 81.58 28.0505C81.9 28.3305 82.06 28.7305 82.06 29.2305C82.06 29.4905 82.02 29.7405 81.93 29.9705C81.84 30.2005 81.7 30.4605 81.5 30.7305C81.29 31.0005 81.03 31.3105 80.71 31.6505L76.21 36.3705V37.7005H84.6V35.6905L84.59 35.7005Z" fill="white"/>
<path d="M88.29 37.1205C89.05 37.6405 89.91 37.9005 90.85 37.9005C91.79 37.9005 92.63 37.6405 93.38 37.1305C94.13 36.6205 94.73 35.9005 95.17 34.9705C95.61 34.0405 95.83 32.9505 95.83 31.7005C95.83 30.4505 95.61 29.3605 95.17 28.4405C94.73 27.5205 94.13 26.8005 93.37 26.2905C92.61 25.7805 91.75 25.5205 90.79 25.5205C89.83 25.5205 89.01 25.7805 88.26 26.2905C87.51 26.8005 86.9 27.5205 86.46 28.4405C86.02 29.3605 85.79 30.4405 85.79 31.6805C85.79 32.9205 86.01 34.0205 86.46 34.9505C86.91 35.8805 87.51 36.6005 88.28 37.1205H88.29ZM88.47 29.4505C88.69 28.8505 89 28.4105 89.4 28.1105C89.8 27.8205 90.26 27.6705 90.8 27.6705C91.34 27.6705 91.82 27.8205 92.22 28.1105C92.62 28.4105 92.94 28.8605 93.16 29.4705C93.38 30.0805 93.49 30.8305 93.49 31.7105C93.49 32.5905 93.38 33.3605 93.16 33.9605C92.94 34.5605 92.63 35.0105 92.23 35.3205C91.83 35.6205 91.36 35.7705 90.81 35.7705C90.26 35.7705 89.79 35.6205 89.39 35.3205C88.99 35.0205 88.68 34.5605 88.46 33.9505C88.24 33.3405 88.13 32.5905 88.13 31.6905C88.13 30.7905 88.24 30.0405 88.46 29.4505H88.47Z" fill="white"/>
<path d="M105.28 35.7005H100.46L103.1 33.0205C103.58 32.5305 103.96 32.0905 104.24 31.7005C104.52 31.3105 104.73 30.9105 104.85 30.5105C104.97 30.1105 105.03 29.6705 105.03 29.1805C105.03 28.4405 104.87 27.8005 104.55 27.2505C104.23 26.7005 103.78 26.2805 103.2 25.9805C102.62 25.6805 101.93 25.5305 101.14 25.5305C100.21 25.5305 99.39 25.7405 98.68 26.1505C97.97 26.5705 97.38 27.1805 96.91 27.9805L98.5 29.3305C98.85 28.7405 99.23 28.3105 99.63 28.0305C100.03 27.7605 100.5 27.6205 101.02 27.6205C101.54 27.6205 101.95 27.7605 102.27 28.0505C102.59 28.3305 102.75 28.7305 102.75 29.2305C102.75 29.4905 102.71 29.7405 102.62 29.9705C102.53 30.2005 102.39 30.4605 102.19 30.7305C101.98 31.0005 101.72 31.3105 101.4 31.6505L96.9 36.3705V37.7005H105.29V35.6905L105.28 35.7005Z" fill="white"/>
<path d="M111.27 35.5505C110.94 35.7205 110.55 35.8005 110.09 35.8005C109.6 35.8005 109.15 35.7005 108.72 35.4905C108.3 35.2805 107.98 35.0105 107.75 34.6705L106.22 36.1905C106.67 36.7505 107.24 37.1705 107.91 37.4605C108.58 37.7505 109.32 37.9005 110.13 37.9005C111.04 37.9005 111.83 37.7305 112.5 37.3905C113.17 37.0505 113.7 36.5805 114.08 35.9805C114.46 35.3805 114.65 34.6905 114.65 33.9105C114.65 33.1805 114.5 32.5505 114.22 32.0305C113.93 31.5005 113.54 31.0905 113.04 30.8005C112.6 30.5405 112.1 30.4205 111.57 30.3905L114.48 27.0605V25.7305H106.89V27.7405H111.24L108.73 30.6605V32.0105C108.89 31.9505 109.08 31.9105 109.31 31.8705C109.54 31.8305 109.75 31.8205 109.96 31.8205C110.46 31.8205 110.88 31.9005 111.23 32.0705C111.58 32.2305 111.84 32.4605 112.03 32.7505C112.22 33.0405 112.31 33.3905 112.31 33.8005C112.31 34.2105 112.22 34.5705 112.04 34.8705C111.86 35.1705 111.6 35.4105 111.27 35.5705V35.5505Z" fill="white"/>
<path d="M91.3 50.4305C91.48 50.1805 91.57 49.8805 91.57 49.5305C91.57 49.2405 91.5 48.9705 91.36 48.7405C91.22 48.5105 91.02 48.3205 90.75 48.1805C90.48 48.0405 90.15 47.9705 89.77 47.9705H87.48V54.1605H89.83C90.26 54.1605 90.62 54.0805 90.92 53.9305C91.22 53.7805 91.45 53.5705 91.61 53.3105C91.77 53.0505 91.85 52.7505 91.85 52.4205C91.85 52.0205 91.74 51.6805 91.51 51.3905C91.32 51.1505 91.06 50.9805 90.75 50.8505C90.97 50.7305 91.16 50.5905 91.29 50.4105L91.3 50.4305ZM91.02 51.7905C91.12 51.9705 91.18 52.1705 91.18 52.3905C91.18 52.7305 91.06 53.0205 90.82 53.2405C90.58 53.4705 90.26 53.5805 89.86 53.5805H88.13V51.1905H89.91C90.16 51.1905 90.38 51.2405 90.57 51.3505C90.76 51.4605 90.91 51.6005 91.01 51.7805L91.02 51.7905ZM90.61 50.3505C90.41 50.5305 90.15 50.6205 89.82 50.6205H88.14V48.5605H89.75C90.1 48.5605 90.38 48.6505 90.59 48.8305C90.8 49.0105 90.91 49.2605 90.91 49.5905C90.91 49.9205 90.81 50.1705 90.62 50.3505H90.61Z" fill="white"/>
<path d="M93.73 50.1406C93.4 50.3306 93.14 50.5906 92.95 50.9306C92.76 51.2706 92.67 51.6406 92.67 52.0506C92.67 52.4606 92.77 52.8506 92.96 53.1806C93.15 53.5106 93.42 53.7806 93.76 53.9706C94.1 54.1606 94.47 54.2606 94.89 54.2606C95.23 54.2606 95.54 54.2006 95.84 54.0706C96.13 53.9406 96.38 53.7606 96.58 53.5206L96.17 53.1106C96.02 53.3006 95.84 53.4406 95.62 53.5306C95.4 53.6206 95.17 53.6706 94.92 53.6706C94.6 53.6706 94.32 53.6006 94.08 53.4606C93.84 53.3206 93.65 53.1306 93.51 52.8806C93.41 52.7006 93.36 52.5006 93.34 52.2906H96.79C96.81 52.2106 96.82 52.1306 96.83 52.0706C96.83 52.0106 96.83 51.9506 96.83 51.9006C96.83 51.5006 96.74 51.1406 96.57 50.8306C96.4 50.5206 96.16 50.2806 95.87 50.1106C95.58 49.9406 95.23 49.8506 94.84 49.8506C94.45 49.8506 94.06 49.9506 93.73 50.1406ZM96.04 51.1506C96.13 51.3206 96.17 51.5306 96.18 51.7506H93.32C93.35 51.5506 93.39 51.3606 93.48 51.2006C93.61 50.9606 93.79 50.7806 94.02 50.6406C94.25 50.5106 94.51 50.4406 94.82 50.4406C95.11 50.4406 95.36 50.5006 95.56 50.6306C95.77 50.7506 95.93 50.9306 96.04 51.1606V51.1506Z" fill="white"/>
<path d="M99.09 50.4306C99.32 50.4306 99.54 50.4706 99.72 50.5606C99.91 50.6506 100.06 50.7806 100.18 50.9406L100.59 50.5306C100.43 50.3106 100.23 50.1406 99.97 50.0306C99.71 49.9206 99.42 49.8606 99.11 49.8606C98.8 49.8606 98.54 49.9106 98.33 50.0106C98.11 50.1106 97.95 50.2506 97.83 50.4206C97.71 50.6006 97.65 50.8106 97.65 51.0406C97.65 51.3006 97.71 51.5006 97.82 51.6606C97.93 51.8106 98.08 51.9306 98.26 52.0206C98.44 52.1106 98.62 52.1806 98.82 52.2406C99.02 52.3006 99.21 52.3606 99.39 52.4206C99.57 52.4806 99.72 52.5606 99.83 52.6606C99.94 52.7606 100 52.9006 100 53.0806C100 53.2706 99.92 53.4206 99.76 53.5306C99.6 53.6406 99.38 53.6906 99.11 53.6906C98.84 53.6906 98.61 53.6406 98.39 53.5406C98.17 53.4406 97.99 53.2906 97.82 53.0806L97.41 53.4906C97.54 53.6506 97.69 53.7806 97.86 53.9006C98.03 54.0106 98.22 54.1006 98.43 54.1706C98.64 54.2306 98.86 54.2606 99.09 54.2606C99.56 54.2606 99.93 54.1506 100.2 53.9206C100.47 53.7006 100.61 53.3906 100.61 53.0206C100.61 52.7506 100.55 52.5406 100.44 52.3806C100.33 52.2206 100.18 52.0906 100 52.0006C99.82 51.9106 99.63 51.8306 99.43 51.7706C99.23 51.7106 99.04 51.6606 98.87 51.6006C98.69 51.5406 98.55 51.4706 98.43 51.3806C98.31 51.2906 98.26 51.1606 98.26 51.0006C98.26 50.8406 98.33 50.7006 98.47 50.5906C98.61 50.4806 98.82 50.4306 99.09 50.4306Z" fill="white"/>
<path d="M102.25 48.1604V49.9404H101.19V50.5204H102.25V54.1704H102.89V50.5204H103.95V49.9404H102.89V48.1604H102.25Z" fill="white"/>
<path d="M83.09 57.8906C82.73 57.8906 82.41 57.9506 82.12 58.0806C81.83 58.2106 81.61 58.3906 81.45 58.6306C81.29 58.8706 81.21 59.1606 81.21 59.4906C81.21 59.8106 81.27 60.0706 81.38 60.2806C81.49 60.4906 81.64 60.6606 81.83 60.7806C82.01 60.9106 82.21 61.0206 82.44 61.1006C82.66 61.1906 82.88 61.2706 83.1 61.3506C83.32 61.4306 83.52 61.5206 83.71 61.6206C83.9 61.7206 84.04 61.8506 84.16 62.0106C84.27 62.1706 84.33 62.3706 84.33 62.6206C84.33 62.9406 84.21 63.1906 83.96 63.3706C83.72 63.5506 83.4 63.6406 83 63.6406C82.6 63.6406 82.28 63.5706 82.01 63.4206C81.73 63.2806 81.49 63.0606 81.28 62.7606L80.82 63.2106C81.08 63.5506 81.38 63.8006 81.73 63.9806C82.08 64.1606 82.5 64.2506 82.98 64.2506C83.6 64.2506 84.1 64.1006 84.46 63.8006C84.82 63.5006 85 63.0906 85 62.5506C85 62.2206 84.94 61.9506 84.83 61.7406C84.72 61.5306 84.57 61.3506 84.38 61.2106C84.2 61.0706 83.99 60.9606 83.77 60.8706C83.55 60.7806 83.33 60.7006 83.11 60.6206C82.89 60.5406 82.69 60.4606 82.5 60.3606C82.31 60.2606 82.17 60.1506 82.05 60.0006C81.93 59.8506 81.88 59.6706 81.88 59.4406C81.88 59.1406 81.99 58.9106 82.2 58.7406C82.41 58.5706 82.7 58.4906 83.06 58.4906C83.36 58.4906 83.62 58.5506 83.85 58.6606C84.08 58.7806 84.29 58.9506 84.48 59.1906L84.94 58.7306C84.73 58.4706 84.47 58.2606 84.15 58.1006C83.84 57.9406 83.48 57.8706 83.07 57.8706L83.09 57.8906Z" fill="white"/>
<path d="M86.74 64.1704H87.38V60.5204H88.44V59.9404H87.38V58.1604H86.74V59.9404H85.68V60.5204H86.74V64.1704Z" fill="white"/>
<path d="M90.98 64.2606C91.3 64.2606 91.59 64.1906 91.84 64.0706C92.09 63.9506 92.3 63.7606 92.46 63.5306C92.48 63.5106 92.48 63.4806 92.5 63.4506V64.1806H93.14V59.9506H92.5V60.6606C92.5 60.6606 92.48 60.6106 92.46 60.5906C92.3 60.3606 92.09 60.1806 91.84 60.0506C91.58 59.9206 91.3 59.8606 90.97 59.8606C90.57 59.8606 90.22 59.9606 89.9 60.1506C89.59 60.3506 89.33 60.6106 89.15 60.9406C88.96 61.2706 88.87 61.6506 88.87 62.0706C88.87 62.4906 88.96 62.8606 89.15 63.1906C89.34 63.5206 89.59 63.7806 89.91 63.9806C90.23 64.1806 90.58 64.2706 90.98 64.2706V64.2606ZM89.53 62.0606C89.53 61.7506 89.6 61.4706 89.73 61.2306C89.86 60.9906 90.05 60.8006 90.28 60.6606C90.51 60.5206 90.77 60.4506 91.07 60.4506C91.37 60.4506 91.62 60.5206 91.84 60.6506C92.06 60.7806 92.23 60.9706 92.35 61.2106C92.47 61.4506 92.53 61.7306 92.53 62.0506C92.53 62.5306 92.4 62.9206 92.13 63.2106C91.87 63.5006 91.51 63.6506 91.07 63.6506C90.78 63.6506 90.51 63.5806 90.28 63.4406C90.05 63.3006 89.86 63.1106 89.73 62.8706C89.59 62.6306 89.53 62.3506 89.53 62.0406V62.0606Z" fill="white"/>
<path d="M94.4 59.9406V64.1706H95.04V61.7006C95.04 61.2906 95.14 60.9706 95.35 60.7606C95.55 60.5506 95.82 60.4406 96.14 60.4406C96.3 60.4406 96.44 60.4606 96.56 60.5106C96.68 60.5606 96.79 60.6406 96.89 60.7406L97.31 60.3006C97.16 60.1406 97 60.0206 96.82 59.9406C96.65 59.8606 96.45 59.8306 96.24 59.8306C95.78 59.8306 95.43 59.9906 95.16 60.3006C95.1 60.3706 95.07 60.4706 95.03 60.5506V59.9306H94.39L94.4 59.9406Z" fill="white"/>
<path d="M99.22 64.1704V60.5204H100.28V59.9404H99.22V58.1604H98.58V59.9404H97.52V60.5204H98.58V64.1704H99.22Z" fill="white"/>
<path d="M101.04 62.4004C101.04 62.7704 101.12 63.0904 101.27 63.3704C101.42 63.6504 101.63 63.8704 101.9 64.0304C102.17 64.1904 102.48 64.2704 102.82 64.2704C103.16 64.2704 103.48 64.1904 103.75 64.0404C104.02 63.8804 104.22 63.6604 104.37 63.3804C104.52 63.1004 104.6 62.7704 104.6 62.4104V59.9504H103.96V62.3804C103.96 62.7704 103.86 63.0804 103.65 63.3204C103.44 63.5604 103.17 63.6704 102.81 63.6704C102.58 63.6704 102.38 63.6204 102.21 63.5104C102.04 63.4004 101.9 63.2504 101.81 63.0604C101.72 62.8704 101.67 62.6404 101.67 62.3904V59.9604H101.03V62.4204L101.04 62.4004Z" fill="white"/>
<path d="M106.41 63.4306C106.41 63.4306 106.44 63.4906 106.46 63.5206C106.63 63.7506 106.84 63.9306 107.09 64.0606C107.34 64.1906 107.64 64.2606 107.96 64.2606C108.35 64.2606 108.7 64.1606 109.02 63.9706C109.34 63.7806 109.58 63.5106 109.76 63.1806C109.94 62.8506 110.03 62.4806 110.03 62.0606C110.03 61.6406 109.94 61.2606 109.75 60.9306C109.57 60.6006 109.32 60.3306 109.01 60.1406C108.7 59.9506 108.35 59.8506 107.96 59.8506C107.65 59.8506 107.36 59.9106 107.1 60.0406C106.84 60.1706 106.62 60.3406 106.46 60.5806C106.44 60.6106 106.43 60.6506 106.41 60.6806V59.9506H105.77V65.9606H106.41V63.4306ZM106.56 61.2206C106.69 60.9806 106.86 60.7906 107.09 60.6506C107.31 60.5206 107.57 60.4506 107.87 60.4506C108.17 60.4506 108.42 60.5206 108.65 60.6506C108.87 60.7806 109.05 60.9706 109.19 61.2206C109.32 61.4606 109.39 61.7406 109.39 62.0506C109.39 62.3606 109.32 62.6406 109.19 62.8806C109.06 63.1206 108.88 63.3106 108.65 63.4506C108.42 63.5906 108.16 63.6506 107.86 63.6506C107.56 63.6506 107.32 63.5806 107.09 63.4506C106.87 63.3206 106.69 63.1306 106.57 62.8806C106.45 62.6306 106.38 62.3606 106.38 62.0506C106.38 61.7406 106.44 61.4606 106.57 61.2206H106.56Z" fill="white"/>
<path d="M50.77 121.811L55.33 110.611H53.36L50.15 118.781L46.96 110.611H44.96L49.49 121.811H50.77Z" fill="white"/>
<path d="M57.58 112.721C57.89 112.721 58.14 112.621 58.33 112.421C58.52 112.221 58.62 111.971 58.62 111.671C58.62 111.371 58.52 111.121 58.33 110.921C58.14 110.721 57.89 110.621 57.58 110.621C57.27 110.621 57.03 110.721 56.84 110.921C56.64 111.121 56.54 111.371 56.54 111.671C56.54 111.971 56.64 112.221 56.84 112.421C57.04 112.621 57.29 112.721 57.58 112.721Z" fill="white"/>
<path d="M58.46 114.131H56.7V121.811H58.46V114.131Z" fill="white"/>
<path d="M61.5 112.721C61.81 112.721 62.06 112.621 62.25 112.421C62.44 112.221 62.54 111.971 62.54 111.671C62.54 111.371 62.44 111.121 62.25 110.921C62.06 110.721 61.81 110.621 61.5 110.621C61.19 110.621 60.95 110.721 60.76 110.921C60.56 111.121 60.46 111.371 60.46 111.671C60.46 111.971 60.56 112.221 60.76 112.421C60.96 112.621 61.2 112.721 61.5 112.721Z" fill="white"/>
<path d="M60.99 124.861C61.4 124.651 61.72 124.351 61.97 123.951C62.22 123.551 62.35 123.061 62.35 122.471V114.131H60.59V122.481C60.59 122.821 60.49 123.081 60.28 123.261C60.07 123.441 59.82 123.521 59.54 123.521C59.31 123.521 59.11 123.481 58.95 123.401C58.79 123.321 58.65 123.191 58.52 123.021L57.38 124.161C57.67 124.491 57.99 124.741 58.33 124.911C58.68 125.081 59.12 125.171 59.67 125.171C60.15 125.171 60.59 125.071 61 124.861H60.99Z" fill="white"/>
<path d="M71.63 121.81V114.13H69.87V115.02C69.65 114.76 69.39 114.52 69.08 114.35C68.63 114.1 68.11 113.97 67.52 113.97C66.83 113.97 66.2 114.15 65.64 114.51C65.08 114.87 64.64 115.35 64.31 115.95C63.98 116.55 63.82 117.23 63.82 117.99C63.82 118.75 63.98 119.41 64.31 120.01C64.64 120.61 65.08 121.09 65.64 121.44C66.2 121.79 66.83 121.97 67.52 121.97C68.11 121.97 68.63 121.85 69.09 121.59C69.4 121.42 69.65 121.19 69.87 120.93V121.81H71.63ZM69.38 119.65C68.98 120.09 68.45 120.31 67.8 120.31C67.37 120.31 67 120.21 66.67 120.01C66.34 119.81 66.09 119.54 65.9 119.19C65.71 118.84 65.62 118.43 65.62 117.97C65.62 117.51 65.71 117.11 65.9 116.75C66.09 116.39 66.34 116.12 66.67 115.93C67 115.73 67.37 115.63 67.8 115.63C68.23 115.63 68.62 115.73 68.94 115.93C69.27 116.13 69.52 116.4 69.7 116.75C69.88 117.1 69.97 117.51 69.97 117.97C69.97 118.65 69.77 119.21 69.37 119.65H69.38Z" fill="white"/>
<path d="M73.78 125.011H75.73L77.15 121.891L80.72 114.131H78.77L76.69 119.141L74.72 114.131H72.78L75.7 121.041L73.78 125.011Z" fill="white"/>
<path d="M86.86 114.47C86.31 114.14 85.68 113.97 84.96 113.97C84.24 113.97 83.55 114.15 82.95 114.5C82.35 114.85 81.87 115.33 81.52 115.93C81.17 116.53 80.99 117.21 80.99 117.97C80.99 118.73 81.17 119.41 81.53 120.02C81.89 120.63 82.37 121.11 82.99 121.45C83.61 121.79 84.29 121.97 85.06 121.97C85.66 121.97 86.22 121.86 86.76 121.63C87.29 121.41 87.75 121.08 88.12 120.64L87 119.5C86.77 119.77 86.48 119.97 86.14 120.11C85.8 120.25 85.44 120.32 85.04 120.32C84.58 120.32 84.18 120.22 83.82 120.02C83.47 119.82 83.2 119.54 83 119.18C82.91 119.01 82.84 118.82 82.79 118.62H88.52C88.55 118.46 88.57 118.31 88.59 118.18C88.61 118.05 88.61 117.92 88.61 117.79C88.61 117.05 88.45 116.4 88.14 115.82C87.83 115.24 87.39 114.79 86.85 114.46L86.86 114.47ZM82.81 117.19C82.85 117.01 82.91 116.84 82.99 116.69C83.17 116.34 83.43 116.07 83.76 115.88C84.09 115.69 84.48 115.59 84.93 115.59C85.38 115.59 85.72 115.68 86.01 115.85C86.3 116.02 86.53 116.27 86.69 116.59C86.78 116.77 86.84 116.97 86.89 117.2H82.82L82.81 117.19Z" fill="white"/>
<path d="M91.53 121.45C92.14 121.8 92.83 121.97 93.6 121.97C94.2 121.97 94.76 121.86 95.3 121.63C95.83 121.41 96.29 121.08 96.66 120.64L95.54 119.5C95.3 119.77 95.02 119.97 94.68 120.11C94.34 120.25 93.98 120.32 93.58 120.32C93.12 120.32 92.72 120.22 92.37 120.02C92.02 119.82 91.75 119.54 91.55 119.18C91.46 119.01 91.39 118.82 91.34 118.62H97.07C97.1 118.46 97.13 118.31 97.14 118.18C97.16 118.05 97.16 117.92 97.16 117.79C97.16 117.05 97 116.4 96.69 115.82C96.37 115.24 95.94 114.79 95.39 114.46C94.84 114.13 94.21 113.96 93.49 113.96C92.77 113.96 92.08 114.14 91.48 114.49C90.88 114.84 90.4 115.32 90.05 115.92C89.7 116.52 89.52 117.2 89.52 117.96C89.52 118.72 89.7 119.4 90.06 120.01C90.42 120.62 90.9 121.1 91.52 121.44L91.53 121.45ZM91.54 116.68C91.72 116.33 91.98 116.06 92.31 115.87C92.64 115.68 93.03 115.58 93.48 115.58C93.93 115.58 94.27 115.67 94.56 115.84C94.85 116.01 95.08 116.26 95.24 116.58C95.33 116.76 95.39 116.96 95.44 117.19H91.37C91.41 117.01 91.47 116.84 91.55 116.69L91.54 116.68Z" fill="white"/>
<path d="M103.85 121.811H106.41C107.21 121.811 107.88 121.661 108.43 121.371C108.98 121.081 109.4 120.691 109.68 120.211C109.96 119.731 110.1 119.201 110.1 118.631C110.1 117.931 109.9 117.311 109.51 116.791C109.21 116.391 108.82 116.071 108.34 115.801C108.67 115.591 108.94 115.341 109.14 115.061C109.47 114.611 109.63 114.091 109.63 113.511C109.63 113.011 109.51 112.541 109.26 112.101C109.01 111.661 108.64 111.311 108.14 111.031C107.64 110.751 107.01 110.611 106.25 110.611H101.99V121.811H103.83H103.85ZM103.85 112.211H106.22C106.7 112.211 107.08 112.331 107.37 112.581C107.66 112.831 107.8 113.191 107.8 113.671C107.8 114.151 107.66 114.511 107.37 114.761C107.08 115.011 106.7 115.131 106.22 115.131H103.85V112.221V112.211ZM103.85 116.721H106.49C106.86 116.721 107.18 116.801 107.45 116.961C107.72 117.121 107.92 117.331 108.06 117.601C108.2 117.871 108.27 118.151 108.27 118.461C108.27 118.921 108.11 119.321 107.81 119.681C107.5 120.031 107.06 120.211 106.5 120.211H103.86V116.721H103.85Z" fill="white"/>
<path d="M113.49 115.031V110.291H111.73V121.811H113.49V117.381C113.49 117.041 113.56 116.731 113.71 116.471C113.86 116.201 114.07 116.001 114.33 115.851C114.6 115.701 114.9 115.631 115.24 115.631C115.75 115.631 116.17 115.801 116.5 116.131C116.83 116.461 116.99 116.881 116.99 117.391V121.821H118.75V117.001C118.75 116.401 118.62 115.881 118.37 115.421C118.11 114.971 117.76 114.611 117.31 114.361C116.86 114.101 116.35 113.981 115.77 113.981C115.19 113.981 114.69 114.111 114.24 114.371C113.94 114.541 113.69 114.781 113.48 115.041L113.49 115.031Z" fill="white"/>
<path d="M125.33 121.6C125.64 121.43 125.89 121.2 126.11 120.94V121.82H127.87V114.14H126.11V115.03C125.89 114.77 125.63 114.53 125.32 114.36C124.87 114.11 124.35 113.98 123.76 113.98C123.07 113.98 122.44 114.16 121.88 114.52C121.32 114.88 120.88 115.36 120.55 115.96C120.22 116.56 120.06 117.24 120.06 118C120.06 118.76 120.22 119.42 120.55 120.02C120.87 120.62 121.32 121.1 121.88 121.45C122.44 121.8 123.07 121.98 123.76 121.98C124.35 121.98 124.87 121.86 125.33 121.6ZM122.15 119.19C121.96 118.84 121.87 118.43 121.87 117.97C121.87 117.51 121.96 117.11 122.15 116.75C122.34 116.39 122.59 116.12 122.92 115.93C123.25 115.73 123.62 115.63 124.05 115.63C124.48 115.63 124.87 115.73 125.19 115.93C125.51 116.13 125.77 116.4 125.95 116.75C126.13 117.1 126.22 117.51 126.22 117.97C126.22 118.65 126.02 119.21 125.62 119.65C125.22 120.09 124.69 120.31 124.04 120.31C123.61 120.31 123.24 120.21 122.91 120.01C122.58 119.81 122.33 119.54 122.14 119.19H122.15Z" fill="white"/>
<path d="M132.96 119.041L130.86 114.131H128.91L132.41 121.811H133.44L136.94 114.131H135.07L132.96 119.041Z" fill="white"/>
<path d="M143.3 115.02C143.08 114.76 142.82 114.52 142.51 114.35C142.06 114.1 141.54 113.97 140.95 113.97C140.26 113.97 139.63 114.15 139.07 114.51C138.51 114.87 138.07 115.35 137.74 115.95C137.41 116.55 137.25 117.23 137.25 117.99C137.25 118.75 137.41 119.41 137.74 120.01C138.07 120.61 138.51 121.09 139.07 121.44C139.63 121.79 140.26 121.97 140.95 121.97C141.54 121.97 142.06 121.85 142.52 121.59C142.83 121.42 143.08 121.19 143.31 120.93V121.81H145.07V114.13H143.31V115.02H143.3ZM142.81 119.65C142.41 120.09 141.88 120.31 141.23 120.31C140.8 120.31 140.43 120.21 140.1 120.01C139.77 119.81 139.52 119.54 139.33 119.19C139.14 118.84 139.05 118.43 139.05 117.97C139.05 117.51 139.14 117.11 139.33 116.75C139.52 116.4 139.77 116.12 140.1 115.93C140.43 115.74 140.8 115.63 141.23 115.63C141.66 115.63 142.05 115.73 142.37 115.93C142.69 116.13 142.95 116.4 143.13 116.75C143.31 117.1 143.4 117.51 143.4 117.97C143.4 118.65 143.2 119.21 142.8 119.65H142.81Z" fill="white"/>
<path d="M6.34 132.801C6.67 132.591 6.94 132.341 7.14 132.061C7.47 131.611 7.63 131.091 7.63 130.511C7.63 130.011 7.51 129.541 7.26 129.101C7.01 128.661 6.64 128.311 6.14 128.031C5.64 127.751 5.01 127.611 4.25 127.611H0V138.811H4.4C5.2 138.811 5.87 138.661 6.42 138.371C6.97 138.081 7.39 137.691 7.67 137.211C7.95 136.731 8.09 136.201 8.09 135.631C8.09 134.931 7.89 134.311 7.5 133.791C7.2 133.391 6.81 133.071 6.33 132.801H6.34ZM1.84 129.211H4.21C4.69 129.211 5.07 129.331 5.36 129.581C5.65 129.831 5.79 130.191 5.79 130.671C5.79 131.151 5.65 131.511 5.36 131.761C5.07 132.011 4.69 132.131 4.21 132.131H1.84V129.221V129.211ZM5.79 136.681C5.48 137.031 5.04 137.211 4.48 137.211H1.84V133.721H4.48C4.85 133.721 5.17 133.801 5.44 133.961C5.71 134.121 5.91 134.331 6.05 134.601C6.19 134.871 6.26 135.151 6.26 135.461C6.26 135.921 6.11 136.321 5.8 136.681H5.79Z" fill="white"/>
<path d="M15.08 131.47C14.53 131.14 13.9 130.97 13.18 130.97C12.46 130.97 11.77 131.15 11.17 131.5C10.57 131.85 10.09 132.33 9.74002 132.93C9.39002 133.53 9.21002 134.21 9.21002 134.97C9.21002 135.73 9.39002 136.41 9.75002 137.02C10.11 137.63 10.59 138.11 11.21 138.45C11.82 138.8 12.51 138.97 13.28 138.97C13.88 138.97 14.44 138.86 14.98 138.63C15.51 138.41 15.97 138.08 16.34 137.64L15.22 136.5C14.99 136.77 14.7 136.97 14.36 137.11C14.02 137.25 13.66 137.32 13.26 137.32C12.8 137.32 12.4 137.22 12.04 137.02C11.68 136.82 11.42 136.54 11.22 136.18C11.13 136.01 11.06 135.82 11.01 135.62H16.74C16.77 135.46 16.8 135.31 16.81 135.18C16.83 135.05 16.83 134.92 16.83 134.79C16.83 134.05 16.67 133.4 16.36 132.82C16.05 132.24 15.61 131.79 15.06 131.46L15.08 131.47ZM11.04 134.19C11.08 134.01 11.14 133.84 11.22 133.69C11.4 133.34 11.66 133.07 11.99 132.88C12.32 132.69 12.71 132.59 13.16 132.59C13.61 132.59 13.95 132.68 14.24 132.85C14.53 133.02 14.76 133.27 14.92 133.59C15.01 133.77 15.07 133.97 15.12 134.2H11.05L11.04 134.19Z" fill="white"/>
<path d="M19.98 132.73C20.17 132.62 20.44 132.57 20.8 132.57C21.17 132.57 21.5 132.64 21.79 132.78C22.08 132.92 22.33 133.13 22.56 133.4L23.68 132.28C23.36 131.84 22.96 131.51 22.49 131.3C22.02 131.08 21.47 130.97 20.85 130.97C20.26 130.97 19.76 131.07 19.34 131.26C18.92 131.45 18.59 131.72 18.36 132.08C18.13 132.43 18.02 132.85 18.02 133.34C18.02 133.8 18.12 134.17 18.31 134.46C18.5 134.75 18.75 134.97 19.05 135.14C19.35 135.31 19.67 135.44 20.01 135.53C20.35 135.63 20.67 135.72 20.97 135.81C21.27 135.9 21.52 136.01 21.71 136.14C21.9 136.27 22 136.45 22 136.68C22 136.91 21.9 137.08 21.7 137.19C21.5 137.3 21.2 137.37 20.8 137.37C20.36 137.37 19.97 137.29 19.62 137.14C19.27 136.99 18.97 136.75 18.7 136.44L17.58 137.56C17.83 137.86 18.11 138.11 18.44 138.32C18.77 138.53 19.13 138.69 19.53 138.8C19.93 138.91 20.34 138.97 20.76 138.97C21.66 138.97 22.37 138.75 22.89 138.31C23.41 137.87 23.67 137.28 23.67 136.53C23.67 136.06 23.57 135.68 23.38 135.39C23.19 135.1 22.94 134.86 22.64 134.68C22.34 134.5 22.02 134.37 21.68 134.26C21.34 134.16 21.02 134.07 20.72 133.98C20.42 133.89 20.17 133.79 19.98 133.68C19.79 133.56 19.69 133.4 19.69 133.18C19.69 132.96 19.79 132.82 19.98 132.72V132.73Z" fill="white"/>
<path d="M28.06 127.93H26.3V131.13H24.46V132.73H26.3V138.81H28.06V132.73H29.9V131.13H28.06V127.93Z" fill="white"/>
<path d="M40.63 133.25C40.32 133 39.97 132.79 39.59 132.63C39.21 132.47 38.83 132.33 38.45 132.2C38.07 132.07 37.72 131.94 37.41 131.79C37.1 131.64 36.84 131.47 36.65 131.26C36.46 131.05 36.36 130.78 36.36 130.44C36.36 130.03 36.52 129.72 36.83 129.5C37.14 129.28 37.58 129.16 38.13 129.16C38.58 129.16 38.98 129.25 39.32 129.42C39.67 129.6 40 129.87 40.32 130.23L41.57 128.98C41.21 128.53 40.74 128.16 40.15 127.88C39.57 127.59 38.91 127.45 38.17 127.45C37.49 127.45 36.87 127.57 36.31 127.82C35.75 128.07 35.31 128.42 34.99 128.88C34.67 129.34 34.5 129.91 34.5 130.57C34.5 131.15 34.6 131.62 34.79 131.99C34.98 132.36 35.23 132.67 35.55 132.9C35.86 133.13 36.21 133.33 36.59 133.48C36.97 133.63 37.35 133.77 37.73 133.9C38.11 134.02 38.46 134.16 38.77 134.32C39.08 134.47 39.34 134.67 39.53 134.9C39.72 135.13 39.82 135.44 39.82 135.81C39.82 136.26 39.64 136.61 39.27 136.87C38.9 137.13 38.41 137.25 37.79 137.25C37.13 137.25 36.58 137.13 36.16 136.87C35.73 136.62 35.37 136.27 35.06 135.82L33.81 137.07C34.3 137.69 34.86 138.16 35.47 138.48C36.08 138.8 36.84 138.96 37.73 138.96C38.94 138.96 39.89 138.67 40.6 138.08C41.31 137.49 41.66 136.7 41.66 135.7C41.66 135.1 41.56 134.61 41.37 134.21C41.18 133.82 40.92 133.49 40.61 133.24L40.63 133.25Z" fill="white"/>
<path d="M46.21 127.93H44.45V131.13H42.61V132.73H44.45V138.81H46.21V132.73H48.05V131.13H46.21V127.93Z" fill="white"/>
<path d="M54.67 132.02C54.45 131.76 54.19 131.52 53.88 131.35C53.43 131.1 52.91 130.97 52.32 130.97C51.63 130.97 51 131.15 50.44 131.51C49.88 131.87 49.44 132.35 49.11 132.95C48.78 133.55 48.62 134.23 48.62 134.99C48.62 135.75 48.78 136.41 49.11 137.01C49.44 137.61 49.88 138.09 50.44 138.44C51 138.79 51.63 138.97 52.32 138.97C52.91 138.97 53.43 138.85 53.89 138.59C54.2 138.42 54.45 138.19 54.67 137.93V138.81H56.43V131.13H54.67V132.02ZM54.18 136.65C53.78 137.09 53.25 137.31 52.6 137.31C52.17 137.31 51.8 137.21 51.47 137.01C51.14 136.81 50.89 136.54 50.7 136.19C50.51 135.84 50.42 135.43 50.42 134.97C50.42 134.51 50.51 134.11 50.7 133.75C50.89 133.39 51.14 133.12 51.47 132.93C51.8 132.73 52.17 132.63 52.6 132.63C53.03 132.63 53.42 132.73 53.74 132.93C54.07 133.13 54.32 133.4 54.5 133.75C54.68 134.1 54.77 134.51 54.77 134.97C54.77 135.65 54.57 136.21 54.17 136.65H54.18Z" fill="white"/>
<path d="M62.14 130.97C61.27 130.97 60.61 131.27 60.18 131.87C60.16 131.89 60.15 131.92 60.14 131.94V131.13H58.38V138.81H60.14V134.54C60.14 133.88 60.3 133.39 60.62 133.08C60.94 132.77 61.35 132.62 61.84 132.62C62.06 132.62 62.26 132.65 62.43 132.72C62.6 132.78 62.76 132.89 62.89 133.04L64.04 131.86C63.77 131.55 63.49 131.33 63.18 131.19C62.87 131.05 62.52 130.98 62.14 130.98V130.97Z" fill="white"/>
<path d="M67.85 127.93H66.1V131.13H64.26V132.73H66.1V138.81H67.85V132.73H69.7V131.13H67.85V127.93Z" fill="white"/>
<path d="M75.71 135.521C75.71 136.091 75.57 136.521 75.3 136.821C75.03 137.121 74.64 137.281 74.12 137.281C73.79 137.281 73.5 137.211 73.26 137.071C73.02 136.931 72.84 136.731 72.72 136.471C72.6 136.211 72.54 135.891 72.54 135.521V131.141H70.78V135.601C70.78 136.261 70.92 136.851 71.2 137.351C71.48 137.861 71.88 138.251 72.38 138.541C72.89 138.831 73.46 138.971 74.12 138.971C74.78 138.971 75.36 138.831 75.86 138.551C76.36 138.271 76.75 137.871 77.04 137.371C77.32 136.861 77.46 136.271 77.46 135.601V131.141H75.7V135.521H75.71Z" fill="white"/>
<path d="M85.24 131.51C84.68 131.15 84.05 130.97 83.36 130.97C82.78 130.97 82.27 131.1 81.81 131.35C81.49 131.52 81.24 131.76 81.01 132.02V131.13H79.25V142.01H81.01V137.93C81.23 138.19 81.48 138.42 81.79 138.59C82.25 138.84 82.77 138.97 83.36 138.97C84.05 138.97 84.68 138.79 85.24 138.44C85.8 138.09 86.24 137.61 86.57 137.01C86.9 136.41 87.06 135.73 87.06 134.99C87.06 134.25 86.9 133.55 86.57 132.95C86.25 132.35 85.8 131.87 85.24 131.51ZM84.97 136.19C84.78 136.54 84.53 136.82 84.2 137.01C83.87 137.21 83.5 137.31 83.07 137.31C82.64 137.31 82.27 137.21 81.94 137.01C81.61 136.81 81.35 136.54 81.17 136.19C80.99 135.84 80.9 135.43 80.9 134.97C80.9 134.51 80.99 134.11 81.17 133.75C81.35 133.4 81.61 133.12 81.94 132.93C82.27 132.73 82.65 132.63 83.07 132.63C83.49 132.63 83.87 132.73 84.2 132.93C84.53 133.13 84.78 133.4 84.97 133.75C85.16 134.1 85.25 134.51 85.25 134.97C85.25 135.43 85.16 135.83 84.97 136.19Z" fill="white"/>
<path d="M95.3 127.611L90.69 138.811H92.64L93.5 136.651H98.31L99.16 138.811H101.14L96.56 127.611H95.28H95.3ZM94.14 135.051L95.92 130.591L97.68 135.051H94.14Z" fill="white"/>
<path d="M108.94 135.981L107.18 131.131H106.16L104.4 135.981L102.59 131.131H100.77L103.85 138.811H104.88L106.67 134.231L108.46 138.811H109.49L112.57 131.131H110.75L108.94 135.981Z" fill="white"/>
<path d="M119.06 132.02C118.84 131.76 118.58 131.52 118.27 131.35C117.82 131.1 117.3 130.97 116.71 130.97C116.02 130.97 115.39 131.15 114.83 131.51C114.27 131.87 113.83 132.35 113.5 132.95C113.17 133.55 113.01 134.23 113.01 134.99C113.01 135.75 113.17 136.41 113.5 137.01C113.83 137.61 114.27 138.09 114.83 138.44C115.39 138.79 116.02 138.97 116.71 138.97C117.3 138.97 117.82 138.85 118.28 138.59C118.59 138.42 118.84 138.19 119.07 137.93V138.81H120.83V131.13H119.07V132.02H119.06ZM118.57 136.65C118.17 137.09 117.64 137.31 116.99 137.31C116.56 137.31 116.19 137.21 115.86 137.01C115.53 136.81 115.28 136.54 115.09 136.19C114.9 135.84 114.81 135.43 114.81 134.97C114.81 134.51 114.9 134.11 115.09 133.75C115.28 133.4 115.53 133.12 115.86 132.93C116.19 132.74 116.56 132.63 116.99 132.63C117.42 132.63 117.81 132.73 118.13 132.93C118.45 133.13 118.71 133.4 118.89 133.75C119.07 134.1 119.16 134.51 119.16 134.97C119.16 135.65 118.96 136.21 118.56 136.65H118.57Z" fill="white"/>
<path d="M126.53 130.97C125.66 130.97 125 131.27 124.57 131.87C124.55 131.89 124.54 131.92 124.53 131.94V131.13H122.77V138.81H124.53V134.54C124.53 133.88 124.69 133.39 125.01 133.08C125.33 132.77 125.74 132.62 126.23 132.62C126.45 132.62 126.65 132.65 126.82 132.72C126.99 132.78 127.15 132.89 127.28 133.04L128.43 131.86C128.16 131.55 127.88 131.33 127.57 131.19C127.26 131.05 126.91 130.98 126.53 130.98V130.97Z" fill="white"/>
<path d="M134.62 132.021C134.4 131.761 134.14 131.521 133.83 131.351C133.38 131.101 132.86 130.971 132.27 130.971C131.58 130.971 130.95 131.151 130.39 131.511C129.83 131.871 129.39 132.351 129.06 132.951C128.73 133.551 128.57 134.231 128.57 134.991C128.57 135.751 128.73 136.411 129.06 137.011C129.38 137.611 129.83 138.091 130.39 138.441C130.95 138.791 131.58 138.971 132.27 138.971C132.86 138.971 133.38 138.851 133.84 138.591C134.15 138.421 134.4 138.191 134.62 137.931V138.811H136.38V127.291H134.62V132.021ZM134.46 136.191C134.28 136.541 134.03 136.821 133.7 137.011C133.37 137.201 132.99 137.311 132.56 137.311C132.13 137.311 131.76 137.211 131.43 137.011C131.1 136.811 130.85 136.541 130.66 136.191C130.47 135.841 130.38 135.431 130.38 134.971C130.38 134.511 130.47 134.111 130.66 133.751C130.85 133.391 131.1 133.121 131.43 132.931C131.76 132.731 132.13 132.631 132.56 132.631C132.99 132.631 133.38 132.731 133.7 132.931C134.02 133.131 134.28 133.401 134.46 133.751C134.64 134.101 134.73 134.511 134.73 134.971C134.73 135.431 134.64 135.831 134.46 136.191Z" fill="white"/>
<path d="M143.75 133.9H138.33V135.56H143.75V133.9Z" fill="white"/>
<path d="M154.96 127.611H152.61L147.79 132.701V127.611H145.95V138.811H147.79V133.261L152.72 138.811H155.12L149.83 132.941L154.96 127.611Z" fill="white"/>
<path d="M161.06 131.47C160.51 131.14 159.88 130.97 159.16 130.97C158.44 130.97 157.75 131.15 157.15 131.5C156.55 131.85 156.07 132.33 155.72 132.93C155.37 133.53 155.19 134.21 155.19 134.97C155.19 135.73 155.37 136.41 155.73 137.02C156.09 137.63 156.57 138.11 157.19 138.45C157.8 138.8 158.49 138.97 159.26 138.97C159.86 138.97 160.42 138.86 160.96 138.63C161.49 138.41 161.95 138.08 162.32 137.64L161.2 136.5C160.96 136.77 160.68 136.97 160.34 137.11C160 137.25 159.64 137.32 159.24 137.32C158.78 137.32 158.38 137.22 158.02 137.02C157.66 136.82 157.4 136.54 157.2 136.18C157.11 136.01 157.04 135.82 156.99 135.62H162.72C162.75 135.46 162.78 135.31 162.79 135.18C162.81 135.05 162.81 134.92 162.81 134.79C162.81 134.05 162.65 133.4 162.34 132.82C162.02 132.24 161.59 131.79 161.04 131.46L161.06 131.47ZM157.02 134.19C157.06 134.01 157.12 133.84 157.2 133.69C157.38 133.34 157.64 133.07 157.97 132.88C158.3 132.69 158.69 132.59 159.14 132.59C159.57 132.59 159.93 132.68 160.22 132.85C160.51 133.02 160.74 133.27 160.9 133.59C160.99 133.77 161.05 133.97 161.1 134.2H157.03L157.02 134.19Z" fill="white"/>
<path d="M168 130.97C167.12 130.97 166.47 131.27 166.04 131.87C166.02 131.89 166.01 131.92 166 131.94V131.13H164.24V138.81H166V134.54C166 133.88 166.16 133.39 166.48 133.08C166.8 132.77 167.2 132.62 167.7 132.62C167.92 132.62 168.12 132.65 168.29 132.72C168.46 132.78 168.62 132.89 168.75 133.04L169.9 131.86C169.63 131.55 169.35 131.33 169.04 131.19C168.73 131.05 168.38 130.98 168 130.98V130.97Z" fill="white"/>
<path d="M176.09 132.02C175.87 131.76 175.61 131.52 175.3 131.35C174.85 131.1 174.33 130.97 173.74 130.97C173.05 130.97 172.42 131.15 171.86 131.51C171.3 131.87 170.86 132.35 170.53 132.95C170.21 133.55 170.04 134.23 170.04 134.99C170.04 135.75 170.2 136.41 170.53 137.01C170.86 137.61 171.3 138.09 171.86 138.44C172.42 138.79 173.05 138.97 173.74 138.97C174.33 138.97 174.85 138.85 175.31 138.59C175.62 138.42 175.87 138.19 176.09 137.93V138.81H177.85V131.13H176.09V132.02ZM175.61 136.65C175.21 137.09 174.68 137.31 174.03 137.31C173.6 137.31 173.23 137.21 172.9 137.01C172.57 136.81 172.32 136.54 172.13 136.19C171.94 135.84 171.85 135.43 171.85 134.97C171.85 134.51 171.94 134.11 172.13 133.75C172.32 133.39 172.57 133.12 172.9 132.93C173.22 132.73 173.6 132.63 174.03 132.63C174.46 132.63 174.85 132.73 175.17 132.93C175.5 133.13 175.75 133.4 175.93 133.75C176.11 134.1 176.2 134.51 176.2 134.97C176.2 135.65 176 136.21 175.6 136.65H175.61Z" fill="white"/>
<path d="M181.57 127.291H179.81V138.811H181.57V127.291Z" fill="white"/>
<path d="M189.09 131.13V132.02C188.87 131.76 188.61 131.52 188.3 131.35C187.85 131.1 187.33 130.97 186.74 130.97C186.05 130.97 185.42 131.15 184.86 131.51C184.3 131.87 183.86 132.35 183.53 132.95C183.2 133.55 183.04 134.23 183.04 134.99C183.04 135.75 183.2 136.41 183.53 137.01C183.86 137.61 184.3 138.09 184.86 138.44C185.42 138.79 186.05 138.97 186.74 138.97C187.33 138.97 187.85 138.85 188.31 138.59C188.62 138.42 188.87 138.19 189.1 137.93V138.81H190.86V131.13H189.1H189.09ZM188.6 136.65C188.2 137.09 187.67 137.31 187.02 137.31C186.59 137.31 186.22 137.21 185.89 137.01C185.56 136.81 185.31 136.54 185.12 136.19C184.93 135.84 184.84 135.43 184.84 134.97C184.84 134.51 184.93 134.11 185.12 133.75C185.31 133.4 185.56 133.12 185.89 132.93C186.22 132.74 186.59 132.63 187.02 132.63C187.45 132.63 187.84 132.73 188.16 132.93C188.48 133.13 188.74 133.4 188.92 133.75C189.1 134.1 189.19 134.51 189.19 134.97C189.19 135.65 188.99 136.21 188.59 136.65H188.6Z" fill="white"/>
</svg>
