<svg width="117" height="46" viewBox="0 0 117 46" fill="none" xmlns="http://www.w3.org/2000/svg">
<g clip-path="url(#clip0_1276_8145)">
<path d="M30.2138 6.75406L14.8226 0.815335C7.96982 0.0623956 2.5941 0.754286 0.725322 1.89387C0.725322 1.90065 0.725322 1.90744 0.725322 1.91422L0.691406 1.89217L0.708364 32.9238L11.0833 42.8205L12.4196 42.6255L12.4027 8.60588L2.37365 2.41618L13.5202 1.6785L28.072 7.81733L28.0889 40.0564L29.3506 40.7584L30.2324 40.5753L30.2155 6.75406H30.2138Z" fill="#00428c"/>
<path d="M17.8276 19.1607V39.7495L20.6529 41.1994L18.0667 19.1522C18.0532 19.0199 17.8276 19.0284 17.8276 19.1607Z" fill="#00428c"/>
<path d="M11.3207 3.6728L20.5001 8.95694L22.8641 28.3587C22.8759 28.491 23.1032 28.4825 23.1032 28.3502V8.69409L11.3563 3.60157C11.302 3.58461 11.2681 3.65245 11.3207 3.6728Z" fill="#00428c"/>
<path d="M43.3307 14.2717L49.4017 31.335H49.4713V14.2717H54.0771V39.1849H48.3554L42.2149 21.7384H42.1454V39.1849H37.5396V14.2717H43.3324H43.3307Z" fill="#00428c"/>
<path d="M66.472 27.6703C66.4482 26.9496 66.4024 26.3204 66.3329 25.7862C66.2634 25.2283 66.1345 24.7637 65.9497 24.3906C65.7869 23.9955 65.5427 23.7038 65.2171 23.5189C64.9152 23.3104 64.5184 23.2052 64.03 23.2052C63.5416 23.2052 63.1346 23.3222 62.809 23.5546C62.5072 23.7631 62.263 24.0548 62.0764 24.4262C61.8899 24.7755 61.7508 25.1707 61.6576 25.6133C61.588 26.0559 61.5524 26.4968 61.5524 26.9394V27.672H66.472V27.6703ZM61.5524 30.5311V32.0319C61.5524 32.5898 61.588 33.1376 61.6576 33.6718C61.7508 34.1839 61.8899 34.6485 62.0764 35.0674C62.263 35.4625 62.5072 35.7881 62.809 36.0442C63.1109 36.2765 63.484 36.3935 63.9249 36.3935C64.7389 36.3935 65.3324 36.1035 65.7038 35.5219C66.0768 34.9402 66.3312 34.0567 66.472 32.8696H70.798C70.7047 35.0555 70.1231 36.7191 69.053 37.8587C67.9829 38.9983 66.2956 39.5681 63.9927 39.5681C62.2477 39.5681 60.8877 39.2781 59.9109 38.6964C58.9341 38.1148 58.2134 37.3466 57.747 36.3935C57.2824 35.4405 56.9907 34.3704 56.8754 33.1834C56.7821 31.9963 56.7363 30.8109 56.7363 29.6239C56.7363 28.3673 56.8177 27.1582 56.9805 25.9948C57.1671 24.8315 57.5147 23.7971 58.0268 22.8898C58.5627 21.9825 59.3173 21.2618 60.2958 20.7259C61.2726 20.1918 62.575 19.9238 64.203 19.9238C65.5986 19.9238 66.7382 20.1562 67.6217 20.6225C68.529 21.0651 69.2378 21.7044 69.75 22.5422C70.2621 23.3561 70.6097 24.3567 70.7963 25.5437C70.9828 26.7071 71.0761 28.0094 71.0761 29.4509V30.5328H61.5507L61.5524 30.5311Z" fill="#00428c"/>
<path d="M73.5857 20.4122H78.1915V22.9237H78.261C78.7494 22.0164 79.343 21.2957 80.0399 20.7598C80.7386 20.2019 81.5865 19.9221 82.587 19.9221C82.7261 19.9221 82.8668 19.934 83.0059 19.9577C83.1687 19.9577 83.3196 19.9696 83.4587 19.9933V24.5992C83.2026 24.5754 82.9465 24.5635 82.6905 24.5635C82.4582 24.5398 82.214 24.5279 81.9579 24.5279C81.539 24.5279 81.1202 24.5856 80.7013 24.7026C80.2824 24.8196 79.8992 25.0163 79.5498 25.2961C79.2005 25.5522 78.9224 25.9015 78.7121 26.3425C78.5035 26.7613 78.3984 27.2853 78.3984 27.9128V39.1831H73.584V20.4105L73.5857 20.4122Z" fill="#00428c"/>
<path d="M89.6364 30.392C89.6364 31.0432 89.6602 31.6588 89.706 32.2405C89.7755 32.8221 89.8925 33.3461 90.0553 33.8108C90.2418 34.2534 90.486 34.6129 90.7879 34.8927C91.1135 35.1488 91.5323 35.276 92.0445 35.276C92.5566 35.276 92.9755 35.1471 93.3011 34.8927C93.6504 34.6129 93.9183 34.2415 94.1032 33.7769C94.3118 33.3122 94.4525 32.7543 94.5221 32.1014C94.6153 31.4265 94.6611 30.6939 94.6611 29.9037C94.6611 27.6245 94.4746 26.0067 94.1032 25.0536C93.7538 24.1006 93.1027 23.6224 92.1496 23.6224C91.6154 23.6224 91.1847 23.7394 90.8591 23.9717C90.5335 24.204 90.2774 24.5873 90.0909 25.1232C89.9044 25.6353 89.7772 26.3323 89.7076 27.2175C89.6619 28.0773 89.6381 29.1371 89.6381 30.392H89.6364ZM99.2669 20.4122V38.242C99.2669 40.6619 98.6615 42.4764 97.4524 43.6855C96.2653 44.8946 94.266 45.5 91.4509 45.5C89.4041 45.5 87.8219 45.0574 86.7061 44.1739C85.6123 43.3141 85.0662 42.0796 85.0662 40.4753H89.672C89.672 41.0807 89.9162 41.5573 90.4046 41.9066C90.637 42.0694 90.8811 42.1966 91.1372 42.2898C91.417 42.3831 91.707 42.4289 92.0089 42.4289C92.9857 42.4289 93.6725 42.1152 94.0676 41.486C94.4627 40.8586 94.6611 40.0785 94.6611 39.1475V36.6699H94.5916C94.1032 37.3686 93.4978 37.9265 92.7771 38.3454C92.0784 38.7643 91.3458 38.9728 90.5793 38.9728C88.6715 38.9728 87.2301 38.2521 86.2533 36.809C85.3002 35.3438 84.822 32.9018 84.822 29.4814C84.822 28.3876 84.8797 27.2718 84.9967 26.1322C85.1357 24.9926 85.4037 23.9683 85.7988 23.0611C86.2177 22.1301 86.8112 21.3754 87.5777 20.7938C88.368 20.2121 89.416 19.9221 90.7184 19.9221C91.3933 19.9221 92.0903 20.1087 92.8127 20.48C93.5334 20.8514 94.1269 21.5264 94.5916 22.5031H94.6611V20.4088H99.2669V20.4122Z" fill="#00428c"/>
<path d="M102.993 41.6269C103.412 41.6964 103.831 41.7321 104.249 41.7321C105.133 41.7321 105.762 41.4997 106.133 41.0334C106.529 40.5687 106.761 39.9515 106.832 39.1833L101.563 20.4106H106.588L109.379 33.3904H109.449L111.891 20.4106H116.705L112.169 37.9267C111.75 39.4851 111.343 40.7417 110.948 41.6947C110.576 42.6715 110.122 43.416 109.588 43.9281C109.076 44.4623 108.448 44.8117 107.704 44.9744C106.983 45.1372 106.064 45.2186 104.948 45.2186H102.994V41.6252L102.993 41.6269Z" fill="#00428c"/>
</g>
<defs>
<clipPath id="clip0_1276_8145">
<rect width="116.015" height="45" fill="white" transform="translate(0.689453 0.5)"/>
</clipPath>
</defs>
</svg>
