<svg xmlns="http://www.w3.org/2000/svg" width="333.235" height="187.394" viewBox="0 0 333.235 187.394">
  <g id="Nergy_Vidya_Logo" data-name="Nergy Vidya Logo" transform="translate(134.609 75.697)">
    <g id="Group_162357" data-name="Group 162357" transform="translate(-134.609 -75.697)">
      <g id="Group_162354" data-name="Group 162354">
        <path id="Path_83147" data-name="Path 83147" d="M128.309,27.183,61.419,1.368C31.638-1.9,8.276,1.1.153,6.061l-.008.085L0,6.053.07,140.909l45.087,43.006,5.811-.844L50.893,35.225,7.316,8.335,55.759,5.128,119,31.8l.07,140.109,5.484,3.051,3.83-.792-.07-146.983Z" transform="translate(0 0)" fill="#00428c"/>
        <path id="Path_83148" data-name="Path 83148" d="M296.34,321.333v89.475l12.278,6.3-11.237-95.811C297.325,320.722,296.34,320.757,296.34,321.333Z" transform="translate(-221.859 -240.234)" fill="#00428c"/>
        <path id="Path_83149" data-name="Path 83149" d="M183.471,53.906,223.365,76.87l10.275,84.318c.055.571,1.041.538,1.041-.038V75.732L183.622,53.6c-.236-.075-.382.219-.153.312Z" transform="translate(-137.27 -40.117)" fill="#00428c"/>
      </g>
      <g id="Group_162355" data-name="Group 162355" transform="translate(149.517 43.728)">
        <path id="Path_83150" data-name="Path 83150" d="M608.331,173.983l14.09,39.6h.161v-39.6h10.689V231.8H619.991L605.74,191.31h-.161V231.8H594.89V173.983Z" transform="translate(-594.89 -173.983)" fill="#00428c"/>
        <path id="Path_83151" data-name="Path 83151" d="M794.76,244.156q-.079-2.511-.324-4.373a10.1,10.1,0,0,0-.89-3.24,3.963,3.963,0,0,0-1.7-2.023,5.462,5.462,0,0,0-5.587.08,5.237,5.237,0,0,0-1.7,2.026,10.335,10.335,0,0,0-.973,2.752,19.822,19.822,0,0,0-.244,3.076v1.7H794.76Zm-11.418,6.64v3.481a29.138,29.138,0,0,0,.244,3.805,14.242,14.242,0,0,0,.973,3.24,6.605,6.605,0,0,0,1.7,2.267,4.12,4.12,0,0,0,2.591.809,4.537,4.537,0,0,0,4.129-2.023,14.924,14.924,0,0,0,1.782-6.153H804.8q-.324,7.612-4.049,11.579T789.01,271.77q-6.074,0-9.473-2.023a12.567,12.567,0,0,1-5.019-5.343,21.646,21.646,0,0,1-2.023-7.45q-.324-4.132-.324-8.259a60.865,60.865,0,0,1,.565-8.422,21.45,21.45,0,0,1,2.428-7.206,13.475,13.475,0,0,1,5.263-5.022,18.9,18.9,0,0,1,9.068-1.862,17.008,17.008,0,0,1,7.935,1.619,11.606,11.606,0,0,1,4.939,4.454,18.279,18.279,0,0,1,2.428,6.965,57.659,57.659,0,0,1,.648,9.068V250.8h-22.1Z" transform="translate(-727.613 -213.063)" fill="#00428c"/>
        <path id="Path_83152" data-name="Path 83152" d="M927.73,227.344h10.689v5.831h.161a15.39,15.39,0,0,1,4.129-5.019,9.168,9.168,0,0,1,5.911-1.943,6.046,6.046,0,0,1,.973.08,6.563,6.563,0,0,1,1.053.08v10.689c-.593-.053-1.189-.08-1.782-.08-.54-.053-1.106-.08-1.7-.08a10.889,10.889,0,0,0-2.916.4,7.383,7.383,0,0,0-2.672,1.377,6.252,6.252,0,0,0-1.943,2.428,8.127,8.127,0,0,0-.729,3.644V270.91H927.73V227.344Z" transform="translate(-844.076 -213.086)" fill="#00428c"/>
        <path id="Path_83153" data-name="Path 83153" d="M1042.662,250.467q0,2.266.161,4.29a17.265,17.265,0,0,0,.809,3.644,7.128,7.128,0,0,0,1.7,2.511,5.221,5.221,0,0,0,5.831,0,6.177,6.177,0,0,0,1.862-2.591,12.848,12.848,0,0,0,.973-3.886,37.413,37.413,0,0,0,.324-5.1q0-7.936-1.294-11.255a4.512,4.512,0,0,0-4.534-3.32,5.045,5.045,0,0,0-3,.809,5.3,5.3,0,0,0-1.782,2.672,19.029,19.029,0,0,0-.89,4.858q-.162,3-.161,7.369Zm22.349-23.161v41.377q0,8.422-4.21,12.632-4.128,4.211-13.926,4.21-7.125,0-11.014-3.076-3.808-3-3.805-8.583h10.689a3.861,3.861,0,0,0,1.7,3.32,7.375,7.375,0,0,0,1.7.89,6.352,6.352,0,0,0,2.023.324q3.4,0,4.778-2.187a10,10,0,0,0,1.377-5.426v-5.748h-.161a13.162,13.162,0,0,1-4.21,3.886,9.757,9.757,0,0,1-5.1,1.458q-6.639,0-10.041-5.019-3.322-5.1-3.32-17.005a76.857,76.857,0,0,1,.4-7.774,25.547,25.547,0,0,1,1.862-7.125,13.338,13.338,0,0,1,4.13-5.263,12.02,12.02,0,0,1,7.289-2.023,10.593,10.593,0,0,1,4.858,1.294,9.708,9.708,0,0,1,4.129,4.7h.161v-4.858h10.687Z" transform="translate(-921.757 -213.056)" fill="#00428c"/>
        <path id="Path_83154" data-name="Path 83154" d="M1189.36,279.924a17.827,17.827,0,0,0,2.915.244q3.076,0,4.373-1.619a7.488,7.488,0,0,0,1.619-4.293l-12.227-43.564h11.66l6.477,30.122h.161L1210,230.693h11.174l-10.526,40.648a72.682,72.682,0,0,1-2.835,8.744,13.96,13.96,0,0,1-3.157,5.183,8.4,8.4,0,0,1-4.373,2.43,29.888,29.888,0,0,1-6.4.566h-4.534v-8.339Z" transform="translate(-1037.463 -216.44)" fill="#00428c"/>
      </g>
      <g id="Group_162356" data-name="Group 162356" transform="translate(147.227 119.106)">
        <path id="Path_83155" data-name="Path 83155" d="M604.248,531.172l-18.468-50.7h10.43l14.052,40.7,14.122-40.7h10.357l-18.468,50.7H604.248Z" transform="translate(-585.78 -478.819)" fill="#2660ac"/>
        <rect id="Rectangle_147727" data-name="Rectangle 147727" width="9.777" height="36.504" transform="translate(52.509 15.849)" fill="#2660ac"/>
        <path id="Path_83156" data-name="Path 83156" d="M872.672,527.722a16.551,16.551,0,0,1-8.945-2.463,17.062,17.062,0,0,1-6.193-6.809,20.969,20.969,0,0,1-2.244-9.777,21.392,21.392,0,0,1,2.244-9.888,17.128,17.128,0,0,1,6.3-6.809,16.914,16.914,0,0,1,9.053-2.5,15.467,15.467,0,0,1,6.917,1.448,12.065,12.065,0,0,1,4.743,4.129V474.7h9.777V526.85h-8.691l-1.086-5.069a14.917,14.917,0,0,1-2.787,3.006,12.781,12.781,0,0,1-3.838,2.136,15.518,15.518,0,0,1-5.25.8Zm2.317-8.548a9.584,9.584,0,0,0,5.142-1.34,9.245,9.245,0,0,0,3.4-3.73,12.032,12.032,0,0,0,1.232-5.577,11.7,11.7,0,0,0-1.232-5.5,8.943,8.943,0,0,0-3.441-3.695,10,10,0,0,0-5.177-1.3,9.388,9.388,0,0,0-4.961,1.34,9.191,9.191,0,0,0-3.441,3.73,11.673,11.673,0,0,0-1.232,5.431,12.071,12.071,0,0,0,1.232,5.542,9.468,9.468,0,0,0,3.441,3.73,9.325,9.325,0,0,0,5.034,1.375Z" transform="translate(-787.553 -474.499)" fill="#2660ac"/>
        <path id="Path_83157" data-name="Path 83157" d="M1034.645,589.392l8.837-19.991h-2.174l-14.557-32.447h10.574l10.43,23.467,9.342-23.467h10.43L1045,589.389h-10.357Z" transform="translate(-915.919 -521.104)" fill="#2660ac"/>
        <path id="Path_83158" data-name="Path 83158" d="M1202.389,571.736a16.606,16.606,0,0,1-7.459-1.485,10.4,10.4,0,0,1-4.454-3.984,10.64,10.64,0,0,1-1.486-5.539,10.413,10.413,0,0,1,1.7-5.939,10.99,10.99,0,0,1,5.177-3.948,23.663,23.663,0,0,1,8.837-1.412h8.91a12.339,12.339,0,0,0-.689-4.491,4.98,4.98,0,0,0-2.244-2.606,8.358,8.358,0,0,0-4.092-.87,8.892,8.892,0,0,0-4.672,1.159,5.066,5.066,0,0,0-2.355,3.695h-9.488a12.648,12.648,0,0,1,2.571-6.809,14.776,14.776,0,0,1,5.866-4.419,20.221,20.221,0,0,1,8.148-1.593,21.762,21.762,0,0,1,8.945,1.7,12.542,12.542,0,0,1,5.793,5,15.206,15.206,0,0,1,1.991,8v22.67h-8.184l-1.086-5.577a11.952,11.952,0,0,1-4.527,4.635,13.119,13.119,0,0,1-3.222,1.34,15.279,15.279,0,0,1-3.984.47Zm2.39-7.533a7.611,7.611,0,0,0,5.866-2.609,10.227,10.227,0,0,0,1.739-2.752,12.067,12.067,0,0,0,.87-3.333v-.073h-7.459a10.6,10.6,0,0,0-3.73.543,4.092,4.092,0,0,0-2.063,1.558,4.516,4.516,0,0,0,0,4.672,4.024,4.024,0,0,0,1.92,1.485,7.612,7.612,0,0,0,2.86.508Z" transform="translate(-1037.382 -518.513)" fill="#2660ac"/>
        <rect id="Rectangle_147728" data-name="Rectangle 147728" width="9.777" height="11.184" rx="0.64" transform="translate(52.509)" fill="#f9a31a"/>
      </g>
    </g>
  </g>
</svg>
