<svg id="focus_6041624" xmlns="http://www.w3.org/2000/svg" xmlns:xlink="http://www.w3.org/1999/xlink" width="66.783" height="69.845" viewBox="0 0 66.783 69.845">
  <defs>
    <linearGradient id="linear-gradient" x1="0.121" y1="0.751" x2="0.903" y2="0.004" gradientUnits="objectBoundingBox">
      <stop offset="0" stop-color="#d1ddff" stop-opacity="0"/>
      <stop offset="1" stop-color="#b6c4ff"/>
    </linearGradient>
  </defs>
  <g id="Group_162287" data-name="Group 162287" transform="translate(0 0)">
    <path id="Path_83078" data-name="Path 83078" d="M76.489,6.44c-7.069-14.955-24.4.156-34.1,5.108C34.455,15.6,10.4,7.66,11.244,19.18c.483,6.594,9.567,9.4,13.43,15.006,6.7,9.712-.74,27.109,10.692,33.737C48.7,75.654,56.323,58.3,59.131,47.139c3.485-13.855,24.644-25.284,17.358-40.7Z" transform="translate(-11.222 0)" fill="url(#linear-gradient)"/>
  </g>
  <g id="Group_162327" data-name="Group 162327" transform="translate(1.842 1.949)">
    <g id="Group_162321" data-name="Group 162321" transform="translate(4.104)">
      <path id="Path_83079" data-name="Path 83079" d="M113.794,76.806h2.124a.682.682,0,1,0,0-1.364h-2.124l2.839-3.986a.682.682,0,0,0-.556-1.078H112.59a26.487,26.487,0,0,0-3.558-8.589l5.361-5.361a.682.682,0,0,0-.369-1.155l-4.826-.811,1.5-1.5a.682.682,0,0,0-.964-.964l-1.5,1.5-.811-4.826a.682.682,0,0,0-1.155-.369l-5.361,5.361a26.491,26.491,0,0,0-8.5-3.54,7.114,7.114,0,0,0-7.044-6.836,7,7,0,0,0-6.951,6.951c0,.173.006.344.018.514A26.664,26.664,0,0,0,61.85,86.073a10.476,10.476,0,0,0,14.585,14.695,26.676,26.676,0,0,0,24.975-2.516A6.963,6.963,0,1,0,110.372,88.1a26.448,26.448,0,0,0,2.217-6.234h3.488a.682.682,0,0,0,.556-1.078Z" transform="translate(-59.125 -39.331)" fill="#2626bb" opacity="0.1"/>
      <g id="Group_162292" data-name="Group 162292" transform="translate(0.804 6.877)">
        <g id="Group_162291" data-name="Group 162291">
          <g id="Group_162288" data-name="Group 162288">
            <ellipse id="Ellipse_7" data-name="Ellipse 7" cx="26.642" cy="26.642" rx="26.642" ry="26.642" fill="#ff5ba7"/>
          </g>
          <g id="Group_162290" data-name="Group 162290">
            <ellipse id="Ellipse_8" data-name="Ellipse 8" cx="26.642" cy="26.642" rx="26.642" ry="26.642" fill="#6582fd"/>
            <ellipse id="Ellipse_9" data-name="Ellipse 9" cx="20.503" cy="20.503" rx="20.503" ry="20.503" transform="translate(6.139 6.139)" fill="#fff"/>
            <ellipse id="Ellipse_10" data-name="Ellipse 10" cx="14.365" cy="14.365" rx="14.365" ry="14.365" transform="translate(12.277 12.277)" fill="#6582fd"/>
            <ellipse id="Ellipse_11" data-name="Ellipse 11" cx="8.226" cy="8.226" rx="8.226" ry="8.226" transform="translate(18.416 18.416)" fill="#fff"/>
            <g id="Group_162289" data-name="Group 162289" transform="translate(21.313 22.36)">
              <path id="Path_83080" data-name="Path 83080" d="M226.91,232.21h-3.965v-2.918a.682.682,0,0,0-1.364,0v2.918h-3.965a.682.682,0,0,0,0,1.364h3.965v2.918a.682.682,0,1,0,1.364,0v-2.918h3.965a.682.682,0,0,0,0-1.364Z" transform="translate(-216.933 -228.61)" fill="#6582fd"/>
              <ellipse id="Ellipse_12" data-name="Ellipse 12" cx="2.087" cy="2.087" rx="2.087" ry="2.087" transform="translate(3.242 2.195)" fill="#6582fd"/>
            </g>
          </g>
        </g>
      </g>
      <g id="Group_162298" data-name="Group 162298" transform="translate(44.072 27.773)">
        <g id="Group_162293" data-name="Group 162293" transform="translate(0)">
          <path id="Path_83081" data-name="Path 83081" d="M387.99,223.625H377.879l3.685-5.173a1.364,1.364,0,0,1,1.111-.573h2.571l1.741.682,1.822-.682h1.951a.682.682,0,0,1,.556,1.078Z" transform="translate(-377.879 -217.879)" fill="#fff"/>
        </g>
        <g id="Group_162294" data-name="Group 162294" transform="translate(3.274)">
          <path id="Path_83082" data-name="Path 83082" d="M405.442,223.625h-3.563l4.092-5.746h3.563Z" transform="translate(-401.879 -217.879)" fill="#6582fd"/>
        </g>
        <g id="Group_162295" data-name="Group 162295" transform="translate(0 5.746)">
          <path id="Path_83083" data-name="Path 83083" d="M382.675,265.746h2.571l1.776-.682,1.788.682h1.951a.682.682,0,0,0,.556-1.078L387.99,260H377.879l3.685,5.173A1.364,1.364,0,0,0,382.675,265.746Z" transform="translate(-377.879 -260)" fill="#fff"/>
        </g>
        <g id="Group_162297" data-name="Group 162297" transform="translate(3.274 5.746)">
          <g id="Group_162296" data-name="Group 162296">
            <path id="Path_83084" data-name="Path 83084" d="M405.971,265.746h3.563L405.442,260h-3.563Z" transform="translate(-401.879 -260)" fill="#6582fd"/>
          </g>
        </g>
      </g>
      <g id="Group_162304" data-name="Group 162304" transform="translate(41.025 5.497)">
        <g id="Group_162299" data-name="Group 162299" transform="translate(0 0)">
          <path id="Path_83085" data-name="Path 83085" d="M363.762,60.807l-7.15,7.15-1.053-6.263a1.364,1.364,0,0,1,.381-1.191l1.818-1.818,1.513-.695,1.006-1.825,1.379-1.379a.682.682,0,0,1,1.155.369Z" transform="translate(-355.541 -54.585)" fill="#fff"/>
        </g>
        <g id="Group_162300" data-name="Group 162300" transform="translate(2.217 1.58)">
          <path id="Path_83086" data-name="Path 83086" d="M375.484,73.124l-2.52,2.52-1.169-6.957,2.52-2.52Z" transform="translate(-371.795 -66.167)" fill="#6582fd"/>
        </g>
        <g id="Group_162301" data-name="Group 162301" transform="translate(1.072 6.222)">
          <path id="Path_83087" data-name="Path 83087" d="M370.851,108.015l1.818-1.818.71-1.665,1.809-.855,1.379-1.379a.682.682,0,0,0-.369-1.155l-5.652-.95-7.15,7.15,6.263,1.053A1.363,1.363,0,0,0,370.851,108.015Z" transform="translate(-363.397 -100.193)" fill="#fff"/>
        </g>
        <g id="Group_162303" data-name="Group 162303" transform="translate(3.386 8.537)">
          <g id="Group_162302" data-name="Group 162302">
            <path id="Path_83088" data-name="Path 83088" d="M387.322,120.853l2.52-2.52-6.957-1.169-2.52,2.52Z" transform="translate(-380.365 -117.164)" fill="#6582fd"/>
          </g>
        </g>
      </g>
      <g id="Group_162309" data-name="Group 162309" transform="translate(19.281 0.682)">
        <path id="Path_83089" data-name="Path 83089" d="M203.1,19.287a7,7,0,0,0-6.951,6.951,7.118,7.118,0,0,0,7.125,7.052h6.153a.725.725,0,0,0,.724-.724V26.412A7.118,7.118,0,0,0,203.1,19.287Z" transform="translate(-196.149 -19.287)" fill="#fff"/>
        <g id="Group_162308" data-name="Group 162308" transform="translate(4.075 3.539)">
          <g id="Group_162305" data-name="Group 162305" transform="translate(0)">
            <path id="Path_83090" data-name="Path 83090" d="M228.124,46.6H226.7a.682.682,0,0,1,0-1.364h1.424a.682.682,0,0,1,0,1.364Z" transform="translate(-226.018 -45.232)" fill="#2626bb"/>
          </g>
          <g id="Group_162306" data-name="Group 162306" transform="translate(0 2.78)">
            <path id="Path_83091" data-name="Path 83091" d="M231.19,66.977H226.7a.682.682,0,0,1,0-1.364h4.49a.682.682,0,0,1,0,1.364Z" transform="translate(-226.018 -65.613)" fill="#6582fd"/>
          </g>
          <g id="Group_162307" data-name="Group 162307" transform="translate(0 5.561)">
            <path id="Path_83092" data-name="Path 83092" d="M231.19,87.359H226.7a.682.682,0,0,1,0-1.364h4.49a.682.682,0,0,1,0,1.364Z" transform="translate(-226.018 -85.995)" fill="#6582fd"/>
          </g>
        </g>
      </g>
      <g id="Group_162314" data-name="Group 162314" transform="translate(40.947 44.619)">
        <path id="Path_83093" data-name="Path 83093" d="M362.027,355.372a7,7,0,0,0,6.951-6.951,7.118,7.118,0,0,0-7.125-7.052H355.7a.725.725,0,0,0-.725.725v6.153A7.118,7.118,0,0,0,362.027,355.372Z" transform="translate(-354.975 -341.369)" fill="#fff"/>
        <g id="Group_162313" data-name="Group 162313" transform="translate(4.075 3.539)">
          <g id="Group_162310" data-name="Group 162310">
            <path id="Path_83094" data-name="Path 83094" d="M386.95,368.678h-1.424a.682.682,0,1,1,0-1.364h1.424a.682.682,0,0,1,0,1.364Z" transform="translate(-384.844 -367.314)" fill="#2626bb"/>
          </g>
          <g id="Group_162311" data-name="Group 162311" transform="translate(0 2.78)">
            <path id="Path_83095" data-name="Path 83095" d="M390.016,389.059h-4.49a.682.682,0,0,1,0-1.364h4.49a.682.682,0,0,1,0,1.364Z" transform="translate(-384.844 -387.695)" fill="#6582fd"/>
          </g>
          <g id="Group_162312" data-name="Group 162312" transform="translate(0 5.561)">
            <path id="Path_83096" data-name="Path 83096" d="M390.016,409.441h-4.49a.682.682,0,1,1,0-1.364h4.49a.682.682,0,0,1,0,1.364Z" transform="translate(-384.844 -408.077)" fill="#6582fd"/>
          </g>
        </g>
      </g>
      <g id="Group_162320" data-name="Group 162320">
        <ellipse id="Ellipse_13" data-name="Ellipse 13" cx="10.477" cy="10.477" rx="10.477" ry="10.477" transform="translate(0.682 39.206)" fill="#fff"/>
        <path id="Path_83097" data-name="Path 83097" d="M110.313,48.488H111.6a.682.682,0,1,0,0-1.364h-1.286l2.557-3.59a1.364,1.364,0,0,0-1.111-2.155h-2.943a27.11,27.11,0,0,0-3.237-7.808l4.977-4.977a1.364,1.364,0,0,0-.738-2.31l-4.347-.731.909-.909a.682.682,0,0,0-.964-.964l-.909.909-.73-4.347a1.364,1.364,0,0,0-2.31-.738L96.489,24.48a27.1,27.1,0,0,0-7.763-3.225,7.939,7.939,0,0,0-2.286-4.733,7.558,7.558,0,0,0-5.351-2.235h-.053a7.714,7.714,0,0,0-7.629,7.629,7.557,7.557,0,0,0,2.235,5.4,7.913,7.913,0,0,0,5.573,2.334h6.153a1.408,1.408,0,0,0,1.407-1.407V22.673a25.729,25.729,0,0,1,6.751,2.819,2.048,2.048,0,0,0-.347,1.514l.994,5.917-14.4,14.4a.682.682,0,0,0,.482,1.164H98.527l3.48,4.887a2.05,2.05,0,0,0,1.667.859h3.736a25.815,25.815,0,0,1-1.672,4.644,7.81,7.81,0,0,0-3.106-.654H96.479a1.408,1.408,0,0,0-1.407,1.407v6.153a7.82,7.82,0,0,0,1.079,3.95,26.009,26.009,0,0,1-22.7,2.5,11.154,11.154,0,1,0-15.7-15.816,25.992,25.992,0,0,1,12.7-31.748.682.682,0,1,0-.621-1.215A27.348,27.348,0,0,0,56.765,57.666,11.154,11.154,0,0,0,72.2,73.22,27.361,27.361,0,0,0,96.94,70.849a7.728,7.728,0,0,0,3.634,2.414.682.682,0,1,0,.4-1.3,6.4,6.4,0,0,1-3.312-2.4l0-.008-.009-.01a6.483,6.483,0,0,1-1.213-3.761V59.63a.043.043,0,0,1,.042-.042h6.153a6.54,6.54,0,0,1,4.6,1.931,6.2,6.2,0,0,1,1.839,4.434,6.291,6.291,0,0,1-4.471,6,.682.682,0,0,0,.4,1.3,7.649,7.649,0,0,0,5.437-7.294,7.557,7.557,0,0,0-2.235-5.4,7.883,7.883,0,0,0-1.266-1.031,27.183,27.183,0,0,0,1.874-5.293h2.946a1.364,1.364,0,0,0,1.111-2.155ZM56.171,63.971a9.8,9.8,0,1,1,9.8,9.8A9.806,9.806,0,0,1,56.171,63.971Zm55.588-21.229-3.121,4.382H100.2l2.917-4.1a.684.684,0,0,1,.556-.287h8.085Zm-2.168-15.114-5.717,5.717a.683.683,0,0,1-.6.19L98.321,32.7l5.965-5.965Zm-7.161-7.161.892,5.305-5.965,5.965-.833-4.959a.683.683,0,0,1,.19-.6ZM87.41,28.248a.043.043,0,0,1-.042.042H81.214a6.54,6.54,0,0,1-4.6-1.931,6.2,6.2,0,0,1-1.839-4.434,6.344,6.344,0,0,1,6.274-6.274h.043a6.2,6.2,0,0,1,4.391,1.839,6.54,6.54,0,0,1,1.931,4.6v6.153Zm9.727,5.638,5.917.994a2.038,2.038,0,0,0,1.514-.345,25.735,25.735,0,0,1,2.842,6.842h-3.735a2.05,2.05,0,0,0-1.667.859l-3.48,4.887H83.9Zm6.538,18.983a.683.683,0,0,1-.556-.286l-2.917-4.1h8.437l3.121,4.382Z" transform="translate(-54.807 -14.287)" fill="#2626bb"/>
        <g id="Group_162319" data-name="Group 162319" transform="translate(5.283 46.468)">
          <g id="Group_162315" data-name="Group 162315" transform="translate(0 3.495)">
            <path id="Path_83098" data-name="Path 83098" d="M99.409,386.362a5.976,5.976,0,0,1-5.869-5.029.682.682,0,1,1,1.348-.207,4.575,4.575,0,0,0,9.041,0,.682.682,0,0,1,1.348.207A5.976,5.976,0,0,1,99.409,386.362Z" transform="translate(-93.532 -380.547)" fill="#6582fd"/>
          </g>
          <g id="Group_162318" data-name="Group 162318" transform="translate(1.464)">
            <g id="Group_162316" data-name="Group 162316">
              <path id="Path_83099" data-name="Path 83099" d="M104.949,356.643a.682.682,0,0,1-.682-.682v-.353a.682.682,0,0,1,1.364,0v.353A.682.682,0,0,1,104.949,356.643Z" transform="translate(-104.267 -354.926)" fill="#6582fd"/>
            </g>
            <g id="Group_162317" data-name="Group 162317" transform="translate(7.461)">
              <path id="Path_83100" data-name="Path 83100" d="M159.64,356.643a.682.682,0,0,1-.682-.682v-.353a.682.682,0,0,1,1.364,0v.353A.682.682,0,0,1,159.64,356.643Z" transform="translate(-158.958 -354.926)" fill="#6582fd"/>
            </g>
          </g>
        </g>
      </g>
    </g>
    <g id="Group_162322" data-name="Group 162322" transform="translate(15.168 1.815)">
      <path id="Path_83101" data-name="Path 83101" d="M138.144,32.048a.682.682,0,0,1-.682-.682.865.865,0,0,0-.864-.864.682.682,0,1,1,0-1.364.865.865,0,0,0,.864-.864.682.682,0,1,1,1.364,0,.865.865,0,0,0,.864.864.682.682,0,0,1,0,1.364.865.865,0,0,0-.864.864A.682.682,0,0,1,138.144,32.048Z" transform="translate(-135.916 -27.592)" fill="#6582fd"/>
    </g>
    <g id="Group_162323" data-name="Group 162323" transform="translate(42.446 61.207)">
      <path id="Path_83102" data-name="Path 83102" d="M338.1,467.425a.682.682,0,0,1-.682-.682.865.865,0,0,0-.864-.864.682.682,0,1,1,0-1.364.865.865,0,0,0,.864-.864.682.682,0,0,1,1.364,0,.865.865,0,0,0,.864.864.682.682,0,1,1,0,1.364.865.865,0,0,0-.864.864A.682.682,0,0,1,338.1,467.425Z" transform="translate(-335.875 -462.969)" fill="#6582fd"/>
    </g>
    <g id="Group_162324" data-name="Group 162324" transform="translate(9.623 6.485)">
      <path id="Path_83103" data-name="Path 83103" d="M98.406,64.42a.679.679,0,0,1-.482-.2l-.746-.745-.746.745a.682.682,0,0,1-.964-.964L96.7,62.028a.682.682,0,0,1,.964,0l1.228,1.228a.682.682,0,0,1-.482,1.164Z" transform="translate(-95.268 -61.828)" fill="#6582fd"/>
    </g>
    <g id="Group_162325" data-name="Group 162325" transform="translate(59.34 20.363)">
      <path id="Path_83104" data-name="Path 83104" d="M462.86,166.15a.679.679,0,0,1-.482-.2l-.746-.745-.746.745a.682.682,0,0,1-.964-.964l1.228-1.228a.682.682,0,0,1,.964,0l1.228,1.228a.682.682,0,0,1-.482,1.164Z" transform="translate(-459.722 -163.558)" fill="#6582fd"/>
    </g>
    <g id="Group_162326" data-name="Group 162326" transform="translate(0 56.606)">
      <path id="Path_83105" data-name="Path 83105" d="M27.863,431.83a.679.679,0,0,1-.482-.2l-.746-.745-.746.745a.682.682,0,0,1-.964-.964l1.228-1.228a.682.682,0,0,1,.964,0l1.228,1.228a.682.682,0,0,1-.482,1.164Z" transform="translate(-24.725 -429.238)" fill="#6582fd"/>
    </g>
  </g>
</svg>
