<svg xmlns="http://www.w3.org/2000/svg" xmlns:xlink="http://www.w3.org/1999/xlink" width="69.845" height="50.942" viewBox="0 0 69.845 50.942">
  <defs>
    <linearGradient id="linear-gradient" x1="1.394" y1="-18.955" x2="1.873" y2="-18.004" gradientUnits="objectBoundingBox">
      <stop offset="0" stop-color="#d2dbfc" stop-opacity="0"/>
      <stop offset="1" stop-color="#b8c1fb"/>
    </linearGradient>
  </defs>
  <g id="mountain_4216446" transform="translate(0)">
    <g id="Group_162330" data-name="Group 162330" transform="translate(0 0)">
      <path id="Path_83106" data-name="Path 83106" d="M68.463,79.58c-3.05-7.76-12.445-12.414-20.4-9.334C38.978,73.761,41.99,88.207,33.74,91.129c-4.457,1.578-11.045-4.317-15.547-5.221C9.9,84.242,2.385,90.1.535,98.2c-1.887,8.271,1.139,19.318,10.227,21.563,10.825,2.674,16.463-7.057,25.544-9.851,9.319-2.867,19.68,3.9,27.394-4.335C69.4,99.494,71.483,87.264,68.463,79.58Z" transform="translate(0 -69.285)" fill="url(#linear-gradient)"/>
      <path id="Path_83107" data-name="Path 83107" d="M75.4,171.386,56.646,143.63a1.357,1.357,0,0,0-.45-.418v-3.938h3.36a.6.6,0,0,0,.6-.6v-3.172a.6.6,0,0,0-.6-.6H54.609a.6.6,0,0,0-.6.6v3.172a.6.6,0,0,0,.6.6h.222v3.951a1.354,1.354,0,0,0-.45.416L42.832,160.658l-6.92-10.2a1.359,1.359,0,0,0-.451-.416V146.1H38.82a.6.6,0,0,0,.6-.6v-3.172a.6.6,0,0,0-.6-.6H33.874a.6.6,0,0,0-.6.6V145.5a.6.6,0,0,0,.6.6H34.1v3.968a1.359,1.359,0,0,0-.451.418l-14.121,20.9a1.366,1.366,0,0,0,1.136,2.129h53.6a1.366,1.366,0,0,0,1.136-2.129Z" transform="translate(-16.658 -125.957)" fill="#2b2ab5" opacity="0.11"/>
      <path id="Path_83108" data-name="Path 83108" d="M206.556,207.1H169.17a1.364,1.364,0,0,1-1.131-2.127l18.693-27.729a1.364,1.364,0,0,1,2.262,0l12.808,19,2.7,4.007,3.185,4.724A1.365,1.365,0,0,1,206.556,207.1Z" transform="translate(-144.913 -161.994)" fill="#fff"/>
      <path id="Path_83109" data-name="Path 83109" d="M293.987,181.721a4.663,4.663,0,0,1-7.827,0l2.783-4.129a1.364,1.364,0,0,1,2.262,0Z" transform="translate(-247.123 -162.297)" fill="#6e80f8"/>
      <path id="Path_83110" data-name="Path 83110" d="M315.375,121.274H310.43a.6.6,0,0,1-.6-.6v-3.172a.6.6,0,0,1,.6-.6h4.946a.6.6,0,0,1,.6.6v3.172A.6.6,0,0,1,315.375,121.274Z" transform="translate(-267.567 -110.412)" fill="#fff"/>
      <path id="Path_83111" data-name="Path 83111" d="M79.624,250.422H51.465a1.365,1.365,0,0,1-1.132-2.127l14.079-20.885a1.365,1.365,0,0,1,2.263,0L80.755,248.3A1.364,1.364,0,0,1,79.624,250.422Z" transform="translate(-43.264 -205.32)" fill="#fff"/>
      <path id="Path_83112" data-name="Path 83112" d="M142.459,231.891a4.663,4.663,0,0,1-7.829,0l2.783-4.128a1.365,1.365,0,0,1,2.263,0Z" transform="translate(-116.264 -205.623)" fill="#6e80f8"/>
      <path id="Path_83113" data-name="Path 83113" d="M163.374,171.274H158.43a.6.6,0,0,1-.6-.6v-3.172a.6.6,0,0,1,.6-.6h4.946a.6.6,0,0,1,.6.6v3.178A.594.594,0,0,1,163.374,171.274Z" transform="translate(-136.302 -153.592)" fill="#fff"/>
      <path id="Path_83114" data-name="Path 83114" d="M356.02,246.182v9.459a1.273,1.273,0,0,1-1.273,1.273H343.106a1.273,1.273,0,0,1-1.273-1.273v-9.459a1.273,1.273,0,0,1,1.273-1.273h11.642A1.273,1.273,0,0,1,356.02,246.182Z" transform="translate(-295.202 -220.951)" fill="#fff"/>
      <path id="Path_83115" data-name="Path 83115" d="M364.176,265.273h-2.253a.7.7,0,0,1-.694-.541.683.683,0,0,1,.668-.823h2.253a.7.7,0,0,1,.694.541A.683.683,0,0,1,364.176,265.273Z" transform="translate(-311.94 -237.359)" fill="#2b2ab5"/>
      <g id="Group_162328" data-name="Group 162328" transform="translate(2.944 9.37)">
        <path id="Path_83116" data-name="Path 83116" d="M356.02,272.847v6.921a1.273,1.273,0,0,1-1.273,1.273H343.106a1.273,1.273,0,0,1-1.273-1.273V277.63h2.411a1.373,1.373,0,0,0,.968-.4l1.819-1.8a1.383,1.383,0,0,1,.97-.4h5.235a1.392,1.392,0,0,0,.537-.108,1.35,1.35,0,0,0,.431-.288Z" transform="translate(-298.146 -254.448)" fill="#6e80f8"/>
        <path id="Path_83117" data-name="Path 83117" d="M372.649,196.479a1.99,1.99,0,1,1,1.408-.582A1.986,1.986,0,0,1,372.649,196.479Zm0-2.619a.628.628,0,1,0,.444.184A.626.626,0,0,0,372.649,193.86Z" transform="translate(-323.039 -185.059)" fill="#6e80f8"/>
        <path id="Path_83118" data-name="Path 83118" d="M399.462,141.955a1.991,1.991,0,1,1,1.408-.583A1.986,1.986,0,0,1,399.462,141.955Zm.926-1.126h0Zm-.926-1.493a.628.628,0,1,0,.444.184A.626.626,0,0,0,399.462,139.336Z" transform="translate(-346.194 -137.973)" fill="#6e80f8"/>
        <path id="Path_83119" data-name="Path 83119" d="M248.49,148.784h-.418v-.418a.7.7,0,0,0-.541-.694.683.683,0,0,0-.823.668v.443h-.418a.7.7,0,0,0-.694.541.683.683,0,0,0,.668.823h.443v.418a.7.7,0,0,0,.541.694.683.683,0,0,0,.823-.668v-.443h.443a.683.683,0,0,0,.668-.823A.7.7,0,0,0,248.49,148.784Z" transform="translate(-215.026 -146.338)" fill="#6e80f8"/>
        <path id="Path_83120" data-name="Path 83120" d="M24.49,320.784h-.418v-.418a.7.7,0,0,0-.541-.694.683.683,0,0,0-.823.668v.443h-.418a.7.7,0,0,0-.694.541.683.683,0,0,0,.668.823h.443v.418a.7.7,0,0,0,.541.694.683.683,0,0,0,.823-.668v-.443h.443a.683.683,0,0,0,.668-.823A.7.7,0,0,0,24.49,320.784Z" transform="translate(-21.583 -294.874)" fill="#6e80f8"/>
        <path id="Path_83121" data-name="Path 83121" d="M471.49,347.784h-.418v-.418a.7.7,0,0,0-.541-.694.683.683,0,0,0-.823.668v.443h-.418a.7.7,0,0,0-.694.541.683.683,0,0,0,.668.823h.443v.418a.7.7,0,0,0,.541.694.683.683,0,0,0,.823-.668v-.443h.443a.683.683,0,0,0,.668-.823A.7.7,0,0,0,471.49,347.784Z" transform="translate(-407.605 -318.191)" fill="#6e80f8"/>
      </g>
      <path id="Path_83122" data-name="Path 83122" d="M111.178,332.548h-2.47a.7.7,0,0,1-.694-.541.683.683,0,0,1,.668-.823h2.584a.675.675,0,0,0,.474-.2l2.888-2.888a2.046,2.046,0,0,1,1.447-.6h13.5a.7.7,0,0,0,.489-.2l1.79-1.79a2.046,2.046,0,0,1,1.447-.6H135.2a2.023,2.023,0,0,1,1.439.6l4.661,4.661a.682.682,0,0,0,.482.2h3.54a.7.7,0,0,1,.694.541.683.683,0,0,1-.668.823h-3.485a2.073,2.073,0,0,1-1.475-.611l-4.778-4.778a.691.691,0,0,0-.492-.2h-1.8a.683.683,0,0,0-.482.2l-1.793,1.793a2.046,2.046,0,0,1-1.447.6H116.144a.682.682,0,0,0-.482.2l-3.021,3.021a2.046,2.046,0,0,1-1.447.6h-.016Z" transform="translate(-93.268 -290.038)" fill="#2b2ab5"/>
      <path id="Path_83123" data-name="Path 83123" d="M138.024,301.909v1.364H129.2a.68.68,0,0,0-.481.2l-2.2,2.2a2.045,2.045,0,0,1-1.446.6h-4.993a.669.669,0,0,0-.478.2l-1.8,1.8a2.018,2.018,0,0,1-1.436.594h-9.042a.7.7,0,0,1-.694-.54.683.683,0,0,1,.668-.824h9.065a.682.682,0,0,0,.482-.2l1.792-1.792a2.049,2.049,0,0,1,1.449-.6h4.973a.68.68,0,0,0,.481-.2l2.19-2.19a2.08,2.08,0,0,1,1.478-.612Z" transform="translate(-92.075 -270.176)" fill="#2b2ab5"/>
      <path id="Path_83124" data-name="Path 83124" d="M79.656,272.909H76.348a.7.7,0,0,0-.694.541.683.683,0,0,0,.668.823H79.63a.7.7,0,0,0,.693-.541.683.683,0,0,0-.668-.823Z" transform="translate(-65.321 -245.132)" fill="#2b2ab5"/>
      <g id="Group_162329" data-name="Group 162329" transform="translate(10.318 30.233)">
        <path id="Path_83125" data-name="Path 83125" d="M86.2,290.909H76.348a.7.7,0,0,0-.694.541.683.683,0,0,0,.668.823h9.856a.7.7,0,0,0,.693-.541A.683.683,0,0,0,86.2,290.909Z" transform="translate(-75.64 -290.909)" fill="#2b2ab5"/>
        <path id="Path_83126" data-name="Path 83126" d="M86.2,307.909H76.348a.7.7,0,0,0-.694.541.683.683,0,0,0,.668.823h9.856a.7.7,0,0,0,.693-.541A.683.683,0,0,0,86.2,307.909Z" transform="translate(-75.64 -305.59)" fill="#2b2ab5"/>
      </g>
    </g>
    <path id="Path_83127" data-name="Path 83127" d="M102.3,144.273l-4.083-6.057h.213a1.957,1.957,0,0,0,1.955-1.955v-9.419a1.957,1.957,0,0,0-1.955-1.955h-9.2L83.6,116.544a2.043,2.043,0,0,0-1.015-.785v-2.533H86.72A1.28,1.28,0,0,0,88,111.946v-3.212a1.28,1.28,0,0,0-1.279-1.279H82.59v-.034a.682.682,0,0,0-1.364,0v.166a1.279,1.279,0,0,0-.716,1.146v3.212a1.279,1.279,0,0,0,.716,1.146v2.666a2.043,2.043,0,0,0-1.014.785L69.266,132.78l-2.031-3.012a.682.682,0,0,0-1.131.763l9.779,14.5a.682.682,0,0,1-.566,1.063H47.158a.682.682,0,0,1-.566-1.063L60.672,124.15a.682.682,0,0,1,1.131,0l2.162,3.208A.682.682,0,1,0,65.1,126.6l-2.162-3.208a2.043,2.043,0,0,0-1.015-.785v-2.534H66.05a1.28,1.28,0,0,0,1.279-1.279v-3.212A1.28,1.28,0,0,0,66.05,114.3H61.919v-.034a.682.682,0,1,0-1.364,0v.166a1.279,1.279,0,0,0-.716,1.146v3.212a1.279,1.279,0,0,0,.716,1.146V122.6a2.043,2.043,0,0,0-1.015.785L45.461,144.273a2.046,2.046,0,0,0,1.7,3.19H100.6a2.046,2.046,0,0,0,1.7-3.19ZM65.965,118.705H61.2v-3.041h4.761Zm32.463,7.546a.591.591,0,0,1,.591.591v2.184l-1.611,1.611a.66.66,0,0,1-.21.142.685.685,0,0,1-.269.055H91.714a2.041,2.041,0,0,0-1.448.6l-1.813,1.813a.682.682,0,0,1-.481.2H86.254v-6.6a.592.592,0,0,1,.591-.591H98.428Zm-11.793-14.39H81.874V108.82h4.761Zm-1.745,24.4a1.957,1.957,0,0,0,1.955,1.955h4.516a.682.682,0,1,0,0-1.364H86.845a.592.592,0,0,1-.591-.591v-1.452h1.718a2.055,2.055,0,0,0,1.447-.6l1.81-1.81a.684.684,0,0,1,.485-.2h5.214a2.047,2.047,0,0,0,.8-.164,2.019,2.019,0,0,0,.644-.435l.643-.643v5.306a.591.591,0,0,1-.591.591H95.194a.682.682,0,1,0,0,1.364h1.375l4.6,6.819a.682.682,0,0,1-.566,1.063H77.245a2.041,2.041,0,0,0-.232-1.826L70.088,134l11.254-16.694a.682.682,0,0,1,1.131,0l5.111,7.581h-.739a1.957,1.957,0,0,0-1.955,1.955Z" transform="translate(-38.957 -101.631)" fill="#2720b9"/>
  </g>
</svg>
