<svg id="rating_4151940" xmlns="http://www.w3.org/2000/svg" xmlns:xlink="http://www.w3.org/1999/xlink" width="69.845" height="66.301" viewBox="0 0 69.845 66.301">
  <defs>
    <linearGradient id="linear-gradient" x1="0.542" y1="-0.047" x2="0.456" y2="1.067" gradientUnits="objectBoundingBox">
      <stop offset="0" stop-color="#d2deff" stop-opacity="0"/>
      <stop offset="1" stop-color="#b7c5ff"/>
    </linearGradient>
  </defs>
  <path id="Path_83128" data-name="Path 83128" d="M69.845,58.335c0-3.769-1.706-7.3-4.685-10.345a28.2,28.2,0,0,1-5.117-7.2c-4.214-8.487-11.4-14.078-19.553-14.078-5.8,0-11.1,2.824-15.2,7.5a26.142,26.142,0,0,1-9.957,7.008C6.081,44.943,0,51.218,0,58.335S6.081,71.726,15.335,75.443a26.143,26.143,0,0,1,9.957,7.008c4.1,4.68,9.4,7.5,15.2,7.5,8.155,0,15.339-5.59,19.553-14.078a28.2,28.2,0,0,1,5.117-7.2C68.139,65.638,69.845,62.1,69.845,58.335Z" transform="translate(0 -24.844)" fill="url(#linear-gradient)"/>
  <g id="Group_162345" data-name="Group 162345" transform="translate(5.358 0)">
    <path id="Path_83129" data-name="Path 83129" d="M132.017,96.772l-7.607-20.9-.7-1.918,1.5.017a1.364,1.364,0,0,0,1.308-1.8l-.561-1.663a1.364,1.364,0,0,1,.886-1.738l1.675-.524a1.364,1.364,0,0,0,.688-2.116l-1.047-1.408a1.364,1.364,0,0,1,.305-1.927l1.431-1.016a1.364,1.364,0,0,0,0-2.225l-1.431-1.016a1.364,1.364,0,0,1-.305-1.927l1.047-1.408a1.364,1.364,0,0,0-.688-2.116l-1.675-.524a1.364,1.364,0,0,1-.886-1.738l.561-1.663a1.364,1.364,0,0,0-1.308-1.8l-1.755.02A1.364,1.364,0,0,1,122.08,46l.02-1.755a1.364,1.364,0,0,0-1.8-1.308l-1.663.561a1.364,1.364,0,0,1-1.738-.885l-.524-1.675a1.364,1.364,0,0,0-2.116-.688L112.851,41.3a1.364,1.364,0,0,1-1.927-.305l-1.015-1.431a1.364,1.364,0,0,0-2.225,0l-1.015,1.431a1.364,1.364,0,0,1-1.927.305l-1.408-1.047a1.364,1.364,0,0,0-2.116.688l-.524,1.675a1.364,1.364,0,0,1-1.738.885l-1.663-.561a1.364,1.364,0,0,0-1.8,1.308L95.513,46a1.364,1.364,0,0,1-1.379,1.379l-1.755-.02a1.364,1.364,0,0,0-1.308,1.8l.561,1.663a1.364,1.364,0,0,1-.886,1.738l-1.675.524a1.364,1.364,0,0,0-.688,2.116l1.047,1.408a1.364,1.364,0,0,1-.305,1.927l-1.431,1.016a1.364,1.364,0,0,0,0,2.225l1.431,1.016a1.364,1.364,0,0,1,.305,1.927l-1.047,1.408a1.364,1.364,0,0,0,.688,2.116l1.675.524a1.364,1.364,0,0,1,.886,1.738l-.561,1.663a1.364,1.364,0,0,0,1.308,1.8l1.5-.017-.7,1.918-7.606,20.9a.52.52,0,0,0,.582.689l6.523-1.195a.52.52,0,0,1,.494.18l4.229,5.109a.521.521,0,0,0,.891-.154l7.084-19.464.746-2.051a1.356,1.356,0,0,1,.543.449l1.015,1.431a1.364,1.364,0,0,0,2.225,0l1.015-1.431a1.356,1.356,0,0,1,.543-.449l.746,2.051L119.3,101.4a.521.521,0,0,0,.891.154l4.229-5.109a.52.52,0,0,1,.494-.18l6.523,1.195A.52.52,0,0,0,132.017,96.772Z" transform="translate(-79.232 -35.443)" fill="#00c" opacity="0.1"/>
    <g id="Group_162344" data-name="Group 162344">
      <g id="Group_162338" data-name="Group 162338" transform="translate(5.631)">
        <g id="Group_162333" data-name="Group 162333" transform="translate(0.681 30.532)">
          <g id="Group_162331" data-name="Group 162331" transform="translate(23.588)">
            <path id="Path_83130" data-name="Path 83130" d="M280.763,265.431l-6.523-1.2a.52.52,0,0,0-.494.18l-4.229,5.109a.521.521,0,0,1-.891-.154l-7.084-19.464-3.082-8.467,12.719-4.63,2.559,7.029,7.607,20.9a.52.52,0,0,1-.582.689Z" transform="translate(-258.46 -236.81)" fill="#fff"/>
            <path id="Path_83131" data-name="Path 83131" d="M301.417,273.64l-2.73-.5a.519.519,0,0,0-.494.18l-1.771,2.139L290.65,259.6l-3.88-10.658,4.994-1.817,3.64,10Z" transform="translate(-282.908 -245.714)" fill="#6583fe"/>
          </g>
          <g id="Group_162332" data-name="Group 162332" transform="translate(0 0)">
            <path id="Path_83132" data-name="Path 83132" d="M108.461,241.44l-3.082,8.467L98.3,269.371a.521.521,0,0,1-.891.154l-4.229-5.109a.52.52,0,0,0-.494-.18l-6.523,1.195a.52.52,0,0,1-.582-.689l7.607-20.9,2.559-7.029Z" transform="translate(-85.544 -236.81)" fill="#fff"/>
            <path id="Path_83133" data-name="Path 83133" d="M132.507,248.937l-3.88,10.658-5.773,15.864-1.771-2.139a.52.52,0,0,0-.494-.18l-2.73.5,6.013-16.52,3.64-10Z" transform="translate(-113.452 -245.714)" fill="#6583fe"/>
          </g>
        </g>
        <g id="Group_162337" data-name="Group 162337">
          <path id="Path_83134" data-name="Path 83134" d="M119.891,18.562l1.015,1.431a1.364,1.364,0,0,0,1.927.305l1.408-1.047a1.364,1.364,0,0,1,2.116.688l.524,1.675a1.364,1.364,0,0,0,1.738.886l1.663-.561a1.364,1.364,0,0,1,1.8,1.308L132.062,25a1.364,1.364,0,0,0,1.379,1.379l1.755-.02a1.364,1.364,0,0,1,1.308,1.8l-.561,1.663a1.364,1.364,0,0,0,.886,1.738l1.675.524a1.364,1.364,0,0,1,.688,2.116l-1.047,1.408a1.364,1.364,0,0,0,.305,1.927l1.431,1.015a1.364,1.364,0,0,1,0,2.225l-1.431,1.015a1.364,1.364,0,0,0-.305,1.927l1.047,1.408a1.364,1.364,0,0,1-.688,2.116l-1.675.524a1.364,1.364,0,0,0-.886,1.738l.561,1.663a1.364,1.364,0,0,1-1.308,1.8l-1.755-.02a1.364,1.364,0,0,0-1.379,1.379l.02,1.755a1.364,1.364,0,0,1-1.8,1.308l-1.663-.561a1.364,1.364,0,0,0-1.738.886l-.524,1.675a1.364,1.364,0,0,1-2.116.688l-1.408-1.047a1.364,1.364,0,0,0-1.927.305l-1.015,1.431a1.364,1.364,0,0,1-2.225,0l-1.015-1.431a1.364,1.364,0,0,0-1.927-.305l-1.408,1.047a1.364,1.364,0,0,1-2.116-.688l-.524-1.675a1.364,1.364,0,0,0-1.738-.886l-1.663.561a1.364,1.364,0,0,1-1.8-1.308l.02-1.755a1.364,1.364,0,0,0-1.379-1.379l-1.755.02a1.364,1.364,0,0,1-1.308-1.8l.561-1.663a1.364,1.364,0,0,0-.886-1.738l-1.675-.524a1.364,1.364,0,0,1-.688-2.116l1.047-1.408a1.364,1.364,0,0,0-.305-1.927l-1.431-1.015a1.364,1.364,0,0,1,0-2.225l1.431-1.015a1.364,1.364,0,0,0,.305-1.927L98.366,34.2a1.364,1.364,0,0,1,.688-2.116l1.675-.524a1.364,1.364,0,0,0,.886-1.738l-.561-1.663a1.364,1.364,0,0,1,1.308-1.8l1.755.02A1.364,1.364,0,0,0,105.495,25l-.02-1.755a1.364,1.364,0,0,1,1.8-1.308l1.663.561a1.364,1.364,0,0,0,1.738-.886l.524-1.675a1.364,1.364,0,0,1,2.116-.688l1.408,1.047a1.364,1.364,0,0,0,1.927-.305l1.015-1.431A1.364,1.364,0,0,1,119.891,18.562Z" transform="translate(-94.844 -17.306)" fill="#6583fe"/>
          <path id="Path_83135" data-name="Path 83135" d="M128.347,71.222l-6.9-18.968a.682.682,0,1,0-1.282.467l6.807,18.7-6.246-1.144a1.205,1.205,0,0,0-1.142.416l-4.049,4.891-7.4-20.324,1.407,1.046a2.046,2.046,0,0,0,3.174-1.031l.524-1.675a.682.682,0,0,1,.869-.443l1.663.561a2.046,2.046,0,0,0,2.7-1.962L118.451,50a.682.682,0,0,1,.682-.69h.008l1.755.02h.023a2.046,2.046,0,0,0,1.939-2.7l-.561-1.663a.682.682,0,0,1,.443-.869l1.675-.524a2.046,2.046,0,0,0,1.031-3.174L124.4,39a.682.682,0,0,1,.152-.963l1.431-1.016a2.046,2.046,0,0,0,0-3.337l-1.431-1.015a.682.682,0,0,1-.153-.963l1.047-1.408a2.046,2.046,0,0,0-1.031-3.174l-1.675-.524a.682.682,0,0,1-.443-.869l.561-1.663a2.046,2.046,0,0,0-1.962-2.7l-1.755.02h-.008a.682.682,0,0,1-.682-.69l.02-1.755a2.046,2.046,0,0,0-2.7-1.962l-1.663.561a.682.682,0,0,1-.869-.443l-.524-1.675a2.046,2.046,0,0,0-3.174-1.031l-1.408,1.047a.682.682,0,0,1-.963-.152l-1.015-1.431h0a2.046,2.046,0,0,0-3.337,0L101.8,15.284a.682.682,0,0,1-.963.153L99.43,14.389a2.046,2.046,0,0,0-3.174,1.032L95.732,17.1a.682.682,0,0,1-.869.443L93.2,16.977a2.046,2.046,0,0,0-2.7,1.962l.02,1.755a.682.682,0,0,1-.682.69H89.83l-1.755-.02h-.023a2.046,2.046,0,0,0-1.939,2.7l.561,1.663a.682.682,0,0,1-.443.869l-1.675.524a2.046,2.046,0,0,0-1.031,3.174L84.573,31.7a.682.682,0,0,1-.152.963L82.989,33.68a2.046,2.046,0,0,0,0,3.337l1.431,1.015a.682.682,0,0,1,.153.963L83.526,40.4a2.046,2.046,0,0,0,1.032,3.174l1.675.524a.682.682,0,0,1,.443.869l-.561,1.663a2.046,2.046,0,0,0,1.962,2.7l.517-.006-6.57,18.05a.682.682,0,0,0,1.282.467l6.732-18.5A.673.673,0,0,1,90.52,50l-.02,1.755a2.046,2.046,0,0,0,2.7,1.962l1.663-.561a.682.682,0,0,1,.869.443l.524,1.675a2.047,2.047,0,0,0,3.174,1.031l1.407-1.046-7.4,20.324L89.39,70.695a1.2,1.2,0,0,0-1.143-.416l-6.3,1.154a.682.682,0,0,0-1.323-.211,1.2,1.2,0,0,0,.211,1.187,1.189,1.189,0,0,0,1.135.407l6.43-1.178,4.169,5.036a1.187,1.187,0,0,0,.92.436,1.229,1.229,0,0,0,.211-.018,1.189,1.189,0,0,0,.925-.773l7.462-20.5.73,1.029a2.046,2.046,0,0,0,3.337,0l.73-1.029,7.462,20.5a1.189,1.189,0,0,0,.925.773,1.23,1.23,0,0,0,.211.018,1.188,1.188,0,0,0,.921-.436l4.168-5.035L127,72.816a1.19,1.19,0,0,0,1.135-.407,1.2,1.2,0,0,0,.211-1.187Zm-22.29-16.6-1.015,1.431a.682.682,0,0,1-1.112,0l-1.016-1.431a2.03,2.03,0,0,0-1.348-.837,2.068,2.068,0,0,0-.325-.026,2.03,2.03,0,0,0-1.216.4l-1.408,1.047a.682.682,0,0,1-1.058-.344L97.034,53.2a2.046,2.046,0,0,0-2.607-1.328l-1.663.561a.682.682,0,0,1-.9-.654l.02-1.755a2.047,2.047,0,0,0-2.046-2.069h-.023l-1.755.02h-.008a.682.682,0,0,1-.646-.9l.561-1.663A2.046,2.046,0,0,0,86.639,42.8l-1.675-.524a.682.682,0,0,1-.344-1.058l1.047-1.408a2.047,2.047,0,0,0-.458-2.89l-1.431-1.015a.682.682,0,0,1,0-1.112l1.431-1.016a2.046,2.046,0,0,0,.458-2.89L84.62,29.479a.682.682,0,0,1,.344-1.058l1.675-.524a2.046,2.046,0,0,0,1.328-2.607l-.561-1.663a.682.682,0,0,1,.646-.9h.008l1.755.02h.024a2.046,2.046,0,0,0,2.046-2.069l-.02-1.755a.682.682,0,0,1,.9-.654l1.663.561A2.046,2.046,0,0,0,97.034,17.5l.524-1.675a.682.682,0,0,1,1.058-.344l1.408,1.047a2.047,2.047,0,0,0,2.89-.458l1.015-1.431a.682.682,0,0,1,1.112,0l1.016,1.431a2.046,2.046,0,0,0,2.89.458l1.408-1.047a.682.682,0,0,1,1.058.344l.524,1.675a2.046,2.046,0,0,0,2.607,1.328l1.663-.561a.682.682,0,0,1,.9.654l-.02,1.755a2.046,2.046,0,0,0,2.046,2.069h.023l1.755-.02a.666.666,0,0,1,.559.281.674.674,0,0,1,.095.619L121,25.29a2.046,2.046,0,0,0,1.328,2.607l1.675.524a.682.682,0,0,1,.344,1.058L123.3,30.887a2.047,2.047,0,0,0,.458,2.89l1.431,1.015a.682.682,0,0,1,0,1.112l-1.431,1.016a2.046,2.046,0,0,0-.458,2.89l1.047,1.408a.682.682,0,0,1-.344,1.058l-1.675.524A2.046,2.046,0,0,0,121,45.407l.561,1.663a.674.674,0,0,1-.095.619.661.661,0,0,1-.559.281l-1.755-.02a2.046,2.046,0,0,0-2.069,2.069l.02,1.755a.682.682,0,0,1-.9.654l-1.663-.561a2.046,2.046,0,0,0-2.607,1.328l-.524,1.675a.682.682,0,0,1-1.058.344l-1.408-1.047a2.047,2.047,0,0,0-2.89.458Z" transform="translate(-80.552 -12.991)" fill="#00c"/>
          <ellipse id="Ellipse_14" data-name="Ellipse 14" cx="16.595" cy="16.595" rx="16.595" ry="16.595" transform="translate(7.339 5.763)" fill="#fff"/>
          <path id="Path_83136" data-name="Path 83136" d="M164.136,99.532a14.511,14.511,0,1,1,14.511-14.511A14.528,14.528,0,0,1,164.136,99.532Zm0-27.658a13.147,13.147,0,1,0,13.147,13.147A13.162,13.162,0,0,0,164.136,71.874Z" transform="translate(-140.202 -62.664)" fill="#00c"/>
          <g id="Group_162336" data-name="Group 162336" transform="translate(16.205 10.623)">
            <g id="Group_162334" data-name="Group 162334" transform="translate(0 7.459)">
              <path id="Path_83137" data-name="Path 83137" d="M207.075,157.254a.682.682,0,0,1-.5-.223l-7.046-7.746a.682.682,0,0,1-.046-.862l1.9-2.6a.682.682,0,0,1,.551-.28h10.286a.682.682,0,0,1,.551.28l1.9,2.6a.682.682,0,0,1-.046.862l-7.046,7.746A.682.682,0,0,1,207.075,157.254Zm-6.167-8.475,6.167,6.779,6.167-6.779-1.37-1.873h-9.594Z" transform="translate(-199.346 -145.542)" fill="#00c"/>
              <path id="Path_83138" data-name="Path 83138" d="M236.683,157.255a.682.682,0,0,1-.652-.482l-2.369-7.746a.683.683,0,0,1-.01-.362l.64-2.6a.682.682,0,0,1,.662-.519h3.459a.682.682,0,0,1,.662.519l.64,2.6a.684.684,0,0,1-.01.362l-2.369,7.746A.682.682,0,0,1,236.683,157.255Zm-1.662-8.448,1.662,5.434,1.662-5.434-.467-1.9h-2.389Z" transform="translate(-228.954 -145.543)" fill="#00c"/>
              <path id="Path_83139" data-name="Path 83139" d="M214.121,165.985H200.028a.682.682,0,1,1,0-1.364h14.093a.682.682,0,1,1,0,1.364Z" transform="translate(-199.346 -162.018)" fill="#00c"/>
            </g>
            <g id="Group_162335" data-name="Group 162335" transform="translate(6.194 21.422)">
              <path id="Path_83140" data-name="Path 83140" d="M247.137,249.268h-1.705a.682.682,0,1,1,0-1.364h1.705a.682.682,0,0,1,0,1.364Z" transform="translate(-244.75 -247.904)" fill="#00c"/>
            </g>
            <path id="Path_83141" data-name="Path 83141" d="M246.981,96.331a.682.682,0,0,1-.682-.682V92.23h-.061a.682.682,0,0,1,0-1.364h.743a.682.682,0,0,1,.682.682v4.1A.682.682,0,0,1,246.981,96.331Z" transform="translate(-239.252 -90.866)" fill="#00c"/>
          </g>
        </g>
      </g>
      <g id="Group_162341" data-name="Group 162341" transform="translate(0 25.974)">
        <g id="Group_162339" data-name="Group 162339" transform="translate(0 6.908)">
          <path id="Path_83142" data-name="Path 83142" d="M42.687,256.762a.679.679,0,0,1-.482-.2l-.882-.882-.882.882a.682.682,0,1,1-.964-.964l1.364-1.364a.682.682,0,0,1,.964,0l1.364,1.364a.682.682,0,0,1-.482,1.164Z" transform="translate(-39.276 -254.033)" fill="#6583fe"/>
        </g>
        <g id="Group_162340" data-name="Group 162340" transform="translate(55.036)">
          <path id="Path_83143" data-name="Path 83143" d="M446.135,206.122a.679.679,0,0,1-.482-.2l-.882-.882-.882.882a.682.682,0,0,1-.964-.964l1.364-1.364a.682.682,0,0,1,.964,0l1.364,1.364a.682.682,0,0,1-.482,1.164Z" transform="translate(-442.724 -203.393)" fill="#6583fe"/>
        </g>
      </g>
      <g id="Group_162342" data-name="Group 162342" transform="translate(51.391 34.246)">
        <path id="Path_83144" data-name="Path 83144" d="M419.411,266.762a.679.679,0,0,1-.482-.2l-.882-.882-.882.882a.682.682,0,0,1-.964-.964l1.364-1.364a.682.682,0,0,1,.964,0l1.364,1.364a.682.682,0,0,1-.482,1.164Z" transform="translate(-416 -264.033)" fill="#6583fe"/>
      </g>
      <g id="Group_162343" data-name="Group 162343" transform="translate(3.857 9.764)">
        <path id="Path_83145" data-name="Path 83145" d="M81.226,312.262a.682.682,0,0,1-.482-1.164l1.364-1.364a.682.682,0,0,1,.964.964l-1.364,1.364A.679.679,0,0,1,81.226,312.262Z" transform="translate(-78.772 -278.845)" fill="#6583fe"/>
        <path id="Path_83146" data-name="Path 83146" d="M68.235,87.3a.682.682,0,0,1-.482-1.164l1.364-1.364a.682.682,0,1,1,.964.964L68.718,87.1A.679.679,0,0,1,68.235,87.3Z" transform="translate(-67.553 -84.569)" fill="#6583fe"/>
      </g>
    </g>
  </g>
</svg>
