<svg xmlns="http://www.w3.org/2000/svg" width="47.609" height="42.014" viewBox="0 0 47.609 42.014">
  <path id="Quote" d="M22.71,4.542l-10.057,19.3-5.029,1.3a9.055,9.055,0,0,1,2.028-2.92,4.032,4.032,0,0,1,2.838-1.135,8.8,8.8,0,0,1,6.245,2.758,9.519,9.519,0,0,1,2.839,7.137,10.751,10.751,0,0,1-3.164,7.786,10.163,10.163,0,0,1-7.543,3.245,10.427,10.427,0,0,1-7.624-3.245A10.608,10.608,0,0,1,0,30.983a15.843,15.843,0,0,1,.73-4.3,38.444,38.444,0,0,1,2.839-6.57L14.437,0Zm24.9,0-10.057,19.3-5.029,1.3a9.054,9.054,0,0,1,2.028-2.92,4.034,4.034,0,0,1,2.839-1.135,8.8,8.8,0,0,1,6.245,2.758,9.519,9.519,0,0,1,2.838,7.137,10.751,10.751,0,0,1-3.164,7.786,10.163,10.163,0,0,1-7.543,3.245,10.427,10.427,0,0,1-7.624-3.245A10.608,10.608,0,0,1,24.9,30.983a14.379,14.379,0,0,1,.811-4.3,55.475,55.475,0,0,1,2.758-6.57L39.336,0Z" fill="#1d89ff"/>
</svg>
