<svg width="71" height="110" viewBox="0 0 71 110" fill="none" xmlns="http://www.w3.org/2000/svg">
<path d="M31.7042 37.2245C31.187 47.2541 50.324 59.4647 62.7372 66.1885C48.4275 62.568 25.4976 48.086 25.4976 36.19C25.4976 24.2941 48.7724 13.4325 62.7372 8.26038C48.2551 14.467 32.2214 27.1948 31.7042 37.2245Z" fill="#DD1818"/>
<path d="M40.501 36.1899C41.0183 26.1603 20.1572 13.4324 8.43365 8.26029C22.7433 11.8808 46.7076 26.3628 46.7076 36.1899C46.7076 46.017 22.3985 61.0163 8.43365 66.1885C22.9157 59.9819 39.9838 46.2196 40.501 36.1899Z" fill="#003A72"/>
<path d="M62.7372 8.26028C48.2551 14.4669 32.2215 27.1947 31.7042 37.2244L25.4976 36.1899C25.4976 24.294 48.7724 13.4324 62.7372 8.26028Z" fill="#DD1818"/>
<circle cx="35.6779" cy="6.20659" r="6.20659" fill="#0BA14B"/>
<path d="M21.0877 85.5515C21.0877 89.189 18.2224 91.7383 13.0845 91.7383H0.931519V69.6026H12.4258C17.5637 69.6026 20.429 71.9343 20.429 75.5718C20.429 77.9967 19.1445 79.7999 16.5097 80.3595C19.5727 80.8881 21.0877 82.9089 21.0877 85.5515ZM15.7852 85.1473C15.7852 83.3441 14.6654 82.2871 12.4587 82.2871H6.23404V88.0076H12.4587C14.6654 88.0076 15.7852 86.9505 15.7852 85.1473ZM15.1265 75.9759C15.1265 74.1727 14.0067 73.3333 11.8 73.3333H6.23404V78.6185H11.8C14.0067 78.6185 15.1265 77.7791 15.1265 75.9759Z" fill="#003A72"/>
<path d="M28.9411 91.7383H23.6386V69.6026H41.2259V73.6753H28.9411V78.5253H40.1719V82.3804H28.9411V91.7383Z" fill="#003A72"/>
<path d="M52.4109 92.0492C45.7251 92.0492 42.4316 89.2822 42.4316 84.5255H47.6353C47.9646 87.1681 49.315 88.3185 52.5426 88.3185C55.6385 88.3185 57.0876 87.0749 57.0876 85.396C57.0876 83.997 56.2313 83.1265 52.8061 82.6602L50.0725 82.2871C45.0993 81.6342 43.0244 80.0487 43.0244 76.1936C43.0244 72.2141 46.1532 69.2917 52.4109 69.2917C58.6685 69.2917 61.7973 72.183 61.7973 76.5045H56.7583C56.4619 74.2038 55.0457 73.0224 52.2791 73.0224C49.5126 73.0224 48.3269 74.2038 48.3269 75.8827C48.3269 77.2817 49.0186 77.9035 51.9827 78.3076L54.7163 78.6496C59.6236 79.3336 62.3901 81.0746 62.3901 85.0851C62.3901 89.1579 59.0966 92.0492 52.4109 92.0492Z" fill="#003A72"/>
<path d="M70.2384 91.7383H64.9359V69.6026H70.2384V91.7383Z" fill="#003A72"/>
<path d="M0.931519 94.118H70.2384" stroke="#DD1818" stroke-width="1.76471"/>
<path d="M3.7413 98.6815C3.7413 99.218 3.34596 99.6086 2.63057 99.6086H0.931519V96.2576H2.53644C3.25183 96.2576 3.64717 96.6153 3.64717 97.1518C3.64717 97.5189 3.46362 97.7966 3.0871 97.8861C3.5248 97.9708 3.7413 98.2814 3.7413 98.6815ZM3.10122 98.6344C3.10122 98.3332 2.91766 98.1355 2.55997 98.1355H1.5716V99.1286H2.55997C2.91766 99.1286 3.10122 98.9356 3.10122 98.6344ZM3.00709 97.2036C3.00709 96.9024 2.82353 96.7377 2.46584 96.7377H1.5716V97.6648H2.46584C2.82353 97.6648 3.00709 97.5048 3.00709 97.2036Z" fill="black"/>
<path d="M4.76596 99.6086H4.12588V96.2576H6.56855V96.78H4.76596V97.6554H6.41794V98.1449H4.76596V99.6086Z" fill="black"/>
<path d="M8.14931 99.6557C7.21743 99.6557 6.7656 99.2462 6.7656 98.5308H7.38686C7.43863 98.9733 7.64101 99.1756 8.16343 99.1756C8.67174 99.1756 8.89294 98.9591 8.89294 98.6485C8.89294 98.4179 8.76587 98.2673 8.25286 98.192L7.82456 98.1308C7.1233 98.032 6.85032 97.7872 6.85032 97.2413C6.85032 96.6388 7.27861 96.2105 8.14931 96.2105C9.02002 96.2105 9.44831 96.6341 9.44831 97.2883H8.84117C8.79881 96.893 8.58231 96.6906 8.13519 96.6906C7.68808 96.6906 7.4904 96.8977 7.4904 97.2036C7.4904 97.4342 7.59865 97.5519 8.04577 97.6131L8.47406 97.6743C9.15651 97.7731 9.53303 98.032 9.53303 98.6109C9.53303 99.2368 9.0812 99.6557 8.14931 99.6557Z" fill="black"/>
<path d="M10.5572 99.6086H9.91709V96.2576H10.5572V99.6086Z" fill="black"/>
<path d="M13.5039 99.6557C12.572 99.6557 12.1202 99.2462 12.1202 98.5308H12.7414C12.7932 98.9733 12.9956 99.1756 13.518 99.1756C14.0263 99.1756 14.2475 98.9591 14.2475 98.6485C14.2475 98.4179 14.1204 98.2673 13.6074 98.192L13.1791 98.1308C12.4779 98.032 12.2049 97.7872 12.2049 97.2413C12.2049 96.6388 12.6332 96.2105 13.5039 96.2105C14.3746 96.2105 14.8029 96.6341 14.8029 97.2883H14.1957C14.1534 96.893 13.9369 96.6906 13.4898 96.6906C13.0426 96.6906 12.845 96.8977 12.845 97.2036C12.845 97.4342 12.9532 97.5519 13.4003 97.6131L13.8286 97.6743C14.5111 97.7731 14.8876 98.032 14.8876 98.6109C14.8876 99.2368 14.4358 99.6557 13.5039 99.6557Z" fill="black"/>
<path d="M16.373 99.6557C15.5823 99.6557 15.1399 99.1615 15.1399 98.3944C15.1399 97.646 15.5635 97.133 16.3447 97.133C17.1307 97.133 17.5543 97.6507 17.5543 98.3661C17.5543 98.4179 17.5496 98.465 17.5449 98.5214H15.747C15.7658 99.0156 16.0012 99.2415 16.373 99.2415C16.6742 99.2415 16.8719 99.0909 16.9425 98.8415H17.5025C17.399 99.3404 17.0272 99.6557 16.373 99.6557ZM16.3447 97.5472C16.0106 97.5472 15.7988 97.7402 15.747 98.1261H16.9472C16.8954 97.7402 16.6789 97.5472 16.3447 97.5472Z" fill="black"/>
<path d="M19.0292 99.6557C18.2527 99.6557 17.8103 99.1615 17.8103 98.3944C17.8103 97.6319 18.2527 97.133 19.0292 97.133C19.8152 97.133 20.1729 97.6272 20.1729 98.1026H19.6034C19.5611 97.8155 19.3964 97.5942 19.0292 97.5942C18.6433 97.5942 18.4174 97.8578 18.4174 98.3944C18.4174 98.9309 18.6433 99.1945 19.0292 99.1945C19.3493 99.1945 19.5564 99.0297 19.6034 98.6673H20.1729C20.1729 99.1898 19.787 99.6557 19.0292 99.6557Z" fill="black"/>
<path d="M21.415 99.6322C20.8643 99.6322 20.6808 99.4627 20.6808 98.9262V97.6131H20.2995V97.1801H20.6808V96.4459H21.2879V97.1801H21.815V97.6131H21.2879V98.9497C21.2879 99.138 21.3679 99.2039 21.5609 99.2039L21.815 99.1992V99.6086C21.7162 99.618 21.5232 99.6322 21.415 99.6322Z" fill="black"/>
<path d="M23.1891 99.6557C22.3984 99.6557 21.956 99.1615 21.956 98.3944C21.956 97.6319 22.3984 97.133 23.1891 97.133C23.9845 97.133 24.427 97.6319 24.427 98.3944C24.427 99.1615 23.9845 99.6557 23.1891 99.6557ZM23.1891 99.1945C23.5939 99.1945 23.8198 98.9309 23.8198 98.3944C23.8198 97.8578 23.5939 97.5942 23.1891 97.5942C22.7891 97.5942 22.5632 97.8578 22.5632 98.3944C22.5632 98.9309 22.7891 99.1945 23.1891 99.1945Z" fill="black"/>
<path d="M25.3829 99.6086H24.7757V97.1801H25.3546V97.7213C25.4817 97.293 25.6935 97.1471 26.0323 97.1471C26.0982 97.1471 26.1971 97.166 26.2536 97.1801V97.7119L26.0041 97.7072C25.6323 97.7072 25.3829 97.9849 25.3829 98.4791V99.6086Z" fill="black"/>
<path d="M29.0344 99.6557C28.1025 99.6557 27.6507 99.2462 27.6507 98.5308H28.272C28.3238 98.9733 28.5261 99.1756 29.0486 99.1756C29.5569 99.1756 29.7781 98.9591 29.7781 98.6485C29.7781 98.4179 29.651 98.2673 29.138 98.192L28.7097 98.1308C28.0084 98.032 27.7354 97.7872 27.7354 97.2413C27.7354 96.6388 28.1637 96.2105 29.0344 96.2105C29.9051 96.2105 30.3334 96.6341 30.3334 97.2883H29.7263C29.6839 96.893 29.4674 96.6906 29.0203 96.6906C28.5732 96.6906 28.3755 96.8977 28.3755 97.2036C28.3755 97.4342 28.4838 97.5519 28.9309 97.6131L29.3592 97.6743C30.0416 97.7731 30.4181 98.032 30.4181 98.6109C30.4181 99.2368 29.9663 99.6557 29.0344 99.6557Z" fill="black"/>
<path d="M33.1555 99.6086H32.4542L31.7435 98.5638L31.3717 98.9309V99.6086H30.7646V96.2576H31.3717V98.239L32.4024 97.1801H33.1084L32.153 98.1402L33.1555 99.6086Z" fill="black"/>
<path d="M34.0145 99.6086H33.4074V97.1801H34.0145V99.6086ZM33.7133 96.8177C33.4874 96.8177 33.3603 96.6812 33.3603 96.5023C33.3603 96.3235 33.4874 96.187 33.7133 96.187C33.9392 96.187 34.0616 96.3235 34.0616 96.5023C34.0616 96.6812 33.9392 96.8177 33.7133 96.8177Z" fill="black"/>
<path d="M35.0624 99.6086H34.4553V96.2576H35.0624V99.6086Z" fill="black"/>
<path d="M36.1104 99.6086H35.5032V96.2576H36.1104V99.6086Z" fill="black"/>
<path d="M39.2951 99.6557C38.2314 99.6557 37.6337 98.9544 37.6337 97.9331C37.6337 96.9118 38.2314 96.2105 39.2951 96.2105C40.2175 96.2105 40.8435 96.7565 40.8435 97.4813H40.2364C40.1799 97.053 39.8787 96.733 39.2951 96.733C38.622 96.733 38.2737 97.1613 38.2737 97.9331C38.2737 98.705 38.622 99.1333 39.2951 99.1333C39.8693 99.1333 40.1799 98.8321 40.2364 98.3567H40.8435C40.8435 99.0956 40.2364 99.6557 39.2951 99.6557Z" fill="black"/>
<path d="M42.3323 99.6557C41.5416 99.6557 41.0992 99.1615 41.0992 98.3944C41.0992 97.6319 41.5416 97.133 42.3323 97.133C43.1277 97.133 43.5701 97.6319 43.5701 98.3944C43.5701 99.1615 43.1277 99.6557 42.3323 99.6557ZM42.3323 99.1945C42.7371 99.1945 42.963 98.9309 42.963 98.3944C42.963 97.8578 42.7371 97.5942 42.3323 97.5942C41.9322 97.5942 41.7063 97.8578 41.7063 98.3944C41.7063 98.9309 41.9322 99.1945 42.3323 99.1945Z" fill="black"/>
<path d="M44.7472 99.6557C44.1919 99.6557 43.9189 99.3733 43.9189 98.785V97.1801H44.526V98.6673C44.526 98.9968 44.6437 99.1615 44.9402 99.1615C45.2602 99.1615 45.4673 98.9309 45.4673 98.5356V97.1801H46.0745V99.6086H45.4956V99.2133C45.3638 99.4721 45.1473 99.6557 44.7472 99.6557Z" fill="black"/>
<path d="M48.6713 99.6086H48.0642V98.1214C48.0642 97.7919 47.9465 97.6272 47.65 97.6272C47.33 97.6272 47.1229 97.8578 47.1229 98.2532V99.6086H46.5157V97.1801H47.0946V97.5754C47.2264 97.3166 47.4429 97.133 47.8383 97.133C48.3936 97.133 48.6713 97.4154 48.6713 98.0037V99.6086Z" fill="black"/>
<path d="M50.2374 99.6557C49.4609 99.6557 49.0184 99.1615 49.0184 98.3944C49.0184 97.6319 49.4609 97.133 50.2374 97.133C51.0234 97.133 51.3811 97.6272 51.3811 98.1026H50.8116C50.7693 97.8155 50.6045 97.5942 50.2374 97.5942C49.8515 97.5942 49.6256 97.8578 49.6256 98.3944C49.6256 98.9309 49.8515 99.1945 50.2374 99.1945C50.5575 99.1945 50.7646 99.0297 50.8116 98.6673H51.3811C51.3811 99.1898 50.9952 99.6557 50.2374 99.6557Z" fill="black"/>
<path d="M52.289 99.6086H51.6818V97.1801H52.289V99.6086ZM51.9878 96.8177C51.7619 96.8177 51.6348 96.6812 51.6348 96.5023C51.6348 96.3235 51.7619 96.187 51.9878 96.187C52.2137 96.187 52.3361 96.3235 52.3361 96.5023C52.3361 96.6812 52.2137 96.8177 51.9878 96.8177Z" fill="black"/>
<path d="M53.3369 99.6086H52.7298V96.2576H53.3369V99.6086Z" fill="black"/>
<path d="M56.0933 99.6557C55.3026 99.6557 54.8602 99.1615 54.8602 98.3944C54.8602 97.6319 55.3026 97.133 56.0933 97.133C56.8887 97.133 57.3311 97.6319 57.3311 98.3944C57.3311 99.1615 56.8887 99.6557 56.0933 99.6557ZM56.0933 99.1945C56.4981 99.1945 56.724 98.9309 56.724 98.3944C56.724 97.8578 56.4981 97.5942 56.0933 97.5942C55.6933 97.5942 55.4674 97.8578 55.4674 98.3944C55.4674 98.9309 55.6933 99.1945 56.0933 99.1945Z" fill="black"/>
<path d="M58.416 99.6086H57.8088V97.6131H57.4276V97.1801H57.8088V96.9683C57.8088 96.46 58.0206 96.2341 58.5431 96.2341C58.6513 96.2341 58.8443 96.2482 58.9431 96.2576V96.6671L58.689 96.6624C58.496 96.6624 58.416 96.7565 58.416 96.9448V97.1801H58.9431V97.6131H58.416V99.6086Z" fill="black"/>
<path d="M61.1107 99.6086H60.4707V96.2576H61.1107V99.6086Z" fill="black"/>
<path d="M63.7468 99.6086H63.1397V98.1214C63.1397 97.7919 63.022 97.6272 62.7255 97.6272C62.4055 97.6272 62.1984 97.8578 62.1984 98.2532V99.6086H61.5913V97.1801H62.1702V97.5754C62.3019 97.3166 62.5184 97.133 62.9138 97.133C63.4692 97.133 63.7468 97.4154 63.7468 98.0037V99.6086Z" fill="black"/>
<path d="M65.1624 99.6557C64.5081 99.6557 64.094 99.1898 64.094 98.3944C64.094 97.599 64.5081 97.133 65.1624 97.133C65.5295 97.133 65.7742 97.2836 65.9107 97.5472V96.2576H66.5178V99.6086H65.9389V99.1945C65.8071 99.4769 65.5671 99.6557 65.1624 99.6557ZM65.3035 99.1945C65.6659 99.1945 65.9107 98.9497 65.9107 98.3944C65.9107 97.839 65.6659 97.5942 65.3035 97.5942C64.9459 97.5942 64.7011 97.839 64.7011 98.3944C64.7011 98.9497 64.9459 99.1945 65.3035 99.1945Z" fill="black"/>
<path d="M67.5667 99.6086H66.9596V97.1801H67.5667V99.6086ZM67.2655 96.8177C67.0396 96.8177 66.9125 96.6812 66.9125 96.5023C66.9125 96.3235 67.0396 96.187 67.2655 96.187C67.4914 96.187 67.6138 96.3235 67.6138 96.5023C67.6138 96.6812 67.4914 96.8177 67.2655 96.8177Z" fill="black"/>
<path d="M68.7888 99.6557C68.2193 99.6557 67.9134 99.3686 67.9134 98.9215C67.9134 98.5497 68.1346 98.2532 68.7465 98.2061L69.2407 98.1637C69.4854 98.1402 69.556 98.0743 69.556 97.9472C69.556 97.7072 69.4101 97.566 69.1089 97.566C68.8265 97.566 68.6712 97.6884 68.6476 97.9472H68.0452C68.0452 97.4531 68.3558 97.133 69.1042 97.133C69.8525 97.133 70.1631 97.4531 70.1631 97.9472V98.9874C70.1631 99.3168 70.1914 99.5286 70.2384 99.6086H69.6878C69.6172 99.5192 69.5842 99.4204 69.5842 99.2321C69.4477 99.5098 69.203 99.6557 68.7888 99.6557ZM68.9677 99.2415C69.3442 99.2415 69.556 98.9544 69.556 98.6014V98.432C69.5136 98.4838 69.4007 98.512 69.2359 98.5261L68.9488 98.5497C68.6429 98.5779 68.5206 98.705 68.5206 98.8791C68.5206 99.0956 68.657 99.2415 68.9677 99.2415Z" fill="black"/>
<path d="M1.68727 106.926H0.931519V106.196C0.931519 105.621 1.06088 105.221 1.45578 104.933L1.91196 105.13C1.72813 105.452 1.68727 105.698 1.68727 106.196V106.926ZM3.08985 106.926H2.33409V106.196C2.33409 105.621 2.46346 105.221 2.85836 104.933L3.31453 105.13C3.12389 105.452 3.08985 105.698 3.08985 106.196V106.926Z" fill="black"/>
<path d="M7.59103 109.93H6.63783L6.27016 108.891H4.15949L3.79183 109.93H2.83862L4.6429 104.933H5.78675L7.59103 109.93ZM6.03867 108.154L5.21483 105.803L4.38418 108.154H6.03867Z" fill="black"/>
<path d="M11.0765 109.93H10.1981V107.712C10.1981 107.221 10.0279 106.975 9.59898 106.975C9.136 106.975 8.83642 107.319 8.83642 107.909V109.93H7.95811V106.309H8.79557V106.898C8.98621 106.512 9.29941 106.238 9.87133 106.238C10.6747 106.238 11.0765 106.66 11.0765 107.537V109.93Z" fill="black"/>
<path d="M14.2953 109.93H13.417V106.309H14.2953V109.93ZM13.8595 105.768C13.5327 105.768 13.3489 105.565 13.3489 105.298C13.3489 105.031 13.5327 104.828 13.8595 104.828C14.1863 104.828 14.3634 105.031 14.3634 105.298C14.3634 105.565 14.1863 105.768 13.8595 105.768Z" fill="black"/>
<path d="M18.0513 109.93H17.173V107.712C17.173 107.221 17.0028 106.975 16.5738 106.975C16.1108 106.975 15.8113 107.319 15.8113 107.909V109.93H14.9329V106.309H15.7704V106.898C15.961 106.512 16.2742 106.238 16.8462 106.238C17.6496 106.238 18.0513 106.66 18.0513 107.537V109.93Z" fill="black"/>
<path d="M19.568 109.93H18.6896V106.309H19.568V109.93ZM19.1322 105.768C18.8054 105.768 18.6216 105.565 18.6216 105.298C18.6216 105.031 18.8054 104.828 19.1322 104.828C19.459 104.828 19.636 105.031 19.636 105.298C19.636 105.565 19.459 105.768 19.1322 105.768Z" fill="black"/>
<path d="M21.5674 109.965C20.7707 109.965 20.5052 109.712 20.5052 108.912V106.954H19.9537V106.309H20.5052V105.214H21.3835V106.309H22.1461V106.954H21.3835V108.947C21.3835 109.228 21.4993 109.326 21.7784 109.326L22.1461 109.319V109.93C22.0031 109.944 21.7239 109.965 21.5674 109.965Z" fill="black"/>
<path d="M23.5241 109.93H22.6458V106.309H23.5241V109.93ZM23.0884 105.768C22.7616 105.768 22.5777 105.565 22.5777 105.298C22.5777 105.031 22.7616 104.828 23.0884 104.828C23.4152 104.828 23.5922 105.031 23.5922 105.298C23.5922 105.565 23.4152 105.768 23.0884 105.768Z" fill="black"/>
<path d="M25.292 110C24.4682 110 24.0256 109.572 24.0256 108.905C24.0256 108.351 24.3456 107.909 25.2308 107.839L25.9457 107.775C26.2997 107.74 26.4018 107.642 26.4018 107.453C26.4018 107.095 26.1908 106.884 25.755 106.884C25.3465 106.884 25.1218 107.067 25.0878 107.453H24.2163C24.2163 106.716 24.6656 106.238 25.7482 106.238C26.8308 106.238 27.2801 106.716 27.2801 107.453V109.003C27.2801 109.495 27.321 109.811 27.3891 109.93H26.5925C26.4903 109.796 26.4427 109.649 26.4427 109.368C26.2452 109.782 25.8912 110 25.292 110ZM25.5508 109.382C26.0954 109.382 26.4018 108.954 26.4018 108.428V108.175C26.3406 108.253 26.1772 108.295 25.9389 108.316L25.5235 108.351C25.081 108.393 24.9039 108.582 24.9039 108.842C24.9039 109.165 25.1014 109.382 25.5508 109.382Z" fill="black"/>
<path d="M29.2137 109.965C28.4171 109.965 28.1516 109.712 28.1516 108.912V106.954H27.6001V106.309H28.1516V105.214H29.0299V106.309H29.7925V106.954H29.0299V108.947C29.0299 109.228 29.1457 109.326 29.4248 109.326L29.7925 109.319V109.93C29.6495 109.944 29.3703 109.965 29.2137 109.965Z" fill="black"/>
<path d="M31.1705 109.93H30.2922V106.309H31.1705V109.93ZM30.7348 105.768C30.408 105.768 30.2241 105.565 30.2241 105.298C30.2241 105.031 30.408 104.828 30.7348 104.828C31.0616 104.828 31.2386 105.031 31.2386 105.298C31.2386 105.565 31.0616 105.768 30.7348 105.768Z" fill="black"/>
<path d="M33.8984 109.93H32.8363L31.5358 106.309H32.455L33.3674 109.137L34.2797 106.309H35.1989L33.8984 109.93Z" fill="black"/>
<path d="M37.0065 110C35.8626 110 35.2226 109.263 35.2226 108.119C35.2226 107.003 35.8354 106.238 36.9656 106.238C38.1026 106.238 38.7154 107.01 38.7154 108.077C38.7154 108.154 38.7086 108.224 38.7018 108.309H36.1009C36.1282 109.046 36.4686 109.382 37.0065 109.382C37.4422 109.382 37.7282 109.158 37.8303 108.786H38.6405C38.4907 109.53 37.9529 110 37.0065 110ZM36.9656 106.856C36.4822 106.856 36.1758 107.144 36.1009 107.719H37.8371C37.7622 107.144 37.449 106.856 36.9656 106.856Z" fill="black"/>
<path d="M42.5717 110C41.4279 110 40.7878 109.263 40.7878 108.119C40.7878 106.982 41.4279 106.238 42.5717 106.238C43.7224 106.238 44.3624 106.982 44.3624 108.119C44.3624 109.263 43.7224 110 42.5717 110ZM42.5717 109.312C43.1572 109.312 43.4841 108.919 43.4841 108.119C43.4841 107.319 43.1572 106.926 42.5717 106.926C41.993 106.926 41.6662 107.319 41.6662 108.119C41.6662 108.919 41.993 109.312 42.5717 109.312Z" fill="black"/>
<path d="M45.9318 109.93H45.0534V106.954H44.5019V106.309H45.0534V105.993C45.0534 105.235 45.3598 104.898 46.1156 104.898C46.2722 104.898 46.5513 104.919 46.6943 104.933V105.544L46.3266 105.537C46.0475 105.537 45.9318 105.677 45.9318 105.958V106.309H46.6943V106.954H45.9318V109.93Z" fill="black"/>
<path d="M53.0506 109.93H52.0565L49.7824 106.288V109.93H48.9041V104.933H49.8982L52.1655 108.575V104.933H53.0506V109.93Z" fill="black"/>
<path d="M55.6089 110C54.2608 110 53.6072 109.389 53.6072 108.323H54.5059C54.5808 108.982 54.8736 109.284 55.6293 109.284C56.3647 109.284 56.6847 108.961 56.6847 108.498C56.6847 108.154 56.5008 107.93 55.7587 107.817L55.1391 107.726C54.1246 107.579 53.7297 107.214 53.7297 106.4C53.7297 105.502 54.3493 104.863 55.6089 104.863C56.8685 104.863 57.4881 105.495 57.4881 106.47H56.6098C56.5485 105.881 56.2353 105.579 55.5885 105.579C54.9417 105.579 54.6557 105.888 54.6557 106.344C54.6557 106.688 54.8123 106.863 55.4591 106.954L56.0787 107.046C57.066 107.193 57.6106 107.579 57.6106 108.442C57.6106 109.375 56.957 110 55.6089 110Z" fill="black"/>
<path d="M62.5033 107.431C62.5033 109.003 61.6931 109.93 60.0931 109.93H58.1662V104.933H60.0931C61.6931 104.933 62.5033 105.867 62.5033 107.431ZM61.5774 107.431C61.5774 106.274 61.1007 105.684 60.1407 105.684H59.0922V109.179H60.1407C61.1007 109.179 61.5774 108.589 61.5774 107.431Z" fill="black"/>
<path d="M65.2727 110C63.734 110 62.8693 108.954 62.8693 107.431C62.8693 105.909 63.734 104.863 65.2727 104.863C66.6072 104.863 67.5128 105.677 67.5128 106.758H66.6344C66.5527 106.119 66.117 105.642 65.2727 105.642C64.2991 105.642 63.7953 106.281 63.7953 107.431C63.7953 108.582 64.2991 109.221 65.2727 109.221C66.1034 109.221 66.5527 108.772 66.6344 108.063H67.5128C67.5128 109.165 66.6344 110 65.2727 110Z" fill="black"/>
<path d="M68.3116 106.926L67.8554 106.73C68.0461 106.414 68.0801 106.161 68.0801 105.663V104.933H68.8359V105.663C68.8359 106.238 68.7065 106.638 68.3116 106.926ZM69.7142 106.926L69.258 106.73C69.4418 106.414 69.4827 106.161 69.4827 105.663V104.933H70.2384V105.663C70.2384 106.238 70.1091 106.638 69.7142 106.926Z" fill="black"/>
</svg>
