<svg id="Group_162370" data-name="Group 162370" xmlns="http://www.w3.org/2000/svg" xmlns:xlink="http://www.w3.org/1999/xlink" width="227.7" height="110.174" viewBox="0 0 227.7 110.174">
  <defs>
    <clipPath id="clip-path">
      <rect id="Rectangle_147733" data-name="Rectangle 147733" width="227.7" height="110.174" fill="none"/>
    </clipPath>
    <clipPath id="clip-path-2">
      <path id="Path_83164" data-name="Path 83164" d="M52.121,3.15,93.176,26.1,91.193,77.143,143.1,3.15Z" transform="translate(-52.121 -3.15)" fill="none"/>
    </clipPath>
  </defs>
  <g id="Group_162365" data-name="Group 162365" transform="translate(0 0)">
    <g id="Group_162364" data-name="Group 162364" clip-path="url(#clip-path)">
      <path id="Path_83159" data-name="Path 83159" d="M144.981,62.617a6.45,6.45,0,0,1-1.1.081,7.22,7.22,0,0,1-2.283-.5l.508-1.033a4.732,4.732,0,0,0,1.955.409,1.9,1.9,0,0,0,.76-.15c.29-.128.435-.3.435-.531,0-.246-.269-.43-.8-.558q-.417-.08-1.518-.381-1.337-.42-1.338-1.536a1.528,1.528,0,0,1,.952-1.429,4.147,4.147,0,0,1,1.9-.394,4.306,4.306,0,0,1,2.065.449l-.447,1.17a4.311,4.311,0,0,0-1.932-.477q-.877,0-.877.612,0,.382.847.571c.377.081.872.21,1.487.381a1.628,1.628,0,0,1,1.235,1.551q0,1.454-1.85,1.767m-7.056,0V55.559l1.5-.708v7.767Zm-4.1,0V55.559l1.5-.708v7.767Zm-3.91-5.782H131.4v5.782h-1.487Zm.758-.625a.855.855,0,0,1-.587-.218.682.682,0,0,1-.246-.531.707.707,0,0,1,.239-.543.921.921,0,0,1,1.19,0,.705.705,0,0,1,.236.543.687.687,0,0,1-.243.531.857.857,0,0,1-.589.218m-4.415,6.406-1.873-2.76-.847.747v2.013h-1.487v-7.1l1.487-.668v4.108l2.1-1.889h2.07l-2.126,1.956,2.418,3.593Zm-9.24.1a7.4,7.4,0,0,1-3.024-.627l.538-1.128a5.272,5.272,0,0,0,2.444.516c1.123,0,1.686-.377,1.686-1.128q0-.844-1.576-1.252a17.747,17.747,0,0,1-2.051-.6,1.691,1.691,0,0,1-1.041-1.6,1.664,1.664,0,0,1,1.188-1.511,5.216,5.216,0,0,1,2.126-.409,4.953,4.953,0,0,1,2.484.571l-.43,1.145a4.819,4.819,0,0,0-2.395-.5q-1.263,0-1.263.8c0,.364.346.644,1.041.845q.519.135,1.532.422,1.929.555,1.932,1.986a2.135,2.135,0,0,1-.94,1.889,3.875,3.875,0,0,1-2.25.586m-11.23-.1V55.559l1.5-.708v7.767Zm-3.852-2.42c0-.165-.159-.3-.479-.409a2.166,2.166,0,0,0-.7-.137q-1.554,0-1.555.993a.723.723,0,0,0,.479.668,2.084,2.084,0,0,0,.9.178,2.823,2.823,0,0,0,.8-.2q.561-.2.561-.359Zm0,2.394v-.477a4.811,4.811,0,0,1-2.023.518,2.458,2.458,0,0,1-1.628-.5,2.023,2.023,0,0,1,.2-3.028,3.252,3.252,0,0,1,1.859-.475,3.553,3.553,0,0,1,1.59.407,1.325,1.325,0,0,0-1.515-1.442,2.433,2.433,0,0,0-1.34.355l-.475-.79a3.178,3.178,0,0,1,2.037-.584,3.483,3.483,0,0,1,1.9.475,1.72,1.72,0,0,1,.847,1.551v3.986Zm-7.732.026V59.327a1.331,1.331,0,0,0-.341-.939,1.237,1.237,0,0,0-.952-.366,1.564,1.564,0,0,0-1.048.372,1.18,1.18,0,0,0-.44.933v3.291H89.933V56.836h1.485v.7a3.026,3.026,0,0,1,2.009-.79,2.38,2.38,0,0,1,1.649.558,1.9,1.9,0,0,1,.624,1.5v3.822ZM84.744,57.9a1.46,1.46,0,0,0-1.249.558,2.062,2.062,0,0,0-.372,1.28q0,1.807,1.635,1.808,1.607,0,1.607-1.808,0-1.839-1.621-1.838m0,4.829a3.244,3.244,0,0,1-2.348-.815,2.9,2.9,0,0,1-.849-2.191,2.851,2.851,0,0,1,.893-2.148,3.185,3.185,0,0,1,2.3-.858,3.233,3.233,0,0,1,2.313.852,3.1,3.1,0,0,1,.028,4.337,3.26,3.26,0,0,1-2.341.824m-6.616-5.891h1.487v5.782H78.128Zm.758-.625a.855.855,0,0,1-.587-.218.682.682,0,0,1-.246-.531.707.707,0,0,1,.239-.543.921.921,0,0,1,1.19,0,.713.713,0,0,1,.236.543.682.682,0,0,1-.246.531.847.847,0,0,1-.587.218m-4.45,6.406a6.45,6.45,0,0,1-1.1.081,7.22,7.22,0,0,1-2.283-.5l.507-1.033a4.74,4.74,0,0,0,1.955.409,1.916,1.916,0,0,0,.762-.15c.288-.128.433-.3.433-.531,0-.246-.269-.43-.8-.558q-.417-.08-1.518-.381-1.337-.42-1.338-1.536A1.528,1.528,0,0,1,72,56.986a4.154,4.154,0,0,1,1.9-.394,4.306,4.306,0,0,1,2.065.449l-.444,1.17a4.328,4.328,0,0,0-1.934-.477q-.877,0-.877.612,0,.382.847.571c.377.081.872.21,1.487.381a1.628,1.628,0,0,1,1.235,1.551q0,1.454-1.85,1.767m-6.852,0a6.5,6.5,0,0,1-1.1.081,7.22,7.22,0,0,1-2.283-.5l.51-1.033a4.724,4.724,0,0,0,1.955.409,1.913,1.913,0,0,0,.76-.15c.29-.128.433-.3.433-.531,0-.246-.267-.43-.8-.558q-.417-.08-1.515-.381-1.34-.42-1.34-1.536a1.528,1.528,0,0,1,.952-1.429,4.161,4.161,0,0,1,1.9-.394,4.316,4.316,0,0,1,2.067.449l-.447,1.17a4.328,4.328,0,0,0-1.934-.477q-.877,0-.877.612,0,.382.849.571c.377.081.872.21,1.485.381A1.628,1.628,0,0,1,69.43,60.85q0,1.454-1.848,1.767m-8.106-4.87a1.592,1.592,0,0,0-1.169.456,1.512,1.512,0,0,0-.458,1.108H61.03a1.575,1.575,0,0,0-.421-1.108,1.472,1.472,0,0,0-1.132-.456m-1.628,2.585a1.012,1.012,0,0,0,.365.79,1.565,1.565,0,0,0,.87.422,3.136,3.136,0,0,0,.444.028,1.671,1.671,0,0,0,1.174-.409l1.041.708a2.945,2.945,0,0,1-2.215.856,3.3,3.3,0,0,1-2.341-.809,2.8,2.8,0,0,1-.87-2.157,3.064,3.064,0,0,1,.847-2.279,3.291,3.291,0,0,1,2.409-.837,2.555,2.555,0,0,1,2.334,1.185,4.694,4.694,0,0,1,.61,2.5Zm-5.143-2.557v4.842H51.324V57.775h-.816v-.884h.816a1.877,1.877,0,0,1,2.1-2.15,6.74,6.74,0,0,1,.716.043V55.8a2.972,2.972,0,0,0-.907.1q-.537.189-.594.993h1.5v.884Zm-7.243.122a1.46,1.46,0,0,0-1.249.558,2.062,2.062,0,0,0-.372,1.28q0,1.807,1.637,1.808,1.6,0,1.6-1.808,0-1.839-1.621-1.838m0,4.829a3.244,3.244,0,0,1-2.348-.815,2.9,2.9,0,0,1-.847-2.191,2.858,2.858,0,0,1,.891-2.148,3.188,3.188,0,0,1,2.3-.858,3.233,3.233,0,0,1,2.313.852,3.1,3.1,0,0,1,.03,4.337,3.265,3.265,0,0,1-2.343.824M40.291,58.2a1.607,1.607,0,0,0-.566-.15,1.281,1.281,0,0,0-.9.334,1.071,1.071,0,0,0-.365.824v3.413H37.11V56.823h1.352v.68a2.253,2.253,0,0,1,1.59-.815,1.822,1.822,0,0,1,.758.148ZM32.129,56.32H30.017v2.217h2.112a1.414,1.414,0,0,0,.928-.312,1.011,1.011,0,0,0,.379-.817.954.954,0,0,0-.379-.787,1.441,1.441,0,0,0-.928-.3m.505,3.468H30.017v2.829H28.368V55.081h4.266a2.457,2.457,0,0,1,1.761.655,2.149,2.149,0,0,1,.692,1.63,2.382,2.382,0,0,1-.669,1.7,2.408,2.408,0,0,1-1.784.721m-12.336-.8a2.943,2.943,0,0,0-.536-.653,1.507,1.507,0,0,0-.893-.3,1.811,1.811,0,0,0-1.144.3,1.9,1.9,0,0,0-.594,1.577,1.5,1.5,0,0,0,.468,1.164,1.814,1.814,0,0,0,1.27.428q.8,0,1.429-1.061Zm0,3.631v-.871a2.029,2.029,0,0,1-1.726.871,3.027,3.027,0,0,1-2.133-.755,2.525,2.525,0,0,1-.826-1.951,3.172,3.172,0,0,1,.774-2.148,2.674,2.674,0,0,1,2.154-.993,3.79,3.79,0,0,1,1.756.516V55.409l1.485-.49v7.7Zm-8.047,0V59.327a1.321,1.321,0,0,0-.341-.939,1.237,1.237,0,0,0-.952-.366,1.569,1.569,0,0,0-1.048.372,1.177,1.177,0,0,0-.437.933v3.291H7.984V56.836H9.472v.7a3.016,3.016,0,0,1,2.007-.79,2.38,2.38,0,0,1,1.649.558,1.9,1.9,0,0,1,.624,1.5v3.822ZM4.238,60.2c0-.165-.159-.3-.479-.409a2.179,2.179,0,0,0-.7-.137c-1.034,0-1.553.332-1.553.993a.723.723,0,0,0,.479.668,2.084,2.084,0,0,0,.9.178,2.823,2.823,0,0,0,.8-.2q.561-.2.561-.359Zm0,2.394v-.477a4.812,4.812,0,0,1-2.023.518,2.458,2.458,0,0,1-1.628-.5,2.023,2.023,0,0,1,.2-3.028,3.252,3.252,0,0,1,1.859-.475,3.553,3.553,0,0,1,1.59.407A1.326,1.326,0,0,0,2.72,57.6a2.43,2.43,0,0,0-1.338.355l-.475-.79a3.174,3.174,0,0,1,2.037-.584,3.469,3.469,0,0,1,1.9.475,1.717,1.717,0,0,1,.849,1.551v3.986ZM209.615,44.907a1.69,1.69,0,0,0-.907.336c-.337.223-.505.451-.505.689v1.434c0,.2.154.4.461.586a1.577,1.577,0,0,0,.8.289,1.975,1.975,0,0,0,1.392-.458,1.644,1.644,0,0,0,.5-1.277,1.519,1.519,0,0,0-.461-1.175,1.823,1.823,0,0,0-1.279-.424m.358,4.626a4.57,4.57,0,0,1-1.77-.436V51.26l-1.5.734V43.642h1.5V44.5a1.871,1.871,0,0,1,1.59-.856,2.911,2.911,0,0,1,2.135.8,2.708,2.708,0,0,1,.809,2.011,3.358,3.358,0,0,1-.669,2.127,2.53,2.53,0,0,1-2.1.954m-6.96-5.769H204.5v5.781h-1.487Zm.76-.625a.847.847,0,0,1-.587-.218.682.682,0,0,1-.246-.531.71.71,0,0,1,.236-.543.921.921,0,0,1,1.19,0,.7.7,0,0,1,.239.543.682.682,0,0,1-.246.531.855.855,0,0,1-.587.218m-4.357,6.406V46.077a.97.97,0,0,0-.423-.79,1.485,1.485,0,0,0-.931-.325,1.6,1.6,0,0,0-.95.347.967.967,0,0,0-.477.768v3.468h-1.487V42.487l1.487-.708V44.7a2.225,2.225,0,0,1,1.9-.858,2.628,2.628,0,0,1,1.7.546,1.8,1.8,0,0,1,.676,1.483v3.672Zm-8.033,0a6.725,6.725,0,0,1-1.1.081,7.208,7.208,0,0,1-2.28-.5l.507-1.033a4.723,4.723,0,0,0,1.955.407,1.9,1.9,0,0,0,.76-.148c.29-.128.433-.3.433-.531,0-.246-.267-.432-.8-.558-.276-.054-.783-.182-1.515-.381Q188,46.459,188,45.344a1.524,1.524,0,0,1,.949-1.429,4.161,4.161,0,0,1,1.9-.394,4.31,4.31,0,0,1,2.067.449l-.447,1.168a4.344,4.344,0,0,0-1.932-.475q-.877,0-.877.612c0,.252.281.445.847.571q.565.122,1.487.381a1.628,1.628,0,0,1,1.232,1.551q0,1.454-1.848,1.767m-5.421-4.421a1.573,1.573,0,0,0-.566-.15,1.277,1.277,0,0,0-.9.334,1.07,1.07,0,0,0-.365.822v3.415h-1.354V43.752h1.354v.68a2.244,2.244,0,0,1,1.59-.817,1.822,1.822,0,0,1,.758.15Zm-6.974,4.393v-.68a3.036,3.036,0,0,1-1.993.777,2.4,2.4,0,0,1-1.649-.552,1.882,1.882,0,0,1-.624-1.489V43.737h1.5V47.03a1.337,1.337,0,0,0,.334.939,1.212,1.212,0,0,0,.942.366,1.561,1.561,0,0,0,1.05-.374,1.17,1.17,0,0,0,.437-.931V43.737h1.487v5.782Zm-9.135-4.842a1.589,1.589,0,0,0-1.169.456,1.5,1.5,0,0,0-.458,1.108h3.181a1.575,1.575,0,0,0-.421-1.108,1.472,1.472,0,0,0-1.132-.456m-1.628,2.585a1,1,0,0,0,.362.79,1.565,1.565,0,0,0,.87.422,3.238,3.238,0,0,0,.447.026,1.669,1.669,0,0,0,1.174-.407l1.041.706a2.946,2.946,0,0,1-2.215.858,3.3,3.3,0,0,1-2.341-.809,2.807,2.807,0,0,1-.87-2.157,3.064,3.064,0,0,1,.847-2.279,3.282,3.282,0,0,1,2.409-.837,2.561,2.561,0,0,1,2.334,1.183,4.729,4.729,0,0,1,.61,2.5Zm-4.907,2.285V46.255a1.319,1.319,0,0,0-.344-.939,1.229,1.229,0,0,0-.949-.368,1.572,1.572,0,0,0-1.05.374,1.177,1.177,0,0,0-.437.933v3.291H159.05V43.764h1.487v.693a3.033,3.033,0,0,1,2.007-.787,2.392,2.392,0,0,1,1.651.556,1.909,1.909,0,0,1,.624,1.5v3.822ZM154,44.676a1.592,1.592,0,0,0-1.169.456,1.512,1.512,0,0,0-.458,1.108h3.181a1.575,1.575,0,0,0-.421-1.108A1.472,1.472,0,0,0,154,44.676m-1.628,2.585a1,1,0,0,0,.365.79,1.566,1.566,0,0,0,.868.422,3.238,3.238,0,0,0,.447.026,1.669,1.669,0,0,0,1.174-.407l1.041.706a2.946,2.946,0,0,1-2.215.858,3.3,3.3,0,0,1-2.341-.809,2.807,2.807,0,0,1-.87-2.157,3.064,3.064,0,0,1,.847-2.279,3.282,3.282,0,0,1,2.409-.837,2.558,2.558,0,0,1,2.334,1.183,4.707,4.707,0,0,1,.61,2.5Zm-3.6-2.135a1.552,1.552,0,0,0-.564-.15,1.283,1.283,0,0,0-.9.334,1.07,1.07,0,0,0-.365.822v3.415H145.6V43.752h1.352v.68a2.253,2.253,0,0,1,1.593-.817,1.822,1.822,0,0,1,.758.15Zm-8.459-.218a1.69,1.69,0,0,0-.907.336c-.337.223-.505.451-.505.689v1.434c0,.2.154.4.461.586a1.584,1.584,0,0,0,.8.289,1.973,1.973,0,0,0,1.389-.458,1.644,1.644,0,0,0,.5-1.277,1.519,1.519,0,0,0-.461-1.175,1.819,1.819,0,0,0-1.279-.424m.358,4.626a4.579,4.579,0,0,1-1.77-.436V51.26l-1.5.734V43.642h1.5V44.5a1.87,1.87,0,0,1,1.59-.856,2.907,2.907,0,0,1,2.135.8,2.7,2.7,0,0,1,.809,2.011,3.358,3.358,0,0,1-.669,2.127,2.53,2.53,0,0,1-2.1.954m-8.2-4.857a1.589,1.589,0,0,0-1.169.456,1.5,1.5,0,0,0-.458,1.108h3.181a1.575,1.575,0,0,0-.421-1.108,1.472,1.472,0,0,0-1.132-.456m-1.628,2.585a1,1,0,0,0,.363.79,1.565,1.565,0,0,0,.87.422,3.238,3.238,0,0,0,.447.026,1.669,1.669,0,0,0,1.174-.407l1.041.706a2.946,2.946,0,0,1-2.215.858,3.3,3.3,0,0,1-2.341-.809,2.807,2.807,0,0,1-.87-2.157,3.064,3.064,0,0,1,.847-2.279,3.282,3.282,0,0,1,2.409-.837,2.558,2.558,0,0,1,2.334,1.183,4.707,4.707,0,0,1,.61,2.5Zm-3.6-2.135a1.563,1.563,0,0,0-.564-.15,1.283,1.283,0,0,0-.9.334,1.07,1.07,0,0,0-.365.822v3.415h-1.352V43.752h1.352v.68a2.252,2.252,0,0,1,1.59-.817,1.84,1.84,0,0,1,.76.15Zm-5.442,4.408a6.705,6.705,0,0,1-1.113.107,1.568,1.568,0,0,1-1.754-1.8V44.826h-.788V43.737h.788V42.69l1.366-.625v1.671h1.532v1.089h-1.532v2.339c0,.971.348,1.457,1.041,1.457a2.6,2.6,0,0,0,.7-.109Zm-6.927.013V46.255a1.328,1.328,0,0,0-.341-.939,1.234,1.234,0,0,0-.952-.368,1.566,1.566,0,0,0-1.048.374,1.18,1.18,0,0,0-.44.933v3.291h-1.487V43.764H112.1v.693a3.033,3.033,0,0,1,2.007-.787,2.392,2.392,0,0,1,1.651.556,1.909,1.909,0,0,1,.624,1.5v3.822Zm-11.714,0V42.01h5.426v1.115h-3.835v1.8H107.1v1.115h-2.348v2.394h3.835v1.115ZM90.675,46.159l-.386.259a.841.841,0,0,0-.43.721,1.2,1.2,0,0,0,.437.965,1.641,1.641,0,0,0,1.094.368,1.758,1.758,0,0,0,1.457-.68Zm4.238,3.374-.891-.749a5.2,5.2,0,0,1-2.767.912,4.073,4.073,0,0,1-2.154-.518,1.894,1.894,0,0,1-1.013-1.727,1.6,1.6,0,0,1,.416-1.13,5.659,5.659,0,0,1,1.235-.871,2.476,2.476,0,0,1-1.218-1.9,1.443,1.443,0,0,1,1-1.346,4.589,4.589,0,0,1,1.857-.34q2.557,0,2.647,1.592l-1.679.434a.962.962,0,0,0-1.071-.952c-.7,0-1.057.278-1.057.83q0,.465,1.56,1.648l2.053,1.5a2.834,2.834,0,0,0,.477-1.579h1.679v.381a3.238,3.238,0,0,1-.837,2.168L97.1,49.533Zm-13.024,0a6.706,6.706,0,0,1-1.113.107,1.57,1.57,0,0,1-1.756-1.8V44.826h-.786V43.737h.786V42.69l1.368-.625v1.671h1.532v1.089H80.387v2.339c0,.971.348,1.457,1.041,1.457a2.6,2.6,0,0,0,.7-.109Zm-6.927.013V46.255a1.328,1.328,0,0,0-.341-.939,1.234,1.234,0,0,0-.952-.368,1.566,1.566,0,0,0-1.048.374,1.18,1.18,0,0,0-.44.933v3.291H70.693V43.764h1.487v.693a3.033,3.033,0,0,1,2.007-.787,2.392,2.392,0,0,1,1.651.556,1.909,1.909,0,0,1,.624,1.5v3.822Zm-9.315-4.87a1.592,1.592,0,0,0-1.169.456,1.511,1.511,0,0,0-.458,1.108H67.2a1.575,1.575,0,0,0-.421-1.108,1.465,1.465,0,0,0-1.132-.456m-1.628,2.585a1.012,1.012,0,0,0,.365.79,1.565,1.565,0,0,0,.87.422,3.2,3.2,0,0,0,.444.026,1.679,1.679,0,0,0,1.176-.407l1.041.706a2.951,2.951,0,0,1-2.217.858,3.3,3.3,0,0,1-2.341-.809,2.807,2.807,0,0,1-.87-2.157,3.056,3.056,0,0,1,.849-2.279,3.273,3.273,0,0,1,2.406-.837,2.562,2.562,0,0,1,2.336,1.183,4.729,4.729,0,0,1,.608,2.5Zm-5.009,2.285V46.255a1.319,1.319,0,0,0-.344-.939,1.229,1.229,0,0,0-.949-.368,1.622,1.622,0,0,0-.833.225,1.28,1.28,0,0,0-.552.593.884.884,0,0,0-.089.325v3.456h-1.5V46.255a1.328,1.328,0,0,0-.341-.939,1.234,1.234,0,0,0-.952-.368,1.566,1.566,0,0,0-1.048.374,1.18,1.18,0,0,0-.44.933v3.291H50.489V43.764H51.96v.693a3.071,3.071,0,0,1,2.009-.787,2.58,2.58,0,0,1,1.71.6,4.383,4.383,0,0,1,2.17-.556,3.263,3.263,0,0,1,1.843.475,1.745,1.745,0,0,1,.819,1.538v3.822Zm-13.492-4.87a1.6,1.6,0,0,0-1.172.456,1.512,1.512,0,0,0-.458,1.108H47.07a1.575,1.575,0,0,0-.421-1.108,1.472,1.472,0,0,0-1.132-.456m-1.63,2.585a1.012,1.012,0,0,0,.365.79,1.565,1.565,0,0,0,.87.422,3.238,3.238,0,0,0,.447.026,1.669,1.669,0,0,0,1.174-.407l1.041.706a2.946,2.946,0,0,1-2.215.858,3.3,3.3,0,0,1-2.341-.809,2.807,2.807,0,0,1-.87-2.157,3.055,3.055,0,0,1,.847-2.279,3.282,3.282,0,0,1,2.409-.837,2.561,2.561,0,0,1,2.334,1.183,4.751,4.751,0,0,1,.61,2.5Zm-4.965-1.305a.863.863,0,0,0-.386-.674,1.284,1.284,0,0,0-.8-.306,1.915,1.915,0,0,0-1.293.422,1.426,1.426,0,0,0-.491,1.143q0,1.781,1.5,1.782a1.936,1.936,0,0,0,.935-.259c.358-.19.536-.417.536-.68Zm-1.457,6.079-.208-1.209a1.66,1.66,0,0,0,1.607-1.81,4.13,4.13,0,0,1-.744.394,2.648,2.648,0,0,1-.847.109,2.822,2.822,0,0,1-2.112-.68,3.234,3.234,0,0,1-.774-2.339,2.579,2.579,0,0,1,.826-1.951,2.932,2.932,0,0,1,2.1-.783,3.616,3.616,0,0,1,1.6.422v-.422h1.5V48.39a4.257,4.257,0,0,1-.669,2.435,2.753,2.753,0,0,1-2.29,1.209m-6.63-4.911c0-.163-.159-.3-.479-.407a2.123,2.123,0,0,0-.7-.137c-1.034,0-1.553.332-1.553.993a.723.723,0,0,0,.479.668,2.085,2.085,0,0,0,.9.175,2.8,2.8,0,0,0,.8-.2q.561-.2.561-.359Zm0,2.394v-.475a4.806,4.806,0,0,1-2.023.516,2.446,2.446,0,0,1-1.628-.5,2.021,2.021,0,0,1,.2-3.026,3.252,3.252,0,0,1,1.859-.477,3.557,3.557,0,0,1,1.59.409,1.326,1.326,0,0,0-1.518-1.442,2.429,2.429,0,0,0-1.338.353l-.475-.787a3.179,3.179,0,0,1,2.037-.586,3.469,3.469,0,0,1,1.9.477,1.717,1.717,0,0,1,.849,1.551v3.984Zm-7.732.028V46.255a1.328,1.328,0,0,0-.341-.939,1.234,1.234,0,0,0-.952-.368,1.566,1.566,0,0,0-1.048.374,1.18,1.18,0,0,0-.44.933v3.291H18.838V43.764h1.485v.693a3.035,3.035,0,0,1,2.009-.787,2.39,2.39,0,0,1,1.649.556,1.909,1.909,0,0,1,.624,1.5v3.822Zm-8.012-2.422c0-.163-.159-.3-.479-.407a2.124,2.124,0,0,0-.7-.137q-1.554,0-1.553.993a.724.724,0,0,0,.477.668,2.1,2.1,0,0,0,.9.175,2.8,2.8,0,0,0,.8-.2q.561-.2.561-.359Zm0,2.394v-.475a4.806,4.806,0,0,1-2.023.516,2.438,2.438,0,0,1-1.628-.5,2.021,2.021,0,0,1,.2-3.026A3.249,3.249,0,0,1,13.5,45.56a3.566,3.566,0,0,1,1.593.409,1.326,1.326,0,0,0-1.518-1.442,2.429,2.429,0,0,0-1.338.353l-.475-.787a3.174,3.174,0,0,1,2.037-.586,3.475,3.475,0,0,1,1.9.477,1.717,1.717,0,0,1,.849,1.551v3.984Zm-8.059.028V44.308L4.49,49.368,1.829,44.336v5.21H.222V42.01H2.395l2.1,4.035L6.586,42.01h2.17v7.536Z" transform="translate(0 47.446)" fill="#5b5c5e"/>
      <path id="Path_83160" data-name="Path 83160" d="M110.074,55.655V48.6l1.5-.708v7.767Zm-3.91-5.779h1.487v5.782h-1.487Zm.758-.627a.855.855,0,0,1-.587-.218.679.679,0,0,1-.246-.531.707.707,0,0,1,.239-.543.918.918,0,0,1,1.188,0,.708.708,0,0,1,.239.543.679.679,0,0,1-.246.531.855.855,0,0,1-.587.218m-5.1,6.515a3.273,3.273,0,0,1-2.355-.815,2.889,2.889,0,0,1-.856-2.191,2.849,2.849,0,0,1,.9-2.148,3.213,3.213,0,0,1,2.311-.858,3.3,3.3,0,0,1,2.112.693l-1.116.764a1.656,1.656,0,0,0-1-.287,1.508,1.508,0,0,0-1.263.571,1.994,1.994,0,0,0-.4,1.28q0,1.836,1.682,1.836a1.62,1.62,0,0,0,1.085-.353l1.235.678a3.26,3.26,0,0,1-2.336.83m-6.675-.109V52.364a1.331,1.331,0,0,0-.341-.939,1.24,1.24,0,0,0-.952-.366,1.564,1.564,0,0,0-1.048.372,1.18,1.18,0,0,0-.44.933v3.291H90.88V49.876h1.485v.693a3.026,3.026,0,0,1,2.009-.79,2.381,2.381,0,0,1,1.649.558,1.9,1.9,0,0,1,.624,1.5v3.822Zm-8.073-.026v-.68a3.045,3.045,0,0,1-1.993.775,2.407,2.407,0,0,1-1.649-.55,1.889,1.889,0,0,1-.624-1.491V49.848h1.5v3.291a1.337,1.337,0,0,0,.334.939,1.214,1.214,0,0,0,.942.368,1.572,1.572,0,0,0,1.05-.374,1.177,1.177,0,0,0,.437-.933V49.848H88.56v5.781ZM77.8,50.935a1.46,1.46,0,0,0-1.249.558,2.062,2.062,0,0,0-.372,1.28q0,1.807,1.637,1.808,1.6,0,1.6-1.808,0-1.839-1.621-1.838m0,4.829a3.244,3.244,0,0,1-2.348-.815,2.9,2.9,0,0,1-.849-2.191,2.86,2.86,0,0,1,.893-2.148,3.189,3.189,0,0,1,2.3-.858,3.233,3.233,0,0,1,2.313.852,2.835,2.835,0,0,1,.9,2.155,2.876,2.876,0,0,1-.868,2.185,3.274,3.274,0,0,1-2.343.822m-6.378-5.6a2.437,2.437,0,0,0-1.932-.762,2.24,2.24,0,0,0-1.815.721,2.622,2.622,0,0,0-.55,1.767,2.567,2.567,0,0,0,.58,1.755,2.212,2.212,0,0,0,1.784.736,2.582,2.582,0,0,0,1.738-.558l1.548.653a4.125,4.125,0,0,1-3.286,1.28,4.224,4.224,0,0,1-3-1.1,3.619,3.619,0,0,1-1.183-2.762,3.659,3.659,0,0,1,1.109-2.822,4.342,4.342,0,0,1,3.071-1.027,4.07,4.07,0,0,1,3.4,1.374Z" transform="translate(87.424 54.409)" fill="#5b5c5e"/>
      <path id="Path_83161" data-name="Path 83161" d="M52.121,16.771H143.1L91.2,61.617l1.983-30.936Z" transform="translate(69.772 19.115)" fill="#006fa9" fill-rule="evenodd"/>
      <path id="Path_83162" data-name="Path 83162" d="M52.121,3.15H143.1L91.2,77.141,93.178,26.1Z" transform="translate(69.772 3.591)" fill="#f16a11" fill-rule="evenodd"/>
    </g>
  </g>
  <g id="Group_162367" data-name="Group 162367" transform="translate(121.894 6.74)">
    <g id="Group_162366" data-name="Group 162366" clip-path="url(#clip-path-2)">
      <path id="Path_83163" data-name="Path 83163" d="M67.185,32.293,137.763,0,69.687,88.509Z" transform="translate(-31.956 -6.739)" fill="#da521a" fill-rule="evenodd"/>
    </g>
  </g>
  <g id="Group_162369" data-name="Group 162369" transform="translate(0 0)">
    <g id="Group_162368" data-name="Group 162368" clip-path="url(#clip-path)">
      <path id="Path_83165" data-name="Path 83165" d="M54.988,51.084H36.566V25.955H54.988v4.466H42.644v4.9H50.2v4.466H42.644v6.83H54.988Zm-26.481,0H22V35.8l-7.7,15.28L6.21,35.8v15.28H.085V25.955H7.819l6.459,12.316,6.429-12.316h7.8Z" transform="translate(0.114 29.582)" fill="#006fa9"/>
      <path id="Path_83166" data-name="Path 83166" d="M110.163,30.87l-5.6,2.846a7.383,7.383,0,0,0-6.076-2.583q-7.128,0-7.131,7.572a7.932,7.932,0,0,0,1.724,5.341,6.648,6.648,0,0,0,5.407,2.234,7.343,7.343,0,0,0,5.454-1.883l5.84,2.452q-3.733,4.728-11.293,4.729a14.089,14.089,0,0,1-10-3.657,12.056,12.056,0,0,1-3.924-9.216q0-5.954,3.709-9.391t10.215-3.436q8.04,0,11.675,4.992M77.94,43.171A7.29,7.29,0,0,1,74.8,49.562a12.806,12.806,0,0,1-7.528,2.016,23.918,23.918,0,0,1-10.288-2.234l2.138-4.508a10.473,10.473,0,0,0,3.852,1.4,19.779,19.779,0,0,0,4.139.481q4.894,0,4.9-3.195,0-2.234-3.924-3.372l-5.215-1.487-2.011-.614q-3.873-1.839-3.875-5.647,0-3.37,3.924-5.165A17.158,17.158,0,0,1,68.13,25.79a16.044,16.044,0,0,1,8.567,2.1l-1.724,4.553A9.04,9.04,0,0,0,71.193,31a20.942,20.942,0,0,0-4.163-.437q-3.589,0-3.59,2.144,0,1.444,3.782,2.495a47.473,47.473,0,0,1,6.936,2.277q3.782,1.971,3.782,5.692m-34.76-9.107A2.676,2.676,0,0,0,42.1,31.833,4.213,4.213,0,0,0,39.448,31H33.132v6.261h6.317a4.012,4.012,0,0,0,2.654-.9,2.862,2.862,0,0,0,1.078-2.3m6.268-.131a8.159,8.159,0,0,1-8.375,8.231H33.132v9.1H26.864V26.141h14.21a8.451,8.451,0,0,1,6.006,2.21,7.314,7.314,0,0,1,2.369,5.583" transform="translate(35.962 29.394)" fill="#006fa9"/>
    </g>
  </g>
</svg>
