<svg id="Group_162372" data-name="Group 162372" xmlns="http://www.w3.org/2000/svg" xmlns:xlink="http://www.w3.org/1999/xlink" width="100.231" height="145.551" viewBox="0 0 100.231 145.551">
  <defs>
    <clipPath id="clip-path">
      <rect id="Rectangle_147741" data-name="Rectangle 147741" width="100.231" height="145.551" fill="none"/>
    </clipPath>
  </defs>
  <g id="Group_162371" data-name="Group 162371" transform="translate(0 0)" clip-path="url(#clip-path)">
    <path id="Path_83167" data-name="Path 83167" d="M20.993,42.365c-.748,13.271,26.929,29.428,44.881,38.325C45.178,75.9,12.017,56.737,12.017,41S45.678,10.884,65.874,4.04C44.93,12.253,21.741,29.094,20.993,42.365" transform="translate(23.512 6.89)" fill="#cf001b"/>
    <path id="Path_83168" data-name="Path 83168" d="M50.047,41C50.8,27.726,20.626,10.884,3.67,4.04,24.366,8.831,59.023,27.993,59.023,41S23.866,73.847,3.67,80.691C24.614,72.478,49.3,54.268,50.047,41" transform="translate(7.181 6.89)" fill="#002f5e"/>
    <path id="Path_83169" data-name="Path 83169" d="M65.874,4.04C44.93,12.253,21.741,29.094,20.993,42.365L12.017,41c0-15.741,33.661-30.113,53.857-36.957" transform="translate(23.512 6.89)" fill="#cf001b"/>
    <path id="Path_83170" data-name="Path 83170" d="M22.936,0c4.958,0,8.976,3.676,8.976,8.213s-4.018,8.213-8.976,8.213S13.96,12.749,13.96,8.213,17.978,0,22.936,0" transform="translate(27.314 0.001)" fill="#2e9137"/>
    <path id="Path_83171" data-name="Path 83171" d="M29.147,55.151c0,4.812-4.142,8.186-11.575,8.186H0V34.046H16.62c7.43,0,11.578,3.086,11.578,7.9,0,3.208-1.863,5.6-5.668,6.335,4.426.7,6.617,3.373,6.617,6.871m-7.666-.536c0-2.386-1.62-3.784-4.81-3.784h-9V58.4h9c3.19,0,4.81-1.4,4.81-3.784M20.529,42.48c0-2.386-1.62-3.5-4.81-3.5H7.667v6.993h8.051c3.19,0,4.81-1.109,4.81-3.495" transform="translate(0.002 58.052)" fill="#002f5e"/>
    <path id="Path_83172" data-name="Path 83172" d="M18.776,63.336H11.107V34.046H36.542v5.388H18.776v6.419H35.02v5.1H18.776Z" transform="translate(21.732 58.051)" fill="#002f5e"/>
    <path id="Path_83173" data-name="Path 83173" d="M34.731,64.007c-9.668,0-14.431-3.66-14.431-9.955h7.525c.476,3.495,2.43,5.018,7.1,5.018,4.479,0,6.575-1.645,6.575-3.868,0-1.85-1.239-3-6.194-3.619l-3.953-.492c-7.19-.866-10.191-2.962-10.191-8.064,0-5.264,4.524-9.132,13.574-9.132S48.3,37.719,48.3,43.437H41.02c-.429-3.043-2.478-4.607-6.478-4.607s-5.718,1.564-5.718,3.784c0,1.853,1,2.675,5.289,3.208l3.953.452c7.1.906,11.1,3.211,11.1,8.518,0,5.388-4.763,9.213-14.431,9.213" transform="translate(39.719 57.793)" fill="#002f5e"/>
    <rect id="Rectangle_147735" data-name="Rectangle 147735" width="7.669" height="29.29" transform="translate(92.562 92.097)" fill="#002f5e"/>
    <line id="Line_152" data-name="Line 152" x2="100.231" transform="translate(0 124.537)" fill="none" stroke="#cf001b" stroke-width="0.069"/>
    <path id="Path_83174" data-name="Path 83174" d="M4.062,50.292c0,.709-.571,1.225-1.605,1.225H0V47.084H2.321c1.035,0,1.605.473,1.605,1.185a.939.939,0,0,1-.81.971,1.028,1.028,0,0,1,.946,1.052m-.925-.062c0-.4-.266-.66-.783-.66H.925v1.315H2.353c.517,0,.783-.257.783-.655M3,48.336c0-.4-.266-.617-.783-.617H.925v1.228H2.217c.517,0,.783-.214.783-.611" transform="translate(0 80.282)" fill="#050605"/>
    <path id="Path_83175" data-name="Path 83175" d="M2.488,51.518H1.563V47.084H5.1v.69H2.488v1.16H4.877v.647H2.488Z" transform="translate(3.057 80.283)" fill="#050605"/>
    <path id="Path_83176" data-name="Path 83176" d="M4.856,51.62c-1.348,0-2-.541-2-1.488h.9c.074.584.367.852,1.124.852.736,0,1.056-.287,1.056-.7,0-.306-.183-.5-.925-.6L4.386,49.6c-1.014-.13-1.407-.454-1.407-1.177,0-.8.618-1.363,1.877-1.363s1.877.56,1.877,1.426H5.855c-.059-.522-.373-.79-1.02-.79s-.931.273-.931.679c0,.3.157.46.8.541L5.326,49c.988.13,1.532.473,1.532,1.239,0,.828-.653,1.382-2,1.382" transform="translate(5.584 80.245)" fill="#050605"/>
    <rect id="Rectangle_147736" data-name="Rectangle 147736" width="0.925" height="4.434" transform="translate(12.994 127.368)" fill="#050605"/>
    <path id="Path_83177" data-name="Path 83177" d="M7.475,51.62c-1.348,0-2-.541-2-1.488h.9c.074.584.367.852,1.124.852.736,0,1.056-.287,1.056-.7,0-.306-.183-.5-.925-.6L7,49.6C5.99,49.472,5.6,49.148,5.6,48.425c0-.8.618-1.363,1.877-1.363s1.877.56,1.877,1.426H8.474c-.059-.522-.373-.79-1.02-.79s-.931.273-.931.679c0,.3.157.46.8.541L7.945,49c.987.13,1.532.473,1.532,1.239,0,.828-.653,1.382-2,1.382" transform="translate(10.708 80.245)" fill="#050605"/>
    <path id="Path_83178" data-name="Path 83178" d="M8.733,50.848a1.67,1.67,0,1,1-.041-3.335,1.573,1.573,0,0,1,1.75,1.631c0,.068-.009.13-.015.206h-2.6c.027.652.367.952.9.952a.778.778,0,0,0,.822-.53h.81c-.148.66-.686,1.077-1.632,1.077m-.041-2.789a.8.8,0,0,0-.863.766H9.564a.813.813,0,0,0-.872-.766" transform="translate(13.598 81.014)" fill="#050605"/>
    <path id="Path_83179" data-name="Path 83179" d="M10.016,50.851a1.671,1.671,0,1,1,0-3.338c1.135,0,1.653.655,1.653,1.282H10.85a.752.752,0,0,0-.834-.671c-.559,0-.881.346-.881,1.058s.322,1.058.881,1.058a.749.749,0,0,0,.834-.7h.819c0,.692-.553,1.309-1.653,1.309" transform="translate(16.156 81.014)" fill="#050605"/>
    <path id="Path_83180" data-name="Path 83180" d="M11.087,51.393c-.8,0-1.061-.225-1.061-.933V48.721H9.473V48.15h.553v-.974H10.9v.974h.763v.571H10.9V50.49c0,.249.118.338.393.338l.37-.008v.541c-.142.014-.42.032-.579.032" transform="translate(18.535 80.439)" fill="#050605"/>
    <path id="Path_83181" data-name="Path 83181" d="M12.067,50.851a1.673,1.673,0,1,1,0-3.338,1.673,1.673,0,1,1,0,3.338m0-.611c.585,0,.911-.349.911-1.058s-.325-1.06-.911-1.06-.9.349-.9,1.06.325,1.058.9,1.058" transform="translate(20.122 81.014)" fill="#050605"/>
    <path id="Path_83182" data-name="Path 83182" d="M12.541,50.776h-.878V47.562H12.5v.717a.923.923,0,0,1,.982-.76,1.7,1.7,0,0,1,.319.043v.7l-.361-.005c-.538,0-.9.368-.9,1.023Z" transform="translate(22.82 81.024)" fill="#050605"/>
    <path id="Path_83183" data-name="Path 83183" d="M15.072,51.62c-1.348,0-2-.541-2-1.488h.9c.074.584.367.852,1.124.852.736,0,1.056-.287,1.056-.7,0-.306-.183-.5-.925-.6L14.6,49.6c-1.014-.13-1.407-.454-1.407-1.177,0-.8.618-1.363,1.877-1.363s1.877.56,1.877,1.426h-.878c-.059-.522-.373-.79-1.02-.79s-.931.273-.931.679c0,.3.157.46.8.541l.621.081c.988.13,1.532.473,1.532,1.239,0,.828-.653,1.382-2,1.382" transform="translate(25.573 80.245)" fill="#050605"/>
    <path id="Path_83184" data-name="Path 83184" d="M18.052,51.518H17.037l-1.029-1.382-.538.487v.9h-.878V47.084h.878v2.621l1.493-1.4h1.02L16.6,49.576Z" transform="translate(28.551 80.283)" fill="#050605"/>
    <path id="Path_83185" data-name="Path 83185" d="M16.808,51.577H15.93V48.364h.878Zm-.435-3.692c-.328,0-.511-.181-.511-.417s.183-.419.511-.419.5.181.5.419-.174.417-.5.417" transform="translate(31.035 80.223)" fill="#050605"/>
    <rect id="Rectangle_147737" data-name="Rectangle 147737" width="0.878" height="4.434" transform="translate(48.482 127.368)" fill="#050605"/>
    <rect id="Rectangle_147738" data-name="Rectangle 147738" width="0.878" height="4.434" transform="translate(49.999 127.368)" fill="#050605"/>
    <path id="Path_83186" data-name="Path 83186" d="M20.356,51.62a2.282,2.282,0,1,1,0-4.558c1.333,0,2.238.722,2.238,1.68h-.878c-.08-.565-.517-.99-1.36-.99-.973,0-1.478.568-1.478,1.588s.506,1.588,1.478,1.588c.831,0,1.28-.4,1.36-1.025h.878c0,.977-.878,1.718-2.238,1.718" transform="translate(35.125 80.245)" fill="#050605"/>
    <path id="Path_83187" data-name="Path 83187" d="M21.431,50.851a1.673,1.673,0,1,1,0-3.338,1.673,1.673,0,1,1,0,3.338m0-.611c.585,0,.914-.349.914-1.058s-.328-1.06-.914-1.06-.9.349-.9,1.06.325,1.058.9,1.058" transform="translate(38.443 81.014)" fill="#050605"/>
    <path id="Path_83188" data-name="Path 83188" d="M22.225,50.812c-.8,0-1.2-.373-1.2-1.152V47.536h.878V49.5c0,.438.169.655.6.655a.737.737,0,0,0,.763-.828V47.536h.878V50.75h-.837v-.522a1.122,1.122,0,0,1-1.082.584" transform="translate(41.143 81.053)" fill="#050605"/>
    <path id="Path_83189" data-name="Path 83189" d="M25.414,50.788h-.878V48.819c0-.433-.171-.652-.6-.652a.736.736,0,0,0-.76.828v1.793H22.3V47.574h.837V48.1a1.114,1.114,0,0,1,1.073-.584c.8,0,1.206.373,1.206,1.152Z" transform="translate(43.628 81.012)" fill="#050605"/>
    <path id="Path_83190" data-name="Path 83190" d="M25.284,50.851a1.671,1.671,0,1,1,0-3.338c1.135,0,1.653.655,1.653,1.282h-.822a.751.751,0,0,0-.831-.671c-.559,0-.884.346-.884,1.058s.325,1.058.884,1.058a.746.746,0,0,0,.831-.7h.822c0,.692-.556,1.309-1.653,1.309" transform="translate(46.023 81.014)" fill="#050605"/>
    <path id="Path_83191" data-name="Path 83191" d="M25.747,51.577h-.878V48.364h.878Zm-.435-3.692c-.328,0-.511-.181-.511-.417s.183-.419.511-.419.5.181.5.419-.177.417-.5.417" transform="translate(48.525 80.223)" fill="#050605"/>
    <rect id="Rectangle_147739" data-name="Rectangle 147739" width="0.878" height="4.434" transform="translate(74.911 127.368)" fill="#050605"/>
    <path id="Path_83192" data-name="Path 83192" d="M28.162,50.851a1.673,1.673,0,1,1,0-3.338,1.673,1.673,0,1,1,0,3.338m0-.611c.585,0,.914-.349.914-1.058s-.328-1.06-.914-1.06-.9.349-.9,1.06.325,1.058.9,1.058" transform="translate(51.613 81.014)" fill="#050605"/>
    <path id="Path_83193" data-name="Path 83193" d="M29.064,51.536h-.878V48.9h-.55v-.573h.55v-.281c0-.671.307-.968,1.061-.968.157,0,.438.016.579.03v.541l-.367-.005c-.281,0-.4.124-.4.373v.311h.763V48.9h-.763Z" transform="translate(54.072 80.264)" fill="#050605"/>
    <rect id="Rectangle_147740" data-name="Rectangle 147740" width="0.925" height="4.434" transform="translate(86.108 127.368)" fill="#050605"/>
    <path id="Path_83194" data-name="Path 83194" d="M32.788,50.788H31.91V48.819c0-.433-.171-.652-.6-.652a.736.736,0,0,0-.76.828v1.793h-.878V47.574h.837V48.1a1.116,1.116,0,0,1,1.076-.584c.8,0,1.2.373,1.2,1.152Z" transform="translate(58.056 81.012)" fill="#050605"/>
    <path id="Path_83195" data-name="Path 83195" d="M32.439,51.583a1.674,1.674,0,0,1,0-3.338,1.148,1.148,0,0,1,1.085.546V47.084H34.4v4.434h-.837v-.546a1.153,1.153,0,0,1-1.126.611m.2-.611c.523,0,.881-.325.881-1.058s-.358-1.06-.881-1.06-.872.325-.872,1.06.358,1.058.872,1.058" transform="translate(60.451 80.282)" fill="#050605"/>
    <path id="Path_83196" data-name="Path 83196" d="M33.22,51.577h-.878V48.364h.878Zm-.435-3.692c-.325,0-.512-.181-.512-.417s.186-.419.512-.419.5.181.5.419-.177.417-.5.417" transform="translate(63.147 80.223)" fill="#050605"/>
    <path id="Path_83197" data-name="Path 83197" d="M34.029,50.851c-.822,0-1.265-.381-1.265-.971,0-.492.319-.885,1.206-.947l.715-.057c.352-.03.455-.119.455-.287,0-.316-.213-.506-.647-.506-.408,0-.633.162-.668.506h-.869c0-.655.449-1.077,1.532-1.077s1.532.422,1.532,1.077v1.377a1.99,1.99,0,0,0,.106.822h-.8a.69.69,0,0,1-.148-.5,1.165,1.165,0,0,1-1.153.563m.26-.549a.805.805,0,0,0,.851-.847v-.225a.777.777,0,0,1-.464.124l-.414.032c-.443.038-.621.206-.621.436,0,.287.2.479.647.479" transform="translate(64.106 81.014)" fill="#050605"/>
    <path id="Path_83198" data-name="Path 83198" d="M1.094,53.965H0V53a1.786,1.786,0,0,1,.76-1.672l.659.26A2.289,2.289,0,0,0,1.094,53Zm2.028,0H2.028V53a1.786,1.786,0,0,1,.76-1.672l.659.26A2.231,2.231,0,0,0,3.122,53Z" transform="translate(0 87.519)" fill="#050605"/>
    <path id="Path_83199" data-name="Path 83199" d="M7.8,57.939H6.426l-.532-1.374H2.843l-.532,1.374H.933l2.608-6.611H5.2ZM5.56,55.591,4.369,52.48l-1.2,3.111Z" transform="translate(1.825 87.519)" fill="#050605"/>
    <path id="Path_83200" data-name="Path 83200" d="M7.946,56.851H6.674V53.916c0-.649-.245-.974-.866-.974a1.086,1.086,0,0,0-1.1,1.236v2.673H3.437V52.061H4.646v.779A1.615,1.615,0,0,1,6.2,51.966a1.522,1.522,0,0,1,1.741,1.718Z" transform="translate(6.725 88.606)" fill="#050605"/>
    <path id="Path_83201" data-name="Path 83201" d="M7.443,58.029H6.172V53.238H7.443Zm-.63-5.508c-.473,0-.739-.268-.739-.622s.266-.622.739-.622.727.27.727.622-.254.622-.727.622" transform="translate(11.884 87.432)" fill="#050605"/>
    <path id="Path_83202" data-name="Path 83202" d="M11.358,56.851H10.086V53.916c0-.649-.245-.974-.866-.974a1.086,1.086,0,0,0-1.1,1.236v2.673H6.849V52.061H8.058v.779a1.615,1.615,0,0,1,1.558-.874,1.522,1.522,0,0,1,1.741,1.718Z" transform="translate(13.401 88.606)" fill="#050605"/>
    <path id="Path_83203" data-name="Path 83203" d="M10.022,58.029H8.751V53.238h1.271Zm-.63-5.508c-.473,0-.739-.268-.739-.622s.266-.622.739-.622.727.27.727.622-.254.622-.727.622" transform="translate(16.93 87.432)" fill="#050605"/>
    <path id="Path_83204" data-name="Path 83204" d="M11.638,57.752c-1.153,0-1.537-.335-1.537-1.393V53.767H9.3v-.855h.8V51.465h1.271v1.447h1.1v.855h-1.1V56.4c0,.373.169.5.571.5l.532-.008v.809c-.207.019-.609.046-.837.046" transform="translate(18.206 87.752)" fill="#050605"/>
    <path id="Path_83205" data-name="Path 83205" d="M11.957,58.029H10.686V53.238h1.271Zm-.63-5.508c-.473,0-.739-.268-.739-.622s.266-.622.739-.622.727.27.727.622-.254.622-.727.622" transform="translate(20.716 87.432)" fill="#050605"/>
    <path id="Path_83206" data-name="Path 83206" d="M13.126,56.943c-1.192,0-1.83-.565-1.83-1.447,0-.736.464-1.32,1.741-1.412L14.072,54c.511-.046.659-.176.659-.427,0-.473-.3-.752-.934-.752-.591,0-.917.241-.964.752H11.571c0-.974.65-1.607,2.217-1.607S16,52.6,16,53.573v2.053a2.972,2.972,0,0,0,.157,1.225h-1.15a1.032,1.032,0,0,1-.219-.744,1.66,1.66,0,0,1-1.665.836m.375-.817a1.183,1.183,0,0,0,1.23-1.263V54.53a1.1,1.1,0,0,1-.668.184l-.6.046c-.642.057-.9.308-.9.652,0,.427.284.714.934.714" transform="translate(22.102 88.606)" fill="#050605"/>
    <path id="Path_83207" data-name="Path 83207" d="M15.378,57.752c-1.153,0-1.537-.335-1.537-1.393V53.767h-.8v-.855h.8V51.465h1.271v1.447h1.1v.855h-1.1V56.4c0,.373.169.5.571.5l.532-.008v.809c-.207.019-.609.046-.837.046" transform="translate(25.524 87.752)" fill="#050605"/>
    <path id="Path_83208" data-name="Path 83208" d="M15.7,58.029H14.426V53.238H15.7Zm-.63-5.508c-.473,0-.739-.268-.739-.622s.266-.622.739-.622.727.27.727.622-.254.622-.727.622" transform="translate(28.034 87.432)" fill="#050605"/>
    <path id="Path_83209" data-name="Path 83209" d="M18.388,56.792H16.85L14.97,52H16.3l1.319,3.741L18.938,52h1.33Z" transform="translate(29.29 88.666)" fill="#050605"/>
    <path id="Path_83210" data-name="Path 83210" d="M19.354,56.944a2.49,2.49,0,1,1-.059-4.977A2.307,2.307,0,0,1,21.826,54.4a2.829,2.829,0,0,1-.021.308H18.044c.038.974.532,1.42,1.31,1.42a1.13,1.13,0,0,0,1.192-.79h1.171a2.119,2.119,0,0,1-2.362,1.607m-.059-4.16a1.176,1.176,0,0,0-1.251,1.142h2.51a1.182,1.182,0,0,0-1.26-1.142" transform="translate(32.818 88.608)" fill="#050605"/>
    <path id="Path_83211" data-name="Path 83211" d="M22.076,56.943a2.49,2.49,0,1,1,0-4.977,2.491,2.491,0,1,1,0,4.977m0-.909c.846,0,1.319-.519,1.319-1.58s-.473-1.577-1.319-1.577-1.31.519-1.31,1.577.473,1.58,1.31,1.58" transform="translate(38.144 88.606)" fill="#050605"/>
    <path id="Path_83212" data-name="Path 83212" d="M23.38,57.968H22.108V54.032h-.8v-.855h.8v-.419c0-1,.443-1.447,1.537-1.447.228,0,.63.027.837.046v.809l-.532-.011c-.4,0-.571.187-.571.557v.465h1.1v.855h-1.1Z" transform="translate(41.701 87.49)" fill="#050605"/>
    <path id="Path_83213" data-name="Path 83213" d="M29.462,57.939H28.025l-3.291-4.82v4.82H23.466V51.328H24.9l3.279,4.82v-4.82h1.28Z" transform="translate(45.914 87.519)" fill="#050605"/>
    <path id="Path_83214" data-name="Path 83214" d="M28.662,58.092c-1.948,0-2.895-.809-2.895-2.218h1.295c.112.871.532,1.271,1.629,1.271,1.064,0,1.523-.427,1.523-1.041,0-.454-.263-.752-1.336-.9l-.9-.122c-1.466-.195-2.04-.679-2.04-1.756,0-1.19.9-2.034,2.72-2.034s2.717.836,2.717,2.126H30.11c-.092-.779-.544-1.179-1.478-1.179s-1.348.411-1.348,1.012c0,.457.225.687,1.162.809l.9.122c1.425.195,2.214.706,2.214,1.848,0,1.234-.946,2.061-2.894,2.061" transform="translate(50.415 87.461)" fill="#050605"/>
    <path id="Path_83215" data-name="Path 83215" d="M34.27,54.634c0,2.08-1.171,3.306-3.486,3.306H28V51.328h2.788c2.315,0,3.486,1.236,3.486,3.306m-1.339,0c0-1.531-.689-2.313-2.078-2.313H29.335v4.626h1.517c1.39,0,2.078-.779,2.078-2.313" transform="translate(54.777 87.519)" fill="#050605"/>
    <path id="Path_83216" data-name="Path 83216" d="M33.773,58.092a3.4,3.4,0,1,1,0-6.8c1.931,0,3.243,1.077,3.243,2.508H35.745a1.752,1.752,0,0,0-1.972-1.477c-1.4,0-2.135.847-2.135,2.367s.73,2.37,2.135,2.37a1.738,1.738,0,0,0,1.972-1.531h1.271c0,1.455-1.271,2.562-3.243,2.562" transform="translate(59.277 87.461)" fill="#050605"/>
    <path id="Path_83217" data-name="Path 83217" d="M33.4,53.965l-.659-.26a2.218,2.218,0,0,0,.325-1.412v-.966h1.091v.966a1.784,1.784,0,0,1-.757,1.672m2.028,0-.659-.26a2.275,2.275,0,0,0,.325-1.412v-.966H36.18v.966a1.784,1.784,0,0,1-.757,1.672" transform="translate(64.051 87.519)" fill="#050605"/>
  </g>
</svg>
